URWGothicL-BookObli.ufo
<glyph name="exclam" format="1">
  <advance width="295"/>
  <unicode hex="0021"/>
  <outline>
    <contour>
      <point x="111" y="0" type="line"/>
      <point x="185" y="0" type="line"/>
      <point x="208" y="126" type="line"/>
      <point x="134" y="126" type="line"/>
    </contour>
    <contour>
      <point x="148" y="197" type="line"/>
      <point x="222" y="197" type="line"/>
      <point x="322" y="739" type="line"/>
      <point x="248" y="739" type="line"/>
    </contour>
  </outline>
</glyph>
<glyph name="numbersign" format="1">
  <advance width="554"/>
  <unicode hex="0023"/>
  <outline>
    <contour>
      <point x="463" y="513" type="line"/>
      <point x="336" y="513" type="line"/>
      <point x="420" y="739" type="line"/>
      <point x="356" y="739" type="line"/>
      <point x="271" y="513" type="line"/>
      <point x="139" y="513" type="line"/>
      <point x="128" y="453" type="line"/>
      <point x="249" y="453" type="line"/>
      <point x="190" y="297" type="line"/>
      <point x="62" y="297" type="line"/>
      <point x="51" y="237" type="line"/>
      <point x="168" y="237" type="line"/>
      <point x="79" y="0" type="line"/>
      <point x="145" y="0" type="line"/>
      <point x="233" y="237" type="line"/>
      <point x="362" y="237" type="line"/>
      <point x="275" y="0" type="line"/>
      <point x="341" y="0" type="line"/>
      <point x="428" y="237" type="line"/>
      <point x="554" y="237" type="line"/>
      <point x="565" y="297" type="line"/>
      <point x="450" y="297" type="line"/>
      <point x="507" y="453" type="line"/>
      <point x="629" y="453" type="line"/>
      <point x="640" y="513" type="line"/>
      <point x="529" y="513" type="line"/>
      <point x="612" y="739" type="line"/>
      <point x="546" y="739" type="line"/>
    </contour>
    <contour>
      <point x="441" y="453" type="line"/>
      <point x="384" y="297" type="line"/>
      <point x="256" y="297" type="line"/>
      <point x="314" y="453" type="line"/>
    </contour>
  </outline>
</glyph>
<glyph name="dollar" format="1">
  <advance width="554"/>
  <unicode hex="0024"/>
  <outline>
    <contour>
      <point x="234" y="-56" type="line"/>
      <point x="300" y="-56" type="line"/>
      <point x="316" y="29" type="line"/>
      <point x="378" y="40"/>
      <point x="408" y="54"/>
      <point x="446" y="90" type="curve" smooth="yes"/>
      <point x="496" y="138"/>
      <point x="524" y="200"/>
      <point x="524" y="264" type="curve" smooth="yes"/>
      <point x="524" y="303"/>
      <point x="512" y="337"/>
      <point x="491" y="363" type="curve" smooth="yes"/>
      <point x="468" y="390"/>
      <point x="441" y="405"/>
      <point x="373" y="428" type="curve" smooth="yes"/>
      <point x="295" y="455"/>
      <point x="269" y="477"/>
      <point x="269" y="516" type="curve" smooth="yes"/>
      <point x="269" y="549"/>
      <point x="284" y="593"/>
      <point x="303" y="616" type="curve" smooth="yes"/>
      <point x="328" y="647"/>
      <point x="367" y="665"/>
      <point x="409" y="665" type="curve" smooth="yes"/>
      <point x="465" y="665"/>
      <point x="505" y="629"/>
      <point x="505" y="579" type="curve" smooth="yes"/>
      <point x="505" y="571"/>
      <point x="505" y="570"/>
      <point x="503" y="547" type="curve"/>
      <point x="573" y="547" type="line"/>
      <point x="574" y="558"/>
      <point x="575" y="567"/>
      <point x="575" y="573" type="curve" smooth="yes"/>
      <point x="575" y="663"/>
      <point x="537" y="708"/>
      <point x="446" y="728" type="curve"/>
      <point x="461" y="810" type="line"/>
      <point x="395" y="810" type="line"/>
      <point x="380" y="728" type="line"/>
      <point x="274" y="708"/>
      <point x="197" y="618"/>
      <point x="197" y="513" type="curve" smooth="yes"/>
      <point x="197" y="485"/>
      <point x="204" y="458"/>
      <point x="218" y="436" type="curve" smooth="yes"/>
      <point x="239" y="403"/>
      <point x="268" y="384"/>
      <point x="335" y="363" type="curve" smooth="yes"/>
      <point x="383" y="348"/>
      <point x="403" y="338"/>
      <point x="420" y="321" type="curve" smooth="yes"/>
      <point x="438" y="304"/>
      <point x="447" y="279"/>
      <point x="447" y="252" type="curve" smooth="yes"/>
      <point x="447" y="162"/>
      <point x="377" y="90"/>
      <point x="291" y="90" type="curve" smooth="yes"/>
      <point x="227" y="90"/>
      <point x="184" y="133"/>
      <point x="184" y="196" type="curve" smooth="yes"/>
      <point x="184" y="202"/>
      <point x="184" y="204"/>
      <point x="186" y="228" type="curve"/>
      <point x="118" y="228" type="line"/>
      <point x="113" y="201"/>
      <point x="112" y="191"/>
      <point x="112" y="178" type="curve" smooth="yes"/>
      <point x="112" y="138"/>
      <point x="130" y="94"/>
      <point x="156" y="72" type="curve" smooth="yes"/>
      <point x="184" y="49"/>
      <point x="215" y="34"/>
      <point x="250" y="29" type="curve"/>
    </contour>
  </outline>
</glyph>
<glyph name="percent" format="1">
  <advance width="775"/>
  <unicode hex="0025"/>
  <outline>
    <contour>
      <point x="651" y="739" type="line"/>
      <point x="183" y="0" type="line"/>
      <point x="255" y="0" type="line"/>
      <point x="726" y="739" type="line"/>
    </contour>
    <contour>
      <point x="640" y="338" type="curve" smooth="yes"/>
      <point x="530" y="338"/>
      <point x="428" y="239"/>
      <point x="428" y="132" type="curve" smooth="yes"/>
      <point x="428" y="48"/>
      <point x="490" y="-13"/>
      <point x="575" y="-13" type="curve" smooth="yes"/>
      <point x="684" y="-13"/>
      <point x="785" y="87"/>
      <point x="785" y="195" type="curve" smooth="yes"/>
      <point x="785" y="277"/>
      <point x="723" y="338"/>
    </contour>
    <contour>
      <point x="629" y="270" type="curve" smooth="yes"/>
      <point x="678" y="270"/>
      <point x="717" y="232"/>
      <point x="717" y="185" type="curve" smooth="yes"/>
      <point x="717" y="116"/>
      <point x="655" y="55"/>
      <point x="584" y="55" type="curve" smooth="yes"/>
      <point x="534" y="55"/>
      <point x="496" y="93"/>
      <point x="496" y="142" type="curve" smooth="yes"/>
      <point x="496" y="209"/>
      <point x="559" y="270"/>
    </contour>
    <contour>
      <point x="329" y="749" type="curve" smooth="yes"/>
      <point x="270" y="749"/>
      <point x="213" y="723"/>
      <point x="173" y="677" type="curve" smooth="yes"/>
      <point x="138" y="637"/>
      <point x="117" y="587"/>
      <point x="117" y="542" type="curve" smooth="yes"/>
      <point x="117" y="458"/>
      <point x="179" y="397"/>
      <point x="265" y="397" type="curve" smooth="yes"/>
      <point x="373" y="397"/>
      <point x="474" y="498"/>
      <point x="474" y="606" type="curve" smooth="yes"/>
      <point x="474" y="687"/>
      <point x="412" y="749"/>
    </contour>
    <contour>
      <point x="318" y="681" type="curve" smooth="yes"/>
      <point x="367" y="681"/>
      <point x="406" y="643"/>
      <point x="406" y="595" type="curve" smooth="yes"/>
      <point x="406" y="526"/>
      <point x="344" y="465"/>
      <point x="273" y="465" type="curve" smooth="yes"/>
      <point x="223" y="465"/>
      <point x="185" y="502"/>
      <point x="185" y="552" type="curve" smooth="yes"/>
      <point x="185" y="621"/>
      <point x="247" y="681"/>
    </contour>
  </outline>
</glyph>
<glyph name="ampersand" format="1">
  <advance width="757"/>
  <unicode hex="0026"/>
  <outline>
    <contour>
      <point x="692" y="481" type="line"/>
      <point x="546" y="273" type="line"/>
      <point x="431" y="411" type="line"/>
      <point x="496" y="440"/>
      <point x="518" y="452"/>
      <point x="546" y="477" type="curve" smooth="yes"/>
      <point x="588" y="514"/>
      <point x="611" y="564"/>
      <point x="611" y="617" type="curve" smooth="yes"/>
      <point x="611" y="697"/>
      <point x="550" y="752"/>
      <point x="462" y="752" type="curve" smooth="yes"/>
      <point x="351" y="752"/>
      <point x="253" y="662"/>
      <point x="253" y="560" type="curve" smooth="yes"/>
      <point x="253" y="521"/>
      <point x="267" y="489"/>
      <point x="308" y="433" type="curve"/>
      <point x="301" y="429"/>
      <point x="295" y="426"/>
      <point x="291" y="424" type="curve" smooth="yes"/>
      <point x="220" y="387" type="line"/>
      <point x="198" y="373"/>
      <point x="171" y="349"/>
      <point x="152" y="327" type="curve" smooth="yes"/>
      <point x="113" y="280"/>
      <point x="93" y="229"/>
      <point x="93" y="173" type="curve" smooth="yes"/>
      <point x="93" y="60"/>
      <point x="169" y="-13"/>
      <point x="286" y="-13" type="curve" smooth="yes"/>
      <point x="353" y="-13"/>
      <point x="405" y="7"/>
      <point x="454" y="51" type="curve" smooth="yes"/>
      <point x="489" y="81"/>
      <point x="517" y="114"/>
      <point x="542" y="153" type="curve"/>
      <point x="683" y="-13" type="line"/>
      <point x="743" y="38" type="line"/>
      <point x="590" y="220" type="line"/>
      <point x="774" y="481" type="line"/>
    </contour>
    <contour>
      <point x="497" y="206" type="line"/>
      <point x="481" y="180"/>
      <point x="464" y="159"/>
      <point x="437" y="130" type="curve" smooth="yes"/>
      <point x="387" y="75"/>
      <point x="349" y="55"/>
      <point x="296" y="55" type="curve" smooth="yes"/>
      <point x="220" y="55"/>
      <point x="165" y="106"/>
      <point x="165" y="177" type="curve" smooth="yes"/>
      <point x="165" y="264"/>
      <point x="215" y="318"/>
      <point x="351" y="380" type="curve"/>
    </contour>
    <contour>
      <point x="387" y="464" type="curve"/>
      <point x="383" y="469"/>
      <point x="380" y="473"/>
      <point x="378" y="475" type="curve"/>
      <point x="342" y="520"/>
      <point x="330" y="544"/>
      <point x="330" y="572" type="curve" smooth="yes"/>
      <point x="330" y="593"/>
      <point x="343" y="624"/>
      <point x="360" y="643" type="curve" smooth="yes"/>
      <point x="384" y="670"/>
      <point x="416" y="684"/>
      <point x="451" y="684" type="curve" smooth="yes"/>
      <point x="506" y="684"/>
      <point x="539" y="653"/>
      <point x="539" y="603" type="curve" smooth="yes"/>
      <point x="539" y="569"/>
      <point x="521" y="537"/>
      <point x="488" y="514" type="curve" smooth="yes"/>
      <point x="465" y="497"/>
      <point x="450" y="490"/>
    </contour>
  </outline>
</glyph>
<glyph name="parenleft" format="1">
  <advance width="369"/>
  <unicode hex="0028"/>
  <outline>
    <contour>
      <point x="472" y="739" type="line"/>
      <point x="397" y="715"/>
      <point x="342" y="680"/>
      <point x="281" y="617" type="curve" smooth="yes"/>
      <point x="167" y="498"/>
      <point x="106" y="360"/>
      <point x="106" y="221" type="curve" smooth="yes"/>
      <point x="106" y="127"/>
      <point x="138" y="32"/>
      <point x="193" y="-38" type="curve" smooth="yes"/>
      <point x="226" y="-80"/>
      <point x="257" y="-103"/>
      <point x="312" y="-125" type="curve"/>
      <point x="324" y="-60" type="line"/>
      <point x="233" y="3"/>
      <point x="183" y="106"/>
      <point x="183" y="232" type="curve" smooth="yes"/>
      <point x="183" y="325"/>
      <point x="216" y="421"/>
      <point x="279" y="513" type="curve" smooth="yes"/>
      <point x="329" y="585"/>
      <point x="370" y="622"/>
      <point x="460" y="676" type="curve"/>
    </contour>
  </outline>
</glyph>
<glyph name="parenright" format="1">
  <advance width="369"/>
  <unicode hex="0029"/>
  <outline>
    <contour>
      <point x="10" y="-125" type="line"/>
      <point x="93" y="-95"/>
      <point x="139" y="-66"/>
      <point x="201" y="-3" type="curve" smooth="yes"/>
      <point x="312" y="110"/>
      <point x="377" y="256"/>
      <point x="377" y="392" type="curve" smooth="yes"/>
      <point x="377" y="489"/>
      <point x="346" y="580"/>
      <point x="289" y="652" type="curve" smooth="yes"/>
      <point x="253" y="698"/>
      <point x="222" y="720"/>
      <point x="170" y="739" type="curve"/>
      <point x="158" y="674" type="line"/>
      <point x="206" y="638"/>
      <point x="229" y="614"/>
      <point x="249" y="579" type="curve" smooth="yes"/>
      <point x="281" y="521"/>
      <point x="300" y="450"/>
      <point x="300" y="382" type="curve" smooth="yes"/>
      <point x="300" y="287"/>
      <point x="268" y="193"/>
      <point x="203" y="102" type="curve" smooth="yes"/>
      <point x="149" y="26"/>
      <point x="95" y="-22"/>
      <point x="22" y="-61" type="curve"/>
    </contour>
  </outline>
</glyph>
<glyph name="asterisk" format="1">
  <advance width="425"/>
  <unicode hex="002A"/>
  <outline>
    <contour>
      <point x="406" y="734" type="line"/>
      <point x="336" y="652" type="line"/>
      <point x="302" y="752" type="line"/>
      <point x="247" y="734" type="line"/>
      <point x="287" y="632" type="line"/>
      <point x="182" y="654" type="line"/>
      <point x="172" y="602" type="line"/>
      <point x="278" y="585" type="line"/>
      <point x="203" y="506" type="line"/>
      <point x="247" y="470" type="line"/>
      <point x="317" y="550" type="line"/>
      <point x="352" y="449" type="line"/>
      <point x="405" y="468" type="line"/>
      <point x="366" y="568" type="line"/>
      <point x="468" y="547" type="line"/>
      <point x="477" y="599" type="line"/>
      <point x="374" y="615" type="line"/>
      <point x="447" y="696" type="line"/>
    </contour>
  </outline>
</glyph>
<glyph name="plus" format="1">
  <advance width="606"/>
  <unicode hex="002B"/>
  <outline>
    <contour>
      <point x="328" y="341" type="line"/>
      <point x="114" y="341" type="line"/>
      <point x="100" y="267" type="line"/>
      <point x="315" y="267" type="line"/>
      <point x="276" y="55" type="line"/>
      <point x="350" y="55" type="line"/>
      <point x="389" y="267" type="line"/>
      <point x="604" y="267" type="line"/>
      <point x="618" y="341" type="line"/>
      <point x="403" y="341" type="line"/>
      <point x="442" y="550" type="line"/>
      <point x="367" y="550" type="line"/>
    </contour>
  </outline>
</glyph>
<glyph name="comma" format="1">
  <advance width="277"/>
  <unicode hex="002C"/>
  <outline>
    <contour>
      <point x="79" y="-67" type="line"/>
      <point x="152" y="-67" type="line"/>
      <point x="276" y="126" type="line"/>
      <point x="203" y="126" type="line"/>
    </contour>
  </outline>
</glyph>
<glyph name="hyphen" format="1">
  <advance width="332"/>
  <unicode hex="002D"/>
  <outline>
    <contour>
      <point x="92" y="296" type="line"/>
      <point x="80" y="233" type="line"/>
      <point x="352" y="233" type="line"/>
      <point x="364" y="296" type="line"/>
    </contour>
  </outline>
</glyph>
<glyph name="slash" format="1">
  <advance width="437"/>
  <unicode hex="002F"/>
  <outline>
    <contour>
      <point x="16" y="-128" type="line"/>
      <point x="83" y="-128" type="line"/>
      <point x="534" y="739" type="line"/>
      <point x="465" y="739" type="line"/>
    </contour>
  </outline>
</glyph>
<glyph name="zero" format="1">
  <advance width="554"/>
  <unicode hex="0030"/>
  <outline>
    <contour>
      <point x="81" y="269" type="line"/>
      <point x="79" y="260" type="line" smooth="yes"/>
      <point x="75" y="241"/>
      <point x="71" y="202"/>
      <point x="71" y="175" type="curve" smooth="yes"/>
      <point x="71" y="59"/>
      <point x="150" y="-13"/>
      <point x="277" y="-13" type="curve" smooth="yes"/>
      <point x="366" y="-13"/>
      <point x="441" y="19"/>
      <point x="493" y="79" type="curve" smooth="yes"/>
      <point x="530" y="121"/>
      <point x="558" y="187"/>
      <point x="573" y="269" type="curve" smooth="yes"/>
      <point x="612" y="479" type="line" smooth="yes"/>
      <point x="616" y="501"/>
      <point x="621" y="554"/>
      <point x="621" y="575" type="curve" smooth="yes"/>
      <point x="621" y="617"/>
      <point x="602" y="665"/>
      <point x="572" y="695" type="curve" smooth="yes"/>
      <point x="536" y="732"/>
      <point x="482" y="752"/>
      <point x="418" y="752" type="curve" smooth="yes"/>
      <point x="336" y="752"/>
      <point x="260" y="722"/>
      <point x="208" y="669" type="curve" smooth="yes"/>
      <point x="163" y="624"/>
      <point x="136" y="566"/>
      <point x="120" y="479" type="curve" smooth="yes"/>
    </contour>
    <contour>
      <point x="502" y="281" type="line" smooth="yes"/>
      <point x="490" y="218"/>
      <point x="472" y="166"/>
      <point x="450" y="135" type="curve" smooth="yes"/>
      <point x="414" y="84"/>
      <point x="356" y="55"/>
      <point x="290" y="55" type="curve" smooth="yes"/>
      <point x="205" y="55"/>
      <point x="148" y="109"/>
      <point x="148" y="189" type="curve" smooth="yes"/>
      <point x="148" y="204"/>
      <point x="153" y="267"/>
      <point x="156" y="281" type="curve" smooth="yes"/>
      <point x="189" y="462" type="line" smooth="yes"/>
      <point x="200" y="521"/>
      <point x="221" y="577"/>
      <point x="243" y="607" type="curve" smooth="yes"/>
      <point x="277" y="653"/>
      <point x="341" y="684"/>
      <point x="404" y="684" type="curve" smooth="yes"/>
      <point x="448" y="684"/>
      <point x="488" y="668"/>
      <point x="514" y="639" type="curve" smooth="yes"/>
      <point x="536" y="615"/>
      <point x="544" y="590"/>
      <point x="544" y="550" type="curve" smooth="yes"/>
      <point x="544" y="523"/>
      <point x="541" y="497"/>
      <point x="535" y="462" type="curve" smooth="yes"/>
    </contour>
  </outline>
</glyph>
<glyph name="one" format="1">
  <advance width="554"/>
  <unicode hex="0031"/>
  <outline>
    <contour>
      <point x="281" y="0" type="line"/>
      <point x="354" y="0" type="line"/>
      <point x="491" y="739" type="line"/>
      <point x="292" y="739" type="line"/>
      <point x="280" y="672" type="line"/>
      <point x="406" y="672" type="line"/>
    </contour>
  </outline>
</glyph>
<glyph name="two" format="1">
  <advance width="554"/>
  <unicode hex="0032"/>
  <outline>
    <contour>
      <point x="33" y="0" type="line"/>
      <point x="502" y="0" type="line"/>
      <point x="514" y="67" type="line"/>
      <point x="145" y="67" type="line"/>
      <point x="425" y="294" type="line" smooth="yes"/>
      <point x="563" y="406"/>
      <point x="607" y="473"/>
      <point x="607" y="572" type="curve" smooth="yes"/>
      <point x="607" y="680"/>
      <point x="529" y="752"/>
      <point x="411" y="752" type="curve" smooth="yes"/>
      <point x="268" y="752"/>
      <point x="155" y="650"/>
      <point x="132" y="500" type="curve"/>
      <point x="205" y="500" type="line"/>
      <point x="224" y="614"/>
      <point x="297" y="684"/>
      <point x="398" y="684" type="curve" smooth="yes"/>
      <point x="478" y="684"/>
      <point x="530" y="635"/>
      <point x="530" y="560" type="curve" smooth="yes"/>
      <point x="530" y="483"/>
      <point x="493" y="433"/>
      <point x="351" y="317" type="curve" smooth="yes"/>
      <point x="45" y="67" type="line"/>
    </contour>
  </outline>
</glyph>
<glyph name="three" format="1">
  <advance width="554"/>
  <unicode hex="0033"/>
  <outline>
    <contour>
      <point x="257" y="555" type="line"/>
      <point x="265" y="630"/>
      <point x="323" y="684"/>
      <point x="394" y="684" type="curve" smooth="yes"/>
      <point x="422" y="684"/>
      <point x="444" y="676"/>
      <point x="460" y="661" type="curve" smooth="yes"/>
      <point x="475" y="646"/>
      <point x="487" y="616"/>
      <point x="487" y="593" type="curve" smooth="yes"/>
      <point x="487" y="561"/>
      <point x="470" y="517"/>
      <point x="448" y="495" type="curve" smooth="yes"/>
      <point x="422" y="468"/>
      <point x="381" y="452"/>
      <point x="341" y="452" type="curve" smooth="yes"/>
      <point x="337" y="452"/>
      <point x="329" y="452"/>
      <point x="319" y="453" type="curve" smooth="yes"/>
      <point x="302" y="454" type="line"/>
      <point x="290" y="388" type="line"/>
      <point x="323" y="388"/>
      <point x="354" y="386"/>
      <point x="373" y="382" type="curve" smooth="yes"/>
      <point x="433" y="370"/>
      <point x="471" y="319"/>
      <point x="471" y="252" type="curve" smooth="yes"/>
      <point x="471" y="147"/>
      <point x="380" y="55"/>
      <point x="277" y="55" type="curve" smooth="yes"/>
      <point x="222" y="55"/>
      <point x="180" y="80"/>
      <point x="158" y="127" type="curve" smooth="yes"/>
      <point x="149" y="146"/>
      <point x="146" y="166"/>
      <point x="146" y="216" type="curve" smooth="yes"/>
      <point x="146" y="218"/>
      <point x="146" y="223"/>
      <point x="147" y="231" type="curve"/>
      <point x="74" y="231" type="line"/>
      <point x="73" y="217" type="line" smooth="yes"/>
      <point x="72" y="193"/>
      <point x="71" y="177"/>
      <point x="71" y="171" type="curve" smooth="yes"/>
      <point x="71" y="134"/>
      <point x="87" y="86"/>
      <point x="108" y="58" type="curve" smooth="yes"/>
      <point x="141" y="14"/>
      <point x="204" y="-13"/>
      <point x="270" y="-13" type="curve" smooth="yes"/>
      <point x="417" y="-13"/>
      <point x="548" y="120"/>
      <point x="548" y="270" type="curve" smooth="yes"/>
      <point x="548" y="340"/>
      <point x="518" y="390"/>
      <point x="456" y="423" type="curve"/>
      <point x="489" y="444"/>
      <point x="507" y="460"/>
      <point x="524" y="483" type="curve" smooth="yes"/>
      <point x="548" y="514"/>
      <point x="564" y="563"/>
      <point x="564" y="604" type="curve" smooth="yes"/>
      <point x="564" y="692"/>
      <point x="502" y="752"/>
      <point x="409" y="752" type="curve" smooth="yes"/>
      <point x="344" y="752"/>
      <point x="282" y="723"/>
      <point x="238" y="672" type="curve" smooth="yes"/>
      <point x="210" y="640"/>
      <point x="195" y="608"/>
      <point x="184" y="555" type="curve"/>
    </contour>
  </outline>
</glyph>
<glyph name="four" format="1">
  <advance width="554"/>
  <unicode hex="0034"/>
  <outline>
    <contour>
      <point x="387" y="0" type="line"/>
      <point x="460" y="0" type="line"/>
      <point x="485" y="135" type="line"/>
      <point x="553" y="135" type="line"/>
      <point x="565" y="202" type="line"/>
      <point x="497" y="202" type="line"/>
      <point x="597" y="739" type="line"/>
      <point x="510" y="739" type="line"/>
      <point x="49" y="202" type="line"/>
      <point x="37" y="135" type="line"/>
      <point x="412" y="135" type="line"/>
    </contour>
    <contour>
      <point x="424" y="202" type="line"/>
      <point x="135" y="202" type="line"/>
      <point x="505" y="637" type="line"/>
    </contour>
  </outline>
</glyph>
<glyph name="five" format="1">
  <advance width="554"/>
  <unicode hex="0035"/>
  <outline>
    <contour>
      <point x="135" y="375" type="line"/>
      <point x="188" y="353" type="line"/>
      <point x="242" y="407"/>
      <point x="299" y="435"/>
      <point x="356" y="435" type="curve" smooth="yes"/>
      <point x="441" y="435"/>
      <point x="500" y="374"/>
      <point x="500" y="286" type="curve" smooth="yes"/>
      <point x="500" y="162"/>
      <point x="400" y="55"/>
      <point x="283" y="55" type="curve" smooth="yes"/>
      <point x="230" y="55"/>
      <point x="185" y="81"/>
      <point x="159" y="128" type="curve" smooth="yes"/>
      <point x="144" y="154"/>
      <point x="139" y="180"/>
      <point x="139" y="232" type="curve"/>
      <point x="67" y="232" type="line"/>
      <point x="67" y="205" type="line"/>
      <point x="66" y="198" type="line" smooth="yes"/>
      <point x="63" y="178"/>
      <point x="74" y="127"/>
      <point x="87" y="101" type="curve" smooth="yes"/>
      <point x="122" y="28"/>
      <point x="191" y="-13"/>
      <point x="276" y="-13" type="curve" smooth="yes"/>
      <point x="366" y="-13"/>
      <point x="446" y="28"/>
      <point x="507" y="106" type="curve" smooth="yes"/>
      <point x="555" y="166"/>
      <point x="577" y="227"/>
      <point x="577" y="297" type="curve" smooth="yes"/>
      <point x="577" y="419"/>
      <point x="495" y="503"/>
      <point x="377" y="503" type="curve" smooth="yes"/>
      <point x="332" y="503"/>
      <point x="294" y="493"/>
      <point x="241" y="468" type="curve"/>
      <point x="315" y="672" type="line"/>
      <point x="591" y="672" type="line"/>
      <point x="603" y="739" type="line"/>
      <point x="268" y="739" type="line"/>
    </contour>
  </outline>
</glyph>
<glyph name="six" format="1">
  <advance width="554"/>
  <unicode hex="0036"/>
  <outline>
    <contour>
      <point x="433" y="739" type="line"/>
      <point x="200" y="467" type="line" smooth="yes"/>
      <point x="142" y="400"/>
      <point x="117" y="364"/>
      <point x="98" y="326" type="curve" smooth="yes"/>
      <point x="77" y="283"/>
      <point x="66" y="235"/>
      <point x="66" y="189" type="curve" smooth="yes"/>
      <point x="66" y="71"/>
      <point x="153" y="-13"/>
      <point x="277" y="-13" type="curve" smooth="yes"/>
      <point x="440" y="-13"/>
      <point x="579" y="131"/>
      <point x="579" y="299" type="curve" smooth="yes"/>
      <point x="579" y="419"/>
      <point x="500" y="503"/>
      <point x="388" y="503" type="curve" smooth="yes"/>
      <point x="357" y="503"/>
      <point x="333" y="497"/>
      <point x="297" y="482" type="curve"/>
      <point x="518" y="739" type="line"/>
    </contour>
    <contour>
      <point x="361" y="435" type="curve" smooth="yes"/>
      <point x="446" y="435"/>
      <point x="502" y="375"/>
      <point x="502" y="286" type="curve" smooth="yes"/>
      <point x="502" y="243"/>
      <point x="484" y="187"/>
      <point x="457" y="148" type="curve" smooth="yes"/>
      <point x="418" y="90"/>
      <point x="356" y="55"/>
      <point x="291" y="55" type="curve" smooth="yes"/>
      <point x="201" y="55"/>
      <point x="143" y="114"/>
      <point x="143" y="204" type="curve" smooth="yes"/>
      <point x="143" y="260"/>
      <point x="156" y="299"/>
      <point x="191" y="345" type="curve" smooth="yes"/>
      <point x="235" y="405"/>
      <point x="292" y="435"/>
    </contour>
  </outline>
</glyph>
<glyph name="seven" format="1">
  <advance width="554"/>
  <unicode hex="0037"/>
  <outline>
    <contour>
      <point x="108" y="0" type="line"/>
      <point x="186" y="0" type="line"/>
      <point x="615" y="672" type="line"/>
      <point x="627" y="739" type="line"/>
      <point x="201" y="739" type="line"/>
      <point x="189" y="672" type="line"/>
      <point x="539" y="672" type="line"/>
    </contour>
  </outline>
</glyph>
<glyph name="eight" format="1">
  <advance width="554"/>
  <unicode hex="0038"/>
  <outline>
    <contour>
      <point x="243" y="413" type="curve"/>
      <point x="142" y="367"/>
      <point x="78" y="275"/>
      <point x="78" y="176" type="curve" smooth="yes"/>
      <point x="78" y="61"/>
      <point x="156" y="-13"/>
      <point x="279" y="-13" type="curve" smooth="yes"/>
      <point x="432" y="-13"/>
      <point x="556" y="112"/>
      <point x="556" y="267" type="curve" smooth="yes"/>
      <point x="556" y="334"/>
      <point x="526" y="379"/>
      <point x="461" y="413" type="curve"/>
      <point x="502" y="431"/>
      <point x="522" y="447"/>
      <point x="540" y="474" type="curve" smooth="yes"/>
      <point x="564" y="509"/>
      <point x="580" y="560"/>
      <point x="580" y="603" type="curve" smooth="yes"/>
      <point x="580" y="691"/>
      <point x="514" y="752"/>
      <point x="417" y="752" type="curve" smooth="yes"/>
      <point x="350" y="752"/>
      <point x="288" y="724"/>
      <point x="240" y="672" type="curve" smooth="yes"/>
      <point x="205" y="633"/>
      <point x="181" y="575"/>
      <point x="181" y="527" type="curve" smooth="yes"/>
      <point x="181" y="501"/>
      <point x="190" y="469"/>
      <point x="202" y="451" type="curve" smooth="yes"/>
      <point x="210" y="439"/>
      <point x="216" y="433"/>
    </contour>
    <contour>
      <point x="349" y="375" type="curve" smooth="yes"/>
      <point x="428" y="375"/>
      <point x="481" y="325"/>
      <point x="481" y="250" type="curve" smooth="yes"/>
      <point x="481" y="143"/>
      <point x="395" y="55"/>
      <point x="289" y="55" type="curve" smooth="yes"/>
      <point x="212" y="55"/>
      <point x="155" y="108"/>
      <point x="155" y="181" type="curve" smooth="yes"/>
      <point x="155" y="220"/>
      <point x="175" y="275"/>
      <point x="200" y="306" type="curve" smooth="yes"/>
      <point x="237" y="351"/>
      <point x="289" y="375"/>
    </contour>
    <contour>
      <point x="403" y="684" type="curve" smooth="yes"/>
      <point x="464" y="684"/>
      <point x="503" y="646"/>
      <point x="503" y="587" type="curve" smooth="yes"/>
      <point x="503" y="563"/>
      <point x="490" y="526"/>
      <point x="473" y="502" type="curve" smooth="yes"/>
      <point x="448" y="466"/>
      <point x="406" y="444"/>
      <point x="362" y="444" type="curve" smooth="yes"/>
      <point x="303" y="444"/>
      <point x="258" y="486"/>
      <point x="258" y="541" type="curve" smooth="yes"/>
      <point x="258" y="619"/>
      <point x="324" y="684"/>
    </contour>
  </outline>
</glyph>
<glyph name="nine" format="1">
  <advance width="554"/>
  <unicode hex="0039"/>
  <outline>
    <contour>
      <point x="257" y="0" type="line"/>
      <point x="490" y="272" type="line" smooth="yes"/>
      <point x="557" y="351"/>
      <point x="573" y="372"/>
      <point x="593" y="413" type="curve" smooth="yes"/>
      <point x="614" y="456"/>
      <point x="625" y="503"/>
      <point x="625" y="550" type="curve" smooth="yes"/>
      <point x="625" y="670"/>
      <point x="538" y="752"/>
      <point x="412" y="752" type="curve" smooth="yes"/>
      <point x="250" y="752"/>
      <point x="112" y="606"/>
      <point x="112" y="435" type="curve" smooth="yes"/>
      <point x="112" y="320"/>
      <point x="193" y="236"/>
      <point x="303" y="236" type="curve" smooth="yes"/>
      <point x="334" y="236"/>
      <point x="358" y="242"/>
      <point x="394" y="257" type="curve"/>
      <point x="172" y="0" type="line"/>
    </contour>
    <contour>
      <point x="400" y="684" type="curve" smooth="yes"/>
      <point x="488" y="684"/>
      <point x="548" y="623"/>
      <point x="548" y="532" type="curve" smooth="yes"/>
      <point x="548" y="409"/>
      <point x="447" y="304"/>
      <point x="329" y="304" type="curve" smooth="yes"/>
      <point x="244" y="304"/>
      <point x="189" y="364"/>
      <point x="189" y="455" type="curve" smooth="yes"/>
      <point x="189" y="500"/>
      <point x="205" y="547"/>
      <point x="234" y="591" type="curve" smooth="yes"/>
      <point x="272" y="650"/>
      <point x="333" y="684"/>
    </contour>
  </outline>
</glyph>
<glyph name="colon" format="1">
  <advance width="277"/>
  <unicode hex="003A"/>
  <outline>
    <contour>
      <point x="173" y="381" type="line"/>
      <point x="247" y="381" type="line"/>
      <point x="270" y="507" type="line"/>
      <point x="196" y="507" type="line"/>
    </contour>
    <contour>
      <point x="101" y="0" type="line"/>
      <point x="175" y="0" type="line"/>
      <point x="198" y="126" type="line"/>
      <point x="124" y="126" type="line"/>
    </contour>
  </outline>
</glyph>
<glyph name="semicolon" format="1">
  <advance width="277"/>
  <unicode hex="003B"/>
  <outline>
    <contour>
      <point x="29" y="-67" type="line"/>
      <point x="102" y="-67" type="line"/>
      <point x="226" y="126" type="line"/>
      <point x="154" y="126" type="line"/>
    </contour>
    <contour>
      <point x="201" y="381" type="line"/>
      <point x="275" y="381" type="line"/>
      <point x="298" y="507" type="line"/>
      <point x="224" y="507" type="line"/>
    </contour>
  </outline>
</glyph>
<glyph name="less" format="1">
  <advance width="606"/>
  <unicode hex="003C"/>
  <outline>
    <contour>
      <point x="663" y="565" type="line"/>
      <point x="111" y="333" type="line"/>
      <point x="99" y="268" type="line"/>
      <point x="565" y="37" type="line"/>
      <point x="580" y="113" type="line"/>
      <point x="228" y="296" type="line"/>
      <point x="648" y="481" type="line"/>
    </contour>
  </outline>
</glyph>
<glyph name="equal" format="1">
  <advance width="606"/>
  <unicode hex="003D"/>
  <outline>
    <contour>
      <point x="636" y="436" type="line"/>
      <point x="132" y="436" type="line"/>
      <point x="119" y="362" type="line"/>
      <point x="622" y="362" type="line"/>
    </contour>
    <contour>
      <point x="599" y="238" type="line"/>
      <point x="96" y="238" type="line"/>
      <point x="82" y="164" type="line"/>
      <point x="586" y="164" type="line"/>
    </contour>
  </outline>
</glyph>
<glyph name="greater" format="1">
  <advance width="606"/>
  <unicode hex="003E"/>
  <outline>
    <contour>
      <point x="55" y="37" type="line"/>
      <point x="607" y="269" type="line"/>
      <point x="619" y="334" type="line"/>
      <point x="153" y="565" type="line"/>
      <point x="138" y="489" type="line"/>
      <point x="490" y="306" type="line"/>
      <point x="70" y="121" type="line"/>
    </contour>
  </outline>
</glyph>
<glyph name="question" format="1">
  <advance width="591"/>
  <unicode hex="003F"/>
  <outline>
    <contour>
      <point x="261" y="0" type="line"/>
      <point x="335" y="0" type="line"/>
      <point x="358" y="126" type="line"/>
      <point x="284" y="126" type="line"/>
    </contour>
    <contour>
      <point x="229" y="508" type="line"/>
      <point x="243" y="560"/>
      <point x="253" y="583"/>
      <point x="271" y="608" type="curve" smooth="yes"/>
      <point x="308" y="655"/>
      <point x="365" y="684"/>
      <point x="424" y="684" type="curve" smooth="yes"/>
      <point x="499" y="684"/>
      <point x="550" y="637"/>
      <point x="550" y="567" type="curve" smooth="yes"/>
      <point x="550" y="534"/>
      <point x="541" y="504"/>
      <point x="523" y="478" type="curve" smooth="yes"/>
      <point x="508" y="455"/>
      <point x="495" y="443"/>
      <point x="438" y="397" type="curve" smooth="yes"/>
      <point x="351" y="329"/>
      <point x="305" y="262"/>
      <point x="299" y="193" type="curve"/>
      <point x="369" y="193" type="line"/>
      <point x="379" y="250"/>
      <point x="413" y="294"/>
      <point x="501" y="365" type="curve" smooth="yes"/>
      <point x="557" y="409"/>
      <point x="564" y="416"/>
      <point x="586" y="447" type="curve" smooth="yes"/>
      <point x="614" y="486"/>
      <point x="627" y="528"/>
      <point x="627" y="577" type="curve" smooth="yes"/>
      <point x="627" y="683"/>
      <point x="552" y="752"/>
      <point x="438" y="752" type="curve" smooth="yes"/>
      <point x="354" y="752"/>
      <point x="274" y="714"/>
      <point x="222" y="650" type="curve" smooth="yes"/>
      <point x="190" y="611"/>
      <point x="174" y="575"/>
      <point x="159" y="508" type="curve"/>
    </contour>
  </outline>
</glyph>
<glyph name="at" format="1">
  <advance width="867"/>
  <unicode hex="0040"/>
  <outline>
    <contour>
      <point x="763" y="574" type="line"/>
      <point x="702" y="574" type="line"/>
      <point x="676" y="524" type="line"/>
      <point x="662" y="572"/>
      <point x="632" y="593"/>
      <point x="574" y="593" type="curve" smooth="yes"/>
      <point x="503" y="593"/>
      <point x="430" y="551"/>
      <point x="364" y="473" type="curve" smooth="yes"/>
      <point x="308" y="405"/>
      <point x="271" y="321"/>
      <point x="271" y="257" type="curve" smooth="yes"/>
      <point x="271" y="188"/>
      <point x="315" y="144"/>
      <point x="384" y="144" type="curve" smooth="yes"/>
      <point x="431" y="144"/>
      <point x="465" y="158"/>
      <point x="513" y="196" type="curve"/>
      <point x="522" y="155"/>
      <point x="544" y="139"/>
      <point x="592" y="139" type="curve" smooth="yes"/>
      <point x="649" y="139"/>
      <point x="713" y="173"/>
      <point x="773" y="236" type="curve" smooth="yes"/>
      <point x="844" y="310"/>
      <point x="883" y="400"/>
      <point x="883" y="489" type="curve" smooth="yes"/>
      <point x="883" y="641"/>
      <point x="762" y="752"/>
      <point x="598" y="752" type="curve" smooth="yes"/>
      <point x="352" y="752"/>
      <point x="133" y="538"/>
      <point x="133" y="298" type="curve" smooth="yes"/>
      <point x="133" y="118"/>
      <point x="264" y="-13"/>
      <point x="443" y="-13" type="curve" smooth="yes"/>
      <point x="560" y="-13"/>
      <point x="660" y="26"/>
      <point x="747" y="105" type="curve"/>
      <point x="713" y="138" type="line"/>
      <point x="636" y="72"/>
      <point x="553" y="39"/>
      <point x="461" y="39" type="curve" smooth="yes"/>
      <point x="301" y="39"/>
      <point x="186" y="151"/>
      <point x="186" y="307" type="curve" smooth="yes"/>
      <point x="186" y="510"/>
      <point x="378" y="700"/>
      <point x="582" y="700" type="curve" smooth="yes"/>
      <point x="728" y="700"/>
      <point x="830" y="610"/>
      <point x="830" y="482" type="curve" smooth="yes"/>
      <point x="830" y="419"/>
      <point x="804" y="348"/>
      <point x="762" y="294" type="curve" smooth="yes"/>
      <point x="716" y="235"/>
      <point x="652" y="191"/>
      <point x="615" y="191" type="curve" smooth="yes"/>
      <point x="598" y="191"/>
      <point x="584" y="200"/>
      <point x="584" y="211" type="curve" smooth="yes"/>
      <point x="584" y="226"/>
      <point x="585" y="227"/>
      <point x="618" y="296" type="curve" smooth="yes"/>
    </contour>
    <contour>
      <point x="567" y="541" type="curve" smooth="yes"/>
      <point x="606" y="539"/>
      <point x="628" y="517"/>
      <point x="628" y="482" type="curve" smooth="yes"/>
      <point x="628" y="446"/>
      <point x="603" y="387"/>
      <point x="562" y="324" type="curve" smooth="yes"/>
      <point x="505" y="237"/>
      <point x="460" y="202"/>
      <point x="407" y="202" type="curve" smooth="yes"/>
      <point x="368" y="202"/>
      <point x="343" y="229"/>
      <point x="343" y="271" type="curve" smooth="yes"/>
      <point x="343" y="312"/>
      <point x="367" y="376"/>
      <point x="403" y="428" type="curve" smooth="yes"/>
      <point x="451" y="498"/>
      <point x="517" y="544"/>
    </contour>
  </outline>
</glyph>
<glyph name="A" format="1">
  <advance width="740"/>
  <unicode hex="0041"/>
  <outline>
    <contour>
      <point x="11" y="0" type="line"/>
      <point x="89" y="0" type="line"/>
      <point x="243" y="249" type="line"/>
      <point x="587" y="249" type="line"/>
      <point x="648" y="0" type="line"/>
      <point x="729" y="0" type="line"/>
      <point x="548" y="739" type="line"/>
      <point x="465" y="739" type="line"/>
    </contour>
    <contour>
      <point x="284" y="316" type="line"/>
      <point x="491" y="655" type="line"/>
      <point x="571" y="316" type="line"/>
    </contour>
  </outline>
</glyph>
<glyph name="H" format="1">
  <advance width="683"/>
  <unicode hex="0048"/>
  <outline>
    <contour>
      <point x="76" y="0" type="line"/>
      <point x="150" y="0" type="line"/>
      <point x="214" y="347" type="line"/>
      <point x="597" y="347" type="line"/>
      <point x="533" y="0" type="line"/>
      <point x="607" y="0" type="line"/>
      <point x="744" y="739" type="line"/>
      <point x="670" y="739" type="line"/>
      <point x="610" y="414" type="line"/>
      <point x="227" y="414" type="line"/>
      <point x="287" y="739" type="line"/>
      <point x="213" y="739" type="line"/>
    </contour>
  </outline>
</glyph>
<glyph name="K" format="1">
  <advance width="591"/>
  <unicode hex="004B"/>
  <outline>
    <contour>
      <point x="76" y="0" type="line"/>
      <point x="150" y="0" type="line"/>
      <point x="187" y="202" type="line"/>
      <point x="305" y="320" type="line"/>
      <point x="492" y="0" type="line"/>
      <point x="585" y="0" type="line"/>
      <point x="363" y="379" type="line"/>
      <point x="722" y="739" type="line"/>
      <point x="629" y="739" type="line"/>
      <point x="208" y="314" type="line"/>
      <point x="287" y="739" type="line"/>
      <point x="213" y="739" type="line"/>
    </contour>
  </outline>
</glyph>
<glyph name="L" format="1">
  <advance width="462"/>
  <unicode hex="004C"/>
  <outline>
    <contour>
      <point x="76" y="0" type="line"/>
      <point x="456" y="0" type="line"/>
      <point x="468" y="67" type="line"/>
      <point x="162" y="67" type="line"/>
      <point x="287" y="739" type="line"/>
      <point x="213" y="739" type="line"/>
    </contour>
  </outline>
</glyph>
<glyph name="M" format="1">
  <advance width="919"/>
  <unicode hex="004D"/>
  <outline>
    <contour>
      <point x="76" y="0" type="line"/>
      <point x="150" y="0" type="line"/>
      <point x="272" y="658" type="line"/>
      <point x="427" y="0" type="line"/>
      <point x="491" y="0" type="line"/>
      <point x="891" y="658" type="line"/>
      <point x="769" y="0" type="line"/>
      <point x="843" y="0" type="line"/>
      <point x="980" y="739" type="line"/>
      <point x="865" y="739" type="line"/>
      <point x="480" y="110" type="line"/>
      <point x="328" y="739" type="line"/>
      <point x="213" y="739" type="line"/>
    </contour>
  </outline>
</glyph>
<glyph name="Q" format="1">
  <advance width="871"/>
  <unicode hex="0051"/>
  <outline>
    <contour>
      <point x="837" y="56" type="line"/>
      <point x="830" y="55"/>
      <point x="825" y="55"/>
      <point x="821" y="55" type="curve" smooth="yes"/>
      <point x="791" y="55"/>
      <point x="763" y="67"/>
      <point x="733" y="93" type="curve"/>
      <point x="844" y="173"/>
      <point x="913" y="310"/>
      <point x="913" y="447" type="curve" smooth="yes"/>
      <point x="913" y="629"/>
      <point x="779" y="752"/>
      <point x="581" y="752" type="curve" smooth="yes"/>
      <point x="450" y="752"/>
      <point x="331" y="701"/>
      <point x="235" y="604" type="curve" smooth="yes"/>
      <point x="153" y="520"/>
      <point x="105" y="407"/>
      <point x="105" y="299" type="curve" smooth="yes"/>
      <point x="105" y="120"/>
      <point x="248" y="-13"/>
      <point x="441" y="-13" type="curve" smooth="yes"/>
      <point x="523" y="-13"/>
      <point x="610" y="11"/>
      <point x="674" y="51" type="curve"/>
      <point x="720" y="2"/>
      <point x="752" y="-12"/>
      <point x="824" y="-13" type="curve"/>
    </contour>
    <contour>
      <point x="201" y="216" type="curve"/>
      <point x="240" y="231"/>
      <point x="275" y="237"/>
      <point x="324" y="237" type="curve" smooth="yes"/>
      <point x="448" y="237"/>
      <point x="535" y="197"/>
      <point x="623" y="100" type="curve"/>
      <point x="562" y="67"/>
      <point x="515" y="55"/>
      <point x="451" y="55" type="curve" smooth="yes"/>
      <point x="379" y="55"/>
      <point x="316" y="77"/>
      <point x="269" y="120" type="curve" smooth="yes"/>
      <point x="231" y="154"/>
      <point x="209" y="185"/>
    </contour>
    <contour>
      <point x="182" y="285" type="line"/>
      <point x="182" y="333"/>
      <point x="182" y="333"/>
      <point x="184" y="343" type="curve" smooth="yes"/>
      <point x="198" y="404"/>
      <point x="217" y="457"/>
      <point x="242" y="499" type="curve" smooth="yes"/>
      <point x="304" y="608"/>
      <point x="440" y="684"/>
      <point x="570" y="684" type="curve" smooth="yes"/>
      <point x="729" y="684"/>
      <point x="836" y="581"/>
      <point x="836" y="427" type="curve" smooth="yes"/>
      <point x="836" y="365"/>
      <point x="816" y="299"/>
      <point x="782" y="245" type="curve" smooth="yes"/>
      <point x="761" y="212"/>
      <point x="733" y="181"/>
      <point x="689" y="142" type="curve"/>
      <point x="647" y="184"/>
      <point x="631" y="199"/>
      <point x="608" y="217" type="curve" smooth="yes"/>
      <point x="533" y="277"/>
      <point x="450" y="305"/>
      <point x="350" y="305" type="curve" smooth="yes"/>
      <point x="292" y="305"/>
      <point x="245" y="298"/>
      <point x="181" y="279" type="curve"/>
    </contour>
  </outline>
</glyph>
<glyph name="T" format="1">
  <advance width="426"/>
  <unicode hex="0054"/>
  <outline>
    <contour>
      <point x="176" y="0" type="line"/>
      <point x="250" y="0" type="line"/>
      <point x="375" y="672" type="line"/>
      <point x="544" y="672" type="line"/>
      <point x="556" y="739" type="line"/>
      <point x="144" y="739" type="line"/>
      <point x="132" y="672" type="line"/>
      <point x="301" y="672" type="line"/>
    </contour>
  </outline>
</glyph>
<glyph name="V" format="1">
  <advance width="702"/>
  <unicode hex="0056"/>
  <outline>
    <contour>
      <point x="314" y="0" type="line"/>
      <point x="386" y="0" type="line"/>
      <point x="829" y="739" type="line"/>
      <point x="749" y="739" type="line"/>
      <point x="368" y="92" type="line"/>
      <point x="228" y="739" type="line"/>
      <point x="147" y="739" type="line"/>
    </contour>
  </outline>
</glyph>
<glyph name="W" format="1">
  <advance width="960"/>
  <unicode hex="0057"/>
  <outline>
    <contour>
      <point x="221" y="0" type="line"/>
      <point x="317" y="0" type="line"/>
      <point x="591" y="606" type="line"/>
      <point x="643" y="0" type="line"/>
      <point x="738" y="0" type="line"/>
      <point x="1087" y="739" type="line"/>
      <point x="1011" y="739" type="line"/>
      <point x="710" y="96" type="line"/>
      <point x="652" y="739" type="line"/>
      <point x="582" y="739" type="line"/>
      <point x="286" y="96" type="line"/>
      <point x="223" y="739" type="line"/>
      <point x="147" y="739" type="line"/>
    </contour>
  </outline>
</glyph>
<glyph name="Y" format="1">
  <advance width="592"/>
  <unicode hex="0059"/>
  <outline>
    <contour>
      <point x="258" y="0" type="line"/>
      <point x="332" y="0" type="line"/>
      <point x="378" y="247" type="line"/>
      <point x="727" y="739" type="line"/>
      <point x="646" y="739" type="line"/>
      <point x="354" y="325" type="line"/>
      <point x="221" y="739" type="line"/>
      <point x="139" y="739" type="line"/>
      <point x="304" y="247" type="line"/>
    </contour>
  </outline>
</glyph>
<glyph name="Z" format="1">
  <advance width="480"/>
  <unicode hex="005A"/>
  <outline>
    <contour>
      <point x="17" y="0" type="line"/>
      <point x="474" y="0" type="line"/>
      <point x="486" y="67" type="line"/>
      <point x="113" y="67" type="line"/>
      <point x="588" y="672" type="line"/>
      <point x="600" y="739" type="line"/>
      <point x="165" y="739" type="line"/>
      <point x="153" y="672" type="line"/>
      <point x="505" y="672" type="line"/>
      <point x="29" y="67" type="line"/>
    </contour>
  </outline>
</glyph>
<glyph name="bracketleft" format="1">
  <advance width="351"/>
  <unicode hex="005B"/>
  <outline>
    <contour>
      <point x="304" y="-50" type="line"/>
      <point x="275" y="-37"/>
      <point x="261" y="-28"/>
      <point x="246" y="-14" type="curve" smooth="yes"/>
      <point x="221" y="11"/>
      <point x="204" y="53"/>
      <point x="204" y="89" type="curve" smooth="yes"/>
      <point x="204" y="111"/>
      <point x="207" y="141"/>
      <point x="214" y="177" type="curve" smooth="yes"/>
      <point x="264" y="448" type="line" smooth="yes"/>
      <point x="288" y="567"/>
      <point x="334" y="625"/>
      <point x="436" y="664" type="curve"/>
      <point x="450" y="739" type="line"/>
      <point x="316" y="705"/>
      <point x="218" y="597"/>
      <point x="197" y="462" type="curve" smooth="yes"/>
      <point x="142" y="164" type="line" smooth="yes"/>
      <point x="134" y="122"/>
      <point x="132" y="105"/>
      <point x="132" y="86" type="curve" smooth="yes"/>
      <point x="132" y="14"/>
      <point x="152" y="-34"/>
      <point x="200" y="-77" type="curve" smooth="yes"/>
      <point x="228" y="-101"/>
      <point x="251" y="-113"/>
      <point x="290" y="-125" type="curve"/>
    </contour>
  </outline>
</glyph>
<glyph name="bracketright" format="1">
  <advance width="351"/>
  <unicode hex="005D"/>
  <outline>
    <contour>
      <point x="160" y="664" type="line"/>
      <point x="188" y="652"/>
      <point x="203" y="643"/>
      <point x="218" y="628" type="curve" smooth="yes"/>
      <point x="243" y="603"/>
      <point x="260" y="561"/>
      <point x="260" y="526" type="curve" smooth="yes"/>
      <point x="260" y="504"/>
      <point x="257" y="474"/>
      <point x="250" y="438" type="curve" smooth="yes"/>
      <point x="200" y="166" type="line" smooth="yes"/>
      <point x="180" y="52"/>
      <point x="128" y="-14"/>
      <point x="28" y="-50" type="curve"/>
      <point x="14" y="-125" type="line"/>
      <point x="151" y="-88"/>
      <point x="242" y="12"/>
      <point x="268" y="153" type="curve" smooth="yes"/>
      <point x="323" y="450" type="line" smooth="yes"/>
      <point x="329" y="482"/>
      <point x="332" y="513"/>
      <point x="332" y="541" type="curve" smooth="yes"/>
      <point x="332" y="634"/>
      <point x="271" y="710"/>
      <point x="174" y="739" type="curve"/>
    </contour>
  </outline>
</glyph>
<glyph name="asciicircum" format="1">
  <advance width="606"/>
  <unicode hex="005E"/>
  <outline>
    <contour>
      <point x="621" y="180" type="line"/>
      <point x="482" y="739" type="line"/>
      <point x="398" y="739" type="line"/>
      <point x="51" y="180" type="line"/>
      <point x="134" y="180" type="line"/>
      <point x="426" y="657" type="line"/>
      <point x="540" y="180" type="line"/>
    </contour>
  </outline>
</glyph>
<glyph name="underscore" format="1">
  <advance width="500"/>
  <unicode hex="005F"/>
  <outline>
    <contour>
      <point x="-12" y="-67" type="line"/>
      <point x="-23" y="-125" type="line"/>
      <point x="477" y="-125" type="line"/>
      <point x="488" y="-67" type="line"/>
    </contour>
  </outline>
</glyph>
<glyph name="grave" format="1">
  <advance width="378"/>
  <unicode hex="0060"/>
  <outline>
    <contour>
      <point x="247" y="778" type="line"/>
      <point x="207" y="726" type="line"/>
      <point x="389" y="610" type="line"/>
      <point x="428" y="661" type="line"/>
    </contour>
  </outline>
</glyph>
<glyph name="b" format="1">
  <advance width="682"/>
  <unicode hex="0062"/>
  <outline>
    <contour>
      <point x="63" y="0" type="line"/>
      <point x="137" y="0" type="line"/>
      <point x="154" y="94" type="line"/>
      <point x="189" y="26"/>
      <point x="259" y="-13"/>
      <point x="348" y="-13" type="curve" smooth="yes"/>
      <point x="535" y="-13"/>
      <point x="696" y="145"/>
      <point x="696" y="330" type="curve" smooth="yes"/>
      <point x="696" y="464"/>
      <point x="595" y="560"/>
      <point x="455" y="560" type="curve" smooth="yes"/>
      <point x="364" y="560"/>
      <point x="278" y="521"/>
      <point x="221" y="453" type="curve"/>
      <point x="274" y="739" type="line"/>
      <point x="200" y="739" type="line"/>
    </contour>
    <contour>
      <point x="441" y="492" type="curve" smooth="yes"/>
      <point x="548" y="492"/>
      <point x="619" y="422"/>
      <point x="619" y="318" type="curve" smooth="yes"/>
      <point x="619" y="178"/>
      <point x="497" y="55"/>
      <point x="359" y="55" type="curve" smooth="yes"/>
      <point x="297" y="55"/>
      <point x="252" y="76"/>
      <point x="217" y="120" type="curve" smooth="yes"/>
      <point x="190" y="155"/>
      <point x="178" y="191"/>
      <point x="178" y="237" type="curve" smooth="yes"/>
      <point x="178" y="305"/>
      <point x="220" y="386"/>
      <point x="279" y="434" type="curve" smooth="yes"/>
      <point x="326" y="471"/>
      <point x="383" y="492"/>
    </contour>
  </outline>
</glyph>
<glyph name="c" format="1">
  <advance width="647"/>
  <unicode hex="0063"/>
  <outline>
    <contour>
      <point x="556" y="161" type="line"/>
      <point x="519" y="124"/>
      <point x="503" y="109"/>
      <point x="485" y="97" type="curve" smooth="yes"/>
      <point x="445" y="70"/>
      <point x="397" y="55"/>
      <point x="348" y="55" type="curve" smooth="yes"/>
      <point x="241" y="55"/>
      <point x="165" y="129"/>
      <point x="165" y="233" type="curve" smooth="yes"/>
      <point x="165" y="370"/>
      <point x="288" y="492"/>
      <point x="426" y="492" type="curve" smooth="yes"/>
      <point x="507" y="492"/>
      <point x="569" y="451"/>
      <point x="596" y="381" type="curve"/>
      <point x="679" y="381" type="line"/>
      <point x="655" y="492"/>
      <point x="563" y="560"/>
      <point x="438" y="560" type="curve" smooth="yes"/>
      <point x="254" y="560"/>
      <point x="88" y="400"/>
      <point x="88" y="222" type="curve" smooth="yes"/>
      <point x="88" y="162"/>
      <point x="110" y="101"/>
      <point x="146" y="62" type="curve" smooth="yes"/>
      <point x="188" y="16"/>
      <point x="264" y="-13"/>
      <point x="339" y="-13" type="curve" smooth="yes"/>
      <point x="405" y="-13"/>
      <point x="474" y="9"/>
      <point x="533" y="49" type="curve" smooth="yes"/>
      <point x="571" y="76"/>
      <point x="595" y="101"/>
      <point x="639" y="161" type="curve"/>
    </contour>
  </outline>
</glyph>
<glyph name="f" format="1">
  <advance width="314"/>
  <unicode hex="0066"/>
  <outline>
    <contour>
      <point x="101" y="0" type="line"/>
      <point x="175" y="0" type="line"/>
      <point x="264" y="480" type="line"/>
      <point x="399" y="480" type="line"/>
      <point x="411" y="547" type="line"/>
      <point x="276" y="547" type="line"/>
      <point x="292" y="635"/>
      <point x="335" y="672"/>
      <point x="420" y="672" type="curve" smooth="yes"/>
      <point x="424" y="672" type="line"/>
      <point x="435" y="672" type="line"/>
      <point x="447" y="739" type="line"/>
      <point x="436" y="739" type="line"/>
      <point x="430" y="739" type="line" smooth="yes"/>
      <point x="375" y="739"/>
      <point x="320" y="721"/>
      <point x="279" y="689" type="curve" smooth="yes"/>
      <point x="237" y="656"/>
      <point x="217" y="620"/>
      <point x="202" y="547" type="curve"/>
      <point x="117" y="547" type="line"/>
      <point x="105" y="480" type="line"/>
      <point x="190" y="480" type="line"/>
    </contour>
  </outline>
</glyph>
<glyph name="l" format="1">
  <advance width="200"/>
  <unicode hex="006C"/>
  <outline>
    <contour>
      <point x="63" y="0" type="line"/>
      <point x="137" y="0" type="line"/>
      <point x="274" y="739" type="line"/>
      <point x="200" y="739" type="line"/>
    </contour>
  </outline>
</glyph>
<glyph name="m" format="1">
  <advance width="938"/>
  <unicode hex="006D"/>
  <outline>
    <contour>
      <point x="63" y="0" type="line"/>
      <point x="137" y="0" type="line"/>
      <point x="196" y="319" type="line" smooth="yes"/>
      <point x="216" y="426"/>
      <point x="284" y="492"/>
      <point x="375" y="492" type="curve" smooth="yes"/>
      <point x="413" y="492"/>
      <point x="451" y="476"/>
      <point x="473" y="451" type="curve" smooth="yes"/>
      <point x="489" y="432"/>
      <point x="496" y="408"/>
      <point x="496" y="372" type="curve" smooth="yes"/>
      <point x="496" y="356"/>
      <point x="495" y="345"/>
      <point x="490" y="319" type="curve" smooth="yes"/>
      <point x="431" y="0" type="line"/>
      <point x="505" y="0" type="line"/>
      <point x="564" y="317" type="line" smooth="yes"/>
      <point x="574" y="372"/>
      <point x="586" y="402"/>
      <point x="610" y="429" type="curve" smooth="yes"/>
      <point x="643" y="468"/>
      <point x="695" y="492"/>
      <point x="746" y="492" type="curve" smooth="yes"/>
      <point x="819" y="492"/>
      <point x="864" y="449"/>
      <point x="864" y="379" type="curve" smooth="yes"/>
      <point x="864" y="363"/>
      <point x="861" y="335"/>
      <point x="858" y="317" type="curve" smooth="yes"/>
      <point x="799" y="0" type="line"/>
      <point x="873" y="0" type="line"/>
      <point x="933" y="325" type="line" smooth="yes"/>
      <point x="938" y="354"/>
      <point x="941" y="380"/>
      <point x="941" y="402" type="curve" smooth="yes"/>
      <point x="941" y="497"/>
      <point x="869" y="560"/>
      <point x="761" y="560" type="curve" smooth="yes"/>
      <point x="676" y="560"/>
      <point x="617" y="530"/>
      <point x="552" y="455" type="curve"/>
      <point x="532" y="523"/>
      <point x="476" y="560"/>
      <point x="393" y="560" type="curve" smooth="yes"/>
      <point x="354" y="560"/>
      <point x="317" y="551"/>
      <point x="286" y="533" type="curve" smooth="yes"/>
      <point x="266" y="522"/>
      <point x="261" y="518"/>
      <point x="227" y="484" type="curve"/>
      <point x="238" y="547" type="line"/>
      <point x="164" y="547" type="line"/>
    </contour>
  </outline>
</glyph>
<glyph name="q" format="1">
  <advance width="682"/>
  <unicode hex="0071"/>
  <outline>
    <contour>
      <point x="720" y="547" type="line"/>
      <point x="646" y="547" type="line"/>
      <point x="629" y="453" type="line"/>
      <point x="595" y="523"/>
      <point x="527" y="560"/>
      <point x="432" y="560" type="curve" smooth="yes"/>
      <point x="248" y="560"/>
      <point x="87" y="400"/>
      <point x="87" y="217" type="curve" smooth="yes"/>
      <point x="87" y="83"/>
      <point x="187" y="-13"/>
      <point x="325" y="-13" type="curve" smooth="yes"/>
      <point x="419" y="-13"/>
      <point x="503" y="25"/>
      <point x="562" y="94" type="curve"/>
      <point x="509" y="-192" type="line"/>
      <point x="583" y="-192" type="line"/>
    </contour>
    <contour>
      <point x="423" y="492" type="curve" smooth="yes"/>
      <point x="528" y="492"/>
      <point x="605" y="418"/>
      <point x="605" y="318" type="curve" smooth="yes"/>
      <point x="605" y="264"/>
      <point x="582" y="199"/>
      <point x="546" y="155" type="curve" smooth="yes"/>
      <point x="496" y="92"/>
      <point x="419" y="55"/>
      <point x="340" y="55" type="curve" smooth="yes"/>
      <point x="238" y="55"/>
      <point x="164" y="128"/>
      <point x="164" y="229" type="curve" smooth="yes"/>
      <point x="164" y="369"/>
      <point x="285" y="492"/>
    </contour>
  </outline>
</glyph>
<glyph name="t" format="1">
  <advance width="339"/>
  <unicode hex="0074"/>
  <outline>
    <contour>
      <point x="124" y="0" type="line"/>
      <point x="198" y="0" type="line"/>
      <point x="287" y="480" type="line"/>
      <point x="416" y="480" type="line"/>
      <point x="428" y="547" type="line"/>
      <point x="299" y="547" type="line"/>
      <point x="335" y="739" type="line"/>
      <point x="261" y="739" type="line"/>
      <point x="225" y="547" type="line"/>
      <point x="113" y="547" type="line"/>
      <point x="101" y="480" type="line"/>
      <point x="213" y="480" type="line"/>
    </contour>
  </outline>
</glyph>
<glyph name="v" format="1">
  <advance width="554"/>
  <unicode hex="0076"/>
  <outline>
    <contour>
      <point x="238" y="0" type="line"/>
      <point x="316" y="0" type="line"/>
      <point x="647" y="547" type="line"/>
      <point x="572" y="547" type="line"/>
      <point x="291" y="87" type="line"/>
      <point x="184" y="547" type="line"/>
      <point x="109" y="547" type="line"/>
    </contour>
  </outline>
</glyph>
<glyph name="w" format="1">
  <advance width="831"/>
  <unicode hex="0077"/>
  <outline>
    <contour>
      <point x="216" y="0" type="line"/>
      <point x="296" y="0" type="line"/>
      <point x="481" y="363" type="line"/>
      <point x="533" y="0" type="line"/>
      <point x="612" y="0" type="line"/>
      <point x="925" y="547" type="line"/>
      <point x="853" y="547" type="line"/>
      <point x="590" y="89" type="line"/>
      <point x="534" y="480" type="line"/>
      <point x="473" y="480" type="line"/>
      <point x="271" y="89" type="line"/>
      <point x="182" y="547" type="line"/>
      <point x="108" y="547" type="line"/>
    </contour>
  </outline>
</glyph>
<glyph name="braceleft" format="1">
  <advance width="351"/>
  <unicode hex="007B"/>
  <outline>
    <contour>
      <point x="307" y="601" type="line" smooth="yes"/>
      <point x="321" y="660"/>
      <point x="329" y="667"/>
      <point x="395" y="672" type="curve"/>
      <point x="408" y="739" type="line"/>
      <point x="328" y="737"/>
      <point x="320" y="735"/>
      <point x="284" y="709" type="curve"/>
      <point x="254" y="684"/>
      <point x="249" y="674"/>
      <point x="230" y="601" type="curve"/>
      <point x="198" y="431" type="line" smooth="yes"/>
      <point x="188" y="369"/>
      <point x="169" y="351"/>
      <point x="107" y="341" type="curve"/>
      <point x="94" y="272" type="line"/>
      <point x="146" y="262"/>
      <point x="156" y="253"/>
      <point x="156" y="215" type="curve" smooth="yes"/>
      <point x="156" y="212" type="line"/>
      <point x="153" y="183" type="line"/>
      <point x="121" y="13" type="line" smooth="yes"/>
      <point x="119" y="2"/>
      <point x="117" y="-24"/>
      <point x="117" y="-41" type="curve" smooth="yes"/>
      <point x="117" y="-75"/>
      <point x="129" y="-97"/>
      <point x="154" y="-112" type="curve" smooth="yes"/>
      <point x="171" y="-122"/>
      <point x="187" y="-124"/>
      <point x="247" y="-126" type="curve"/>
      <point x="260" y="-59" type="line"/>
      <point x="250" y="-58" type="line" smooth="yes"/>
      <point x="206" y="-54"/>
      <point x="195" y="-46"/>
      <point x="195" y="-18" type="curve" smooth="yes"/>
      <point x="195" y="-8"/>
      <point x="196" y="3"/>
      <point x="198" y="13" type="curve" smooth="yes"/>
      <point x="230" y="183" type="line"/>
      <point x="233" y="217" type="line"/>
      <point x="233" y="221" type="line" smooth="yes"/>
      <point x="233" y="269"/>
      <point x="217" y="288"/>
      <point x="163" y="306" type="curve"/>
      <point x="238" y="330"/>
      <point x="259" y="354"/>
      <point x="275" y="431" type="curve" smooth="yes"/>
    </contour>
  </outline>
</glyph>
<glyph name="braceright" format="1">
  <advance width="351"/>
  <unicode hex="007D"/>
  <outline>
    <contour>
      <point x="115" y="13" type="line"/>
      <point x="98" y="-49"/>
      <point x="92" y="-54"/>
      <point x="26" y="-59" type="curve"/>
      <point x="14" y="-126" type="line"/>
      <point x="129" y="-127"/>
      <point x="170" y="-95"/>
      <point x="191" y="13" type="curve" smooth="yes"/>
      <point x="222" y="183" type="line"/>
      <point x="240" y="253"/>
      <point x="248" y="260"/>
      <point x="313" y="272" type="curve"/>
      <point x="326" y="341" type="line"/>
      <point x="305" y="345"/>
      <point x="295" y="348"/>
      <point x="286" y="352" type="curve"/>
      <point x="273" y="359"/>
      <point x="264" y="375"/>
      <point x="264" y="390" type="curve" smooth="yes"/>
      <point x="264" y="392"/>
      <point x="265" y="405"/>
      <point x="268" y="431" type="curve"/>
      <point x="300" y="601" type="line" smooth="yes"/>
      <point x="304" y="620"/>
      <point x="305" y="634"/>
      <point x="305" y="648" type="curve" smooth="yes"/>
      <point x="305" y="687"/>
      <point x="295" y="708"/>
      <point x="267" y="725" type="curve" smooth="yes"/>
      <point x="250" y="735"/>
      <point x="236" y="737"/>
      <point x="174" y="739" type="curve"/>
      <point x="162" y="672" type="line"/>
      <point x="173" y="671" type="line" smooth="yes"/>
      <point x="216" y="667"/>
      <point x="225" y="660"/>
      <point x="225" y="632" type="curve" smooth="yes"/>
      <point x="225" y="614"/>
      <point x="225" y="605"/>
      <point x="224" y="601" type="curve"/>
      <point x="192" y="431" type="line" smooth="yes"/>
      <point x="189" y="417"/>
      <point x="187" y="395"/>
      <point x="187" y="385" type="curve" smooth="yes"/>
      <point x="187" y="363"/>
      <point x="196" y="343"/>
      <point x="211" y="330" type="curve" smooth="yes"/>
      <point x="220" y="322"/>
      <point x="221" y="322"/>
      <point x="257" y="306" type="curve"/>
      <point x="187" y="285"/>
      <point x="157" y="252"/>
      <point x="146" y="183" type="curve" smooth="yes"/>
    </contour>
  </outline>
</glyph>
<glyph name="asciitilde" format="1">
  <advance width="606"/>
  <unicode hex="007E"/>
  <outline>
    <contour>
      <point x="584" y="390" type="line"/>
      <point x="539" y="333"/>
      <point x="506" y="309"/>
      <point x="473" y="309" type="curve" smooth="yes"/>
      <point x="454" y="309"/>
      <point x="432" y="315"/>
      <point x="398" y="331" type="curve" smooth="yes"/>
      <point x="338" y="358" type="line" smooth="yes"/>
      <point x="311" y="371"/>
      <point x="286" y="377"/>
      <point x="265" y="377" type="curve" smooth="yes"/>
      <point x="209" y="377"/>
      <point x="163" y="344"/>
      <point x="99" y="257" type="curve"/>
      <point x="132" y="210" type="line"/>
      <point x="190" y="284"/>
      <point x="210" y="299"/>
      <point x="251" y="299" type="curve" smooth="yes"/>
      <point x="269" y="299"/>
      <point x="287" y="294"/>
      <point x="320" y="279" type="curve" smooth="yes"/>
      <point x="370" y="257" type="line" smooth="yes"/>
      <point x="410" y="238"/>
      <point x="435" y="231"/>
      <point x="457" y="231" type="curve" smooth="yes"/>
      <point x="509" y="231"/>
      <point x="572" y="275"/>
      <point x="619" y="343" type="curve"/>
    </contour>
  </outline>
</glyph>
<glyph name="cent" format="1">
  <advance width="554"/>
  <unicode hex="00A2"/>
  <outline>
    <contour>
      <point x="271" y="62" type="line"/>
      <point x="338" y="62" type="line"/>
      <point x="354" y="151" type="line"/>
      <point x="438" y="163"/>
      <point x="519" y="218"/>
      <point x="557" y="290" type="curve"/>
      <point x="477" y="290" type="line"/>
      <point x="432" y="243"/>
      <point x="377" y="217"/>
      <point x="324" y="217" type="curve" smooth="yes"/>
      <point x="244" y="217"/>
      <point x="190" y="272"/>
      <point x="190" y="353" type="curve" smooth="yes"/>
      <point x="190" y="456"/>
      <point x="281" y="547"/>
      <point x="384" y="547" type="curve" smooth="yes"/>
      <point x="418" y="547"/>
      <point x="452" y="536"/>
      <point x="477" y="517" type="curve"/>
      <point x="490" y="506"/>
      <point x="495" y="500"/>
      <point x="507" y="475" type="curve" smooth="yes"/>
      <point x="508" y="473"/>
      <point x="510" y="468"/>
      <point x="513" y="463" type="curve"/>
      <point x="595" y="463" type="line"/>
      <point x="581" y="546"/>
      <point x="525" y="600"/>
      <point x="440" y="614" type="curve"/>
      <point x="457" y="707" type="line"/>
      <point x="390" y="707" type="line"/>
      <point x="373" y="614" type="line"/>
      <point x="302" y="605"/>
      <point x="254" y="584"/>
      <point x="207" y="541" type="curve" smooth="yes"/>
      <point x="149" y="488"/>
      <point x="113" y="410"/>
      <point x="113" y="338" type="curve" smooth="yes"/>
      <point x="113" y="236"/>
      <point x="184" y="160"/>
      <point x="287" y="151" type="curve"/>
    </contour>
  </outline>
</glyph>
<glyph name="sterling" format="1">
  <advance width="554"/>
  <unicode hex="00A3"/>
  <outline>
    <contour>
      <point x="58" y="0" type="line"/>
      <point x="343" y="0" type="line" smooth="yes"/>
      <point x="454" y="0"/>
      <point x="526" y="31"/>
      <point x="581" y="102" type="curve" smooth="yes"/>
      <point x="621" y="154"/>
      <point x="633" y="193"/>
      <point x="633" y="268" type="curve"/>
      <point x="561" y="268" type="line"/>
      <point x="561" y="215"/>
      <point x="552" y="185"/>
      <point x="526" y="144" type="curve" smooth="yes"/>
      <point x="490" y="90"/>
      <point x="439" y="67"/>
      <point x="352" y="67" type="curve" smooth="yes"/>
      <point x="295" y="67" type="line"/>
      <point x="335" y="127"/>
      <point x="351" y="169"/>
      <point x="351" y="219" type="curve" smooth="yes"/>
      <point x="351" y="267"/>
      <point x="338" y="301"/>
      <point x="304" y="347" type="curve"/>
      <point x="520" y="347" type="line"/>
      <point x="533" y="414" type="line"/>
      <point x="250" y="414" type="line"/>
      <point x="239" y="442"/>
      <point x="235" y="457"/>
      <point x="235" y="476" type="curve" smooth="yes"/>
      <point x="235" y="590"/>
      <point x="324" y="684"/>
      <point x="432" y="684" type="curve" smooth="yes"/>
      <point x="523" y="684"/>
      <point x="584" y="627"/>
      <point x="583" y="541" type="curve"/>
      <point x="653" y="541" type="line"/>
      <point x="654" y="553"/>
      <point x="655" y="562"/>
      <point x="655" y="569" type="curve" smooth="yes"/>
      <point x="655" y="612"/>
      <point x="630" y="668"/>
      <point x="596" y="700" type="curve" smooth="yes"/>
      <point x="560" y="733"/>
      <point x="505" y="752"/>
      <point x="444" y="752" type="curve" smooth="yes"/>
      <point x="338" y="752"/>
      <point x="245" y="697"/>
      <point x="193" y="602" type="curve" smooth="yes"/>
      <point x="171" y="562"/>
      <point x="158" y="517"/>
      <point x="158" y="481" type="curve" smooth="yes"/>
      <point x="158" y="459"/>
      <point x="161" y="444"/>
      <point x="170" y="414" type="curve"/>
      <point x="94" y="414" type="line"/>
      <point x="81" y="347" type="line"/>
      <point x="205" y="347" type="line"/>
      <point x="255" y="295"/>
      <point x="274" y="261"/>
      <point x="274" y="220" type="curve" smooth="yes"/>
      <point x="274" y="163"/>
      <point x="248" y="104"/>
      <point x="208" y="67" type="curve"/>
      <point x="70" y="67" type="line"/>
    </contour>
  </outline>
</glyph>
<glyph name="currency" format="1">
  <advance width="554"/>
  <unicode hex="00A4"/>
  <outline>
    <contour>
      <point x="122" y="495" type="line"/>
      <point x="157" y="452" type="line"/>
      <point x="102" y="387"/>
      <point x="79" y="327"/>
      <point x="79" y="250" type="curve" smooth="yes"/>
      <point x="79" y="209"/>
      <point x="85" y="182"/>
      <point x="102" y="153" type="curve"/>
      <point x="51" y="111" type="line"/>
      <point x="95" y="58" type="line"/>
      <point x="146" y="100" type="line"/>
      <point x="193" y="63"/>
      <point x="229" y="50"/>
      <point x="285" y="50" type="curve" smooth="yes"/>
      <point x="342" y="50"/>
      <point x="383" y="63"/>
      <point x="448" y="100" type="curve"/>
      <point x="481" y="58" type="line"/>
      <point x="545" y="111" type="line"/>
      <point x="511" y="153" type="line"/>
      <point x="559" y="200"/>
      <point x="590" y="278"/>
      <point x="590" y="352" type="curve" smooth="yes"/>
      <point x="590" y="387"/>
      <point x="584" y="411"/>
      <point x="566" y="452" type="curve"/>
      <point x="615" y="495" type="line"/>
      <point x="572" y="549" type="line"/>
      <point x="521" y="507" type="line"/>
      <point x="485" y="538"/>
      <point x="437" y="554"/>
      <point x="379" y="554" type="curve" smooth="yes"/>
      <point x="326" y="554"/>
      <point x="293" y="544"/>
      <point x="221" y="507" type="curve"/>
      <point x="186" y="549" type="line"/>
    </contour>
    <contour>
      <point x="371" y="481" type="curve" smooth="yes"/>
      <point x="418" y="481"/>
      <point x="459" y="464"/>
      <point x="488" y="432" type="curve" smooth="yes"/>
      <point x="510" y="407"/>
      <point x="518" y="382"/>
      <point x="518" y="340" type="curve" smooth="yes"/>
      <point x="518" y="287"/>
      <point x="505" y="250"/>
      <point x="472" y="207" type="curve" smooth="yes"/>
      <point x="431" y="155"/>
      <point x="366" y="123"/>
      <point x="302" y="123" type="curve" smooth="yes"/>
      <point x="210" y="123"/>
      <point x="151" y="181"/>
      <point x="151" y="270" type="curve" smooth="yes"/>
      <point x="151" y="315"/>
      <point x="165" y="353"/>
      <point x="196" y="395" type="curve" smooth="yes"/>
      <point x="238" y="450"/>
      <point x="300" y="481"/>
    </contour>
  </outline>
</glyph>
<glyph name="yen" format="1">
  <advance width="554"/>
  <unicode hex="00A5"/>
  <outline>
    <contour>
      <point x="261" y="0" type="line"/>
      <point x="335" y="0" type="line"/>
      <point x="379" y="237" type="line"/>
      <point x="584" y="237" type="line"/>
      <point x="596" y="304" type="line"/>
      <point x="416" y="304" type="line"/>
      <point x="482" y="396" type="line"/>
      <point x="620" y="396" type="line"/>
      <point x="633" y="463" type="line"/>
      <point x="531" y="463" type="line"/>
      <point x="726" y="739" type="line"/>
      <point x="650" y="739" type="line"/>
      <point x="360" y="327" type="line"/>
      <point x="215" y="739" type="line"/>
      <point x="139" y="739" type="line"/>
      <point x="236" y="463" type="line"/>
      <point x="132" y="463" type="line"/>
      <point x="119" y="396" type="line"/>
      <point x="259" y="396" type="line"/>
      <point x="291" y="304" type="line"/>
      <point x="109" y="304" type="line"/>
      <point x="97" y="237" type="line"/>
      <point x="305" y="237" type="line"/>
    </contour>
  </outline>
</glyph>
<glyph name="brokenbar" format="1">
  <advance width="672"/>
  <unicode hex="00A6"/>
  <outline>
    <contour>
      <point x="505" y="739" type="line"/>
      <point x="441" y="739" type="line"/>
      <point x="386" y="444" type="line"/>
      <point x="450" y="444" type="line"/>
    </contour>
    <contour>
      <point x="423" y="295" type="line"/>
      <point x="359" y="295" type="line"/>
      <point x="304" y="0" type="line"/>
      <point x="368" y="0" type="line"/>
    </contour>
  </outline>
</glyph>
<glyph name="section" format="1">
  <advance width="615"/>
  <unicode hex="00A7"/>
  <outline>
    <contour>
      <point x="594" y="606" type="line"/>
      <point x="595" y="617"/>
      <point x="596" y="625"/>
      <point x="596" y="631" type="curve" smooth="yes"/>
      <point x="596" y="698"/>
      <point x="529" y="752"/>
      <point x="446" y="752" type="curve" smooth="yes"/>
      <point x="336" y="752"/>
      <point x="240" y="663"/>
      <point x="240" y="561" type="curve" smooth="yes"/>
      <point x="240" y="530"/>
      <point x="247" y="511"/>
      <point x="264" y="491" type="curve"/>
      <point x="191" y="450"/>
      <point x="146" y="380"/>
      <point x="146" y="310" type="curve" smooth="yes"/>
      <point x="146" y="270"/>
      <point x="171" y="241"/>
      <point x="234" y="207" type="curve" smooth="yes"/>
      <point x="364" y="137" type="line" smooth="yes"/>
      <point x="414" y="110"/>
      <point x="442" y="80"/>
      <point x="442" y="52" type="curve" smooth="yes"/>
      <point x="442" y="33"/>
      <point x="430" y="2"/>
      <point x="415" y="-18" type="curve" smooth="yes"/>
      <point x="389" y="-52"/>
      <point x="346" y="-73"/>
      <point x="301" y="-73" type="curve" smooth="yes"/>
      <point x="231" y="-73"/>
      <point x="184" y="-27"/>
      <point x="184" y="39" type="curve" smooth="yes"/>
      <point x="184" y="46"/>
      <point x="184" y="55"/>
      <point x="185" y="64" type="curve"/>
      <point x="117" y="64" type="line"/>
      <point x="115" y="47"/>
      <point x="114" y="33"/>
      <point x="114" y="22" type="curve" smooth="yes"/>
      <point x="114" y="-13"/>
      <point x="129" y="-54"/>
      <point x="152" y="-83" type="curve" smooth="yes"/>
      <point x="182" y="-121"/>
      <point x="229" y="-141"/>
      <point x="286" y="-141" type="curve" smooth="yes"/>
      <point x="368" y="-141"/>
      <point x="443" y="-97"/>
      <point x="486" y="-25" type="curve" smooth="yes"/>
      <point x="500" y="-1"/>
      <point x="510" y="37"/>
      <point x="510" y="70" type="curve" smooth="yes"/>
      <point x="510" y="94"/>
      <point x="500" y="120"/>
      <point x="479" y="146" type="curve"/>
      <point x="516" y="173"/>
      <point x="532" y="187"/>
      <point x="547" y="210" type="curve" smooth="yes"/>
      <point x="570" y="243"/>
      <point x="583" y="282"/>
      <point x="583" y="315" type="curve" smooth="yes"/>
      <point x="583" y="364"/>
      <point x="556" y="401"/>
      <point x="498" y="431" type="curve" smooth="yes"/>
      <point x="355" y="505" type="line" smooth="yes"/>
      <point x="324" y="521"/>
      <point x="310" y="543"/>
      <point x="310" y="575" type="curve" smooth="yes"/>
      <point x="310" y="634"/>
      <point x="365" y="684"/>
      <point x="430" y="684" type="curve" smooth="yes"/>
      <point x="462" y="684"/>
      <point x="493" y="673"/>
      <point x="508" y="656" type="curve" smooth="yes"/>
      <point x="518" y="645"/>
      <point x="522" y="632"/>
      <point x="523" y="606" type="curve"/>
    </contour>
    <contour>
      <point x="466" y="365" type="line" smooth="yes"/>
      <point x="497" y="349"/>
      <point x="511" y="329"/>
      <point x="511" y="300" type="curve" smooth="yes"/>
      <point x="511" y="255"/>
      <point x="484" y="211"/>
      <point x="440" y="182" type="curve"/>
      <point x="259" y="278" type="line" smooth="yes"/>
      <point x="235" y="291"/>
      <point x="218" y="314"/>
      <point x="218" y="333" type="curve" smooth="yes"/>
      <point x="218" y="374"/>
      <point x="251" y="426"/>
      <point x="295" y="454" type="curve"/>
    </contour>
  </outline>
</glyph>
<glyph name="dieresis" format="1">
  <advance width="369"/>
  <unicode hex="00A8"/>
  <outline>
    <contour>
      <point x="211" y="749" type="line"/>
      <point x="188" y="623" type="line"/>
      <point x="262" y="623" type="line"/>
      <point x="285" y="749" type="line"/>
    </contour>
    <contour>
      <point x="358" y="749" type="line"/>
      <point x="335" y="623" type="line"/>
      <point x="409" y="623" type="line"/>
      <point x="432" y="749" type="line"/>
    </contour>
  </outline>
</glyph>
<glyph name="copyright" format="1">
  <advance width="747"/>
  <unicode hex="00A9"/>
  <outline>
    <contour>
      <point x="549" y="261" type="line"/>
      <point x="510" y="225"/>
      <point x="466" y="206"/>
      <point x="422" y="206" type="curve" smooth="yes"/>
      <point x="346" y="206"/>
      <point x="290" y="264"/>
      <point x="290" y="341" type="curve" smooth="yes"/>
      <point x="290" y="442"/>
      <point x="383" y="536"/>
      <point x="484" y="536" type="curve" smooth="yes"/>
      <point x="531" y="536"/>
      <point x="567" y="517"/>
      <point x="594" y="477" type="curve"/>
      <point x="668" y="477" type="line"/>
      <point x="639" y="552"/>
      <point x="577" y="594"/>
      <point x="493" y="594" type="curve" smooth="yes"/>
      <point x="355" y="594"/>
      <point x="228" y="468"/>
      <point x="228" y="331" type="curve" smooth="yes"/>
      <point x="228" y="227"/>
      <point x="306" y="148"/>
      <point x="408" y="148" type="curve" smooth="yes"/>
      <point x="491" y="148"/>
      <point x="572" y="190"/>
      <point x="624" y="261" type="curve"/>
    </contour>
    <contour>
      <point x="512" y="752" type="curve" smooth="yes"/>
      <point x="275" y="752"/>
      <point x="53" y="535"/>
      <point x="53" y="303" type="curve" smooth="yes"/>
      <point x="53" y="118"/>
      <point x="185" y="-13"/>
      <point x="372" y="-13" type="curve" smooth="yes"/>
      <point x="610" y="-13"/>
      <point x="830" y="205"/>
      <point x="830" y="440" type="curve" smooth="yes"/>
      <point x="830" y="621"/>
      <point x="697" y="752"/>
    </contour>
    <contour>
      <point x="502" y="700" type="curve" smooth="yes"/>
      <point x="659" y="700"/>
      <point x="772" y="587"/>
      <point x="772" y="431" type="curve" smooth="yes"/>
      <point x="772" y="228"/>
      <point x="584" y="39"/>
      <point x="382" y="39" type="curve" smooth="yes"/>
      <point x="223" y="39"/>
      <point x="111" y="152"/>
      <point x="111" y="311" type="curve" smooth="yes"/>
      <point x="111" y="511"/>
      <point x="301" y="700"/>
    </contour>
  </outline>
</glyph>
<glyph name="ordfeminine" format="1">
  <advance width="369"/>
  <unicode hex="00AA"/>
  <outline>
    <contour>
      <point x="477" y="739" type="line"/>
      <point x="429" y="739" type="line"/>
      <point x="421" y="694" type="line"/>
      <point x="398" y="728"/>
      <point x="369" y="745"/>
      <point x="333" y="745" type="curve" smooth="yes"/>
      <point x="235" y="745"/>
      <point x="145" y="660"/>
      <point x="145" y="569" type="curve" smooth="yes"/>
      <point x="145" y="497"/>
      <point x="199" y="441"/>
      <point x="269" y="441" type="curve" smooth="yes"/>
      <point x="313" y="441"/>
      <point x="351" y="459"/>
      <point x="383" y="493" type="curve"/>
      <point x="375" y="448" type="line"/>
      <point x="423" y="448" type="line"/>
    </contour>
    <contour>
      <point x="321" y="696" type="curve" smooth="yes"/>
      <point x="366" y="696"/>
      <point x="400" y="658"/>
      <point x="400" y="610" type="curve" smooth="yes"/>
      <point x="400" y="551"/>
      <point x="338" y="490"/>
      <point x="280" y="490" type="curve" smooth="yes"/>
      <point x="235" y="490"/>
      <point x="198" y="529"/>
      <point x="198" y="575" type="curve" smooth="yes"/>
      <point x="198" y="637"/>
      <point x="258" y="696"/>
    </contour>
    <contour>
      <point x="100" y="371" type="line"/>
      <point x="91" y="319" type="line"/>
      <point x="409" y="319" type="line"/>
      <point x="418" y="371" type="line"/>
    </contour>
  </outline>
</glyph>
<glyph name="guillemotleft" format="1">
  <advance width="425"/>
  <unicode hex="00AB"/>
  <outline>
    <contour>
      <point x="171" y="99" type="line"/>
      <point x="236" y="132" type="line"/>
      <point x="174" y="300" type="line"/>
      <point x="298" y="467" type="line"/>
      <point x="245" y="499" type="line"/>
      <point x="96" y="300" type="line"/>
    </contour>
    <contour>
      <point x="345" y="99" type="line"/>
      <point x="410" y="132" type="line"/>
      <point x="348" y="300" type="line"/>
      <point x="472" y="467" type="line"/>
      <point x="419" y="499" type="line"/>
      <point x="270" y="300" type="line"/>
    </contour>
  </outline>
</glyph>
<glyph name="logicalnot" format="1">
  <advance width="606"/>
  <unicode hex="00AC"/>
  <outline>
    <contour>
      <point x="131" y="436" type="line"/>
      <point x="118" y="363" type="line"/>
      <point x="549" y="363" type="line"/>
      <point x="509" y="148" type="line"/>
      <point x="583" y="148" type="line"/>
      <point x="636" y="436" type="line"/>
    </contour>
  </outline>
</glyph>
<glyph name="registered" format="1">
  <advance width="747"/>
  <unicode hex="00AE"/>
  <outline>
    <contour>
      <point x="562" y="157" type="line"/>
      <point x="472" y="317" type="line"/>
      <point x="518" y="323"/>
      <point x="543" y="333"/>
      <point x="569" y="355" type="curve" smooth="yes"/>
      <point x="603" y="385"/>
      <point x="624" y="431"/>
      <point x="624" y="477" type="curve" smooth="yes"/>
      <point x="624" y="550"/>
      <point x="580" y="587"/>
      <point x="493" y="587" type="curve" smooth="yes"/>
      <point x="360" y="587" type="line"/>
      <point x="281" y="157" type="line"/>
      <point x="342" y="157" type="line"/>
      <point x="379" y="359" type="line"/>
      <point x="486" y="157" type="line"/>
    </contour>
    <contour>
      <point x="380" y="365" type="line"/>
      <point x="410" y="527" type="line"/>
      <point x="478" y="527" type="line" smooth="yes"/>
      <point x="529" y="527"/>
      <point x="560" y="503"/>
      <point x="560" y="463" type="curve" smooth="yes"/>
      <point x="560" y="402"/>
      <point x="508" y="365"/>
      <point x="424" y="365" type="curve" smooth="yes"/>
    </contour>
    <contour>
      <point x="512" y="752" type="curve" smooth="yes"/>
      <point x="275" y="752"/>
      <point x="53" y="535"/>
      <point x="53" y="303" type="curve" smooth="yes"/>
      <point x="53" y="118"/>
      <point x="185" y="-13"/>
      <point x="372" y="-13" type="curve" smooth="yes"/>
      <point x="610" y="-13"/>
      <point x="830" y="205"/>
      <point x="830" y="440" type="curve" smooth="yes"/>
      <point x="830" y="621"/>
      <point x="697" y="752"/>
    </contour>
    <contour>
      <point x="502" y="700" type="curve" smooth="yes"/>
      <point x="659" y="700"/>
      <point x="772" y="587"/>
      <point x="772" y="431" type="curve" smooth="yes"/>
      <point x="772" y="228"/>
      <point x="584" y="39"/>
      <point x="382" y="39" type="curve" smooth="yes"/>
      <point x="223" y="39"/>
      <point x="111" y="152"/>
      <point x="111" y="311" type="curve" smooth="yes"/>
      <point x="111" y="511"/>
      <point x="301" y="700"/>
    </contour>
  </outline>
</glyph>
<glyph name="macron" format="1">
  <advance width="485"/>
  <unicode hex="00AF"/>
  <outline>
    <contour>
      <point x="200" y="713" type="line"/>
      <point x="188" y="651" type="line"/>
      <point x="525" y="651" type="line"/>
      <point x="537" y="713" type="line"/>
    </contour>
  </outline>
</glyph>
<glyph name="degree" format="1">
  <advance width="400"/>
  <unicode hex="00B0"/>
  <outline>
    <contour>
      <point x="312" y="681" type="curve" smooth="yes"/>
      <point x="226" y="681"/>
      <point x="157" y="615"/>
      <point x="157" y="532" type="curve" smooth="yes"/>
      <point x="157" y="448"/>
      <point x="225" y="381"/>
      <point x="309" y="381" type="curve" smooth="yes"/>
      <point x="394" y="381"/>
      <point x="462" y="448"/>
      <point x="462" y="531" type="curve" smooth="yes"/>
      <point x="462" y="613"/>
      <point x="394" y="681"/>
    </contour>
    <contour>
      <point x="311" y="624" type="curve" smooth="yes"/>
      <point x="362" y="624"/>
      <point x="405" y="581"/>
      <point x="405" y="531" type="curve" smooth="yes"/>
      <point x="405" y="480"/>
      <point x="362" y="438"/>
      <point x="309" y="438" type="curve" smooth="yes"/>
      <point x="257" y="438"/>
      <point x="214" y="480"/>
      <point x="214" y="532" type="curve" smooth="yes"/>
      <point x="214" y="583"/>
      <point x="257" y="624"/>
    </contour>
  </outline>
</glyph>
<glyph name="plusminus" format="1">
  <advance width="606"/>
  <unicode hex="00B1"/>
  <outline>
    <contour>
      <point x="338" y="394" type="line"/>
      <point x="124" y="394" type="line"/>
      <point x="110" y="320" type="line"/>
      <point x="324" y="320" type="line"/>
      <point x="293" y="149" type="line"/>
      <point x="370" y="149" type="line"/>
      <point x="401" y="320" type="line"/>
      <point x="614" y="320" type="line"/>
      <point x="628" y="394" type="line"/>
      <point x="415" y="394" type="line"/>
      <point x="455" y="610" type="line"/>
      <point x="378" y="610" type="line"/>
    </contour>
    <contour>
      <point x="569" y="74" type="line"/>
      <point x="65" y="74" type="line"/>
      <point x="51" y="0" type="line"/>
      <point x="555" y="0" type="line"/>
    </contour>
  </outline>
</glyph>
<glyph name="acute" format="1">
  <advance width="375"/>
  <unicode hex="00B4"/>
  <outline>
    <contour>
      <point x="198" y="666" type="line"/>
      <point x="222" y="610" type="line"/>
      <point x="436" y="724" type="line"/>
      <point x="412" y="782" type="line"/>
    </contour>
  </outline>
</glyph>
<glyph name="paragraph" format="1">
  <advance width="564"/>
  <unicode hex="00B6"/>
  <outline>
    <contour>
      <point x="203" y="-133" type="line"/>
      <point x="277" y="-133" type="line"/>
      <point x="426" y="672" type="line"/>
      <point x="542" y="672" type="line"/>
      <point x="393" y="-133" type="line"/>
      <point x="467" y="-133" type="line"/>
      <point x="628" y="739" type="line"/>
      <point x="397" y="739" type="line" smooth="yes"/>
      <point x="318" y="739"/>
      <point x="264" y="723"/>
      <point x="218" y="684" type="curve" smooth="yes"/>
      <point x="165" y="639"/>
      <point x="135" y="577"/>
      <point x="135" y="510" type="curve" smooth="yes"/>
      <point x="135" y="421"/>
      <point x="193" y="365"/>
      <point x="293" y="355" type="curve"/>
    </contour>
  </outline>
</glyph>
<glyph name="periodcentered" format="1">
  <advance width="277"/>
  <unicode hex="00B7"/>
  <outline>
    <contour>
      <point x="145" y="229" type="line"/>
      <point x="219" y="229" type="line"/>
      <point x="242" y="355" type="line"/>
      <point x="168" y="355" type="line"/>
    </contour>
  </outline>
</glyph>
<glyph name="cedilla" format="1">
  <advance width="324"/>
  <unicode hex="00B8"/>
  <outline>
    <contour>
      <point x="129" y="0" type="line"/>
      <point x="72" y="-92" type="line"/>
      <point x="98" y="-109" type="line"/>
      <point x="115" y="-92"/>
      <point x="130" y="-85"/>
      <point x="148" y="-85" type="curve" smooth="yes"/>
      <point x="169" y="-85"/>
      <point x="185" y="-101"/>
      <point x="185" y="-123" type="curve" smooth="yes"/>
      <point x="185" y="-157"/>
      <point x="162" y="-181"/>
      <point x="130" y="-181" type="curve" smooth="yes"/>
      <point x="108" y="-181"/>
      <point x="96" y="-171"/>
      <point x="91" y="-148" type="curve"/>
      <point x="46" y="-153" type="line"/>
      <point x="49" y="-201"/>
      <point x="76" y="-227"/>
      <point x="124" y="-227" type="curve" smooth="yes"/>
      <point x="184" y="-227"/>
      <point x="228" y="-180"/>
      <point x="228" y="-116" type="curve" smooth="yes"/>
      <point x="228" y="-76"/>
      <point x="204" y="-52"/>
      <point x="164" y="-52" type="curve" smooth="yes"/>
      <point x="152" y="-52"/>
      <point x="145" y="-54"/>
      <point x="130" y="-60" type="curve"/>
      <point x="165" y="0" type="line"/>
    </contour>
  </outline>
</glyph>
<glyph name="ordmasculine" format="1">
  <advance width="369"/>
  <unicode hex="00BA"/>
  <outline>
    <contour>
      <point x="326" y="745" type="curve" smooth="yes"/>
      <point x="229" y="745"/>
      <point x="141" y="660"/>
      <point x="141" y="567" type="curve" smooth="yes"/>
      <point x="141" y="496"/>
      <point x="194" y="442"/>
      <point x="264" y="442" type="curve" smooth="yes"/>
      <point x="361" y="442"/>
      <point x="450" y="527"/>
      <point x="450" y="619" type="curve" smooth="yes"/>
      <point x="450" y="691"/>
      <point x="397" y="745"/>
    </contour>
    <contour>
      <point x="317" y="696" type="curve" smooth="yes"/>
      <point x="361" y="696"/>
      <point x="397" y="660"/>
      <point x="397" y="617" type="curve" smooth="yes"/>
      <point x="397" y="549"/>
      <point x="341" y="491"/>
      <point x="276" y="491" type="curve" smooth="yes"/>
      <point x="229" y="491"/>
      <point x="194" y="525"/>
      <point x="194" y="572" type="curve" smooth="yes"/>
      <point x="194" y="639"/>
      <point x="250" y="696"/>
    </contour>
    <contour>
      <point x="101" y="371" type="line"/>
      <point x="92" y="319" type="line"/>
      <point x="397" y="319" type="line"/>
      <point x="406" y="371" type="line"/>
    </contour>
  </outline>
</glyph>
<glyph name="guillemotright" format="1">
  <advance width="425"/>
  <unicode hex="00BB"/>
  <outline>
    <contour>
      <point x="118" y="99" type="line"/>
      <point x="267" y="300" type="line"/>
      <point x="192" y="499" type="line"/>
      <point x="127" y="467" type="line"/>
      <point x="189" y="300" type="line"/>
      <point x="65" y="132" type="line"/>
    </contour>
    <contour>
      <point x="292" y="99" type="line"/>
      <point x="441" y="300" type="line"/>
      <point x="366" y="499" type="line"/>
      <point x="301" y="467" type="line"/>
      <point x="363" y="300" type="line"/>
      <point x="239" y="132" type="line"/>
    </contour>
  </outline>
</glyph>
<glyph name="onequarter" format="1">
  <advance width="831"/>
  <unicode hex="00BC"/>
  <outline>
    <contour>
      <point x="701" y="0" type="line"/>
      <point x="759" y="0" type="line"/>
      <point x="774" y="79" type="line"/>
      <point x="816" y="79" type="line"/>
      <point x="825" y="131" type="line"/>
      <point x="783" y="131" type="line"/>
      <point x="841" y="442" type="line"/>
      <point x="778" y="442" type="line"/>
      <point x="493" y="127" type="line"/>
      <point x="484" y="79" type="line"/>
      <point x="716" y="79" type="line"/>
    </contour>
    <contour>
      <point x="725" y="131" type="line"/>
      <point x="564" y="131" type="line"/>
      <point x="768" y="358" type="line"/>
    </contour>
    <contour>
      <point x="217" y="0" type="line"/>
      <point x="271" y="0" type="line"/>
      <point x="750" y="739" type="line"/>
      <point x="696" y="739" type="line"/>
    </contour>
    <contour>
      <point x="238" y="297" type="line"/>
      <point x="296" y="297" type="line"/>
      <point x="377" y="739" type="line"/>
      <point x="243" y="739" type="line"/>
      <point x="234" y="687" type="line"/>
      <point x="310" y="687" type="line"/>
    </contour>
  </outline>
</glyph>
<glyph name="onehalf" format="1">
  <advance width="831"/>
  <unicode hex="00BD"/>
  <outline>
    <contour>
      <point x="207" y="0" type="line"/>
      <point x="261" y="0" type="line"/>
      <point x="740" y="739" type="line"/>
      <point x="686" y="739" type="line"/>
    </contour>
    <contour>
      <point x="228" y="297" type="line"/>
      <point x="286" y="297" type="line"/>
      <point x="367" y="739" type="line"/>
      <point x="233" y="739" type="line"/>
      <point x="224" y="687" type="line"/>
      <point x="300" y="687" type="line"/>
    </contour>
    <contour>
      <point x="506" y="0" type="line"/>
      <point x="812" y="0" type="line"/>
      <point x="821" y="52" type="line"/>
      <point x="598" y="52" type="line"/>
      <point x="759" y="173" type="line" smooth="yes"/>
      <point x="845" y="238"/>
      <point x="874" y="280"/>
      <point x="874" y="337" type="curve" smooth="yes"/>
      <point x="874" y="405"/>
      <point x="823" y="450"/>
      <point x="747" y="450" type="curve" smooth="yes"/>
      <point x="649" y="450"/>
      <point x="579" y="389"/>
      <point x="564" y="291" type="curve"/>
      <point x="621" y="291" type="line"/>
      <point x="627" y="323"/>
      <point x="633" y="338"/>
      <point x="644" y="353" type="curve" smooth="yes"/>
      <point x="665" y="382"/>
      <point x="698" y="398"/>
      <point x="735" y="398" type="curve" smooth="yes"/>
      <point x="783" y="398"/>
      <point x="816" y="371"/>
      <point x="816" y="332" type="curve" smooth="yes"/>
      <point x="816" y="309"/>
      <point x="806" y="285"/>
      <point x="789" y="265" type="curve" smooth="yes"/>
      <point x="772" y="246"/>
      <point x="762" y="238"/>
      <point x="706" y="195" type="curve" smooth="yes"/>
      <point x="515" y="49" type="line"/>
    </contour>
  </outline>
</glyph>
<glyph name="questiondown" format="1">
  <advance width="591"/>
  <unicode hex="00BF"/>
  <outline>
    <contour>
      <point x="430" y="547" type="line"/>
      <point x="356" y="547" type="line"/>
      <point x="333" y="421" type="line"/>
      <point x="407" y="421" type="line"/>
    </contour>
    <contour>
      <point x="462" y="39" type="line"/>
      <point x="450" y="-8"/>
      <point x="438" y="-35"/>
      <point x="419" y="-61" type="curve" smooth="yes"/>
      <point x="383" y="-109"/>
      <point x="326" y="-137"/>
      <point x="266" y="-137" type="curve" smooth="yes"/>
      <point x="193" y="-137"/>
      <point x="141" y="-89"/>
      <point x="141" y="-21" type="curve" smooth="yes"/>
      <point x="141" y="46"/>
      <point x="161" y="77"/>
      <point x="252" y="150" type="curve" smooth="yes"/>
      <point x="338" y="216"/>
      <point x="378" y="274"/>
      <point x="393" y="354" type="curve"/>
      <point x="323" y="354" type="line"/>
      <point x="309" y="291"/>
      <point x="280" y="253"/>
      <point x="189" y="182" type="curve" smooth="yes"/>
      <point x="143" y="146"/>
      <point x="125" y="129"/>
      <point x="104" y="100" type="curve" smooth="yes"/>
      <point x="79" y="64"/>
      <point x="64" y="15"/>
      <point x="64" y="-33" type="curve" smooth="yes"/>
      <point x="64" y="-135"/>
      <point x="141" y="-205"/>
      <point x="254" y="-205" type="curve" smooth="yes"/>
      <point x="338" y="-205"/>
      <point x="416" y="-168"/>
      <point x="470" y="-103" type="curve" smooth="yes"/>
      <point x="503" y="-62"/>
      <point x="521" y="-23"/>
      <point x="532" y="39" type="curve"/>
    </contour>
  </outline>
</glyph>
<glyph name="Agrave" format="1">
  <advance width="740"/>
  <unicode hex="00C0"/>
  <outline>
    <contour>
      <point x="11" y="0" type="line"/>
      <point x="89" y="0" type="line"/>
      <point x="243" y="249" type="line"/>
      <point x="587" y="249" type="line"/>
      <point x="648" y="0" type="line"/>
      <point x="729" y="0" type="line"/>
      <point x="548" y="739" type="line"/>
      <point x="465" y="739" type="line"/>
    </contour>
    <contour>
      <point x="284" y="316" type="line"/>
      <point x="491" y="655" type="line"/>
      <point x="571" y="316" type="line"/>
    </contour>
    <contour>
      <point x="403" y="960" type="line"/>
      <point x="363" y="908" type="line"/>
      <point x="545" y="792" type="line"/>
      <point x="584" y="843" type="line"/>
    </contour>
  </outline>
</glyph>
<glyph name="Acircumflex" format="1">
  <advance width="740"/>
  <unicode hex="00C2"/>
  <outline>
    <contour>
      <point x="11" y="0" type="line"/>
      <point x="89" y="0" type="line"/>
      <point x="243" y="249" type="line"/>
      <point x="587" y="249" type="line"/>
      <point x="648" y="0" type="line"/>
      <point x="729" y="0" type="line"/>
      <point x="548" y="739" type="line"/>
      <point x="465" y="739" type="line"/>
    </contour>
    <contour>
      <point x="284" y="316" type="line"/>
      <point x="491" y="655" type="line"/>
      <point x="571" y="316" type="line"/>
    </contour>
    <contour>
      <point x="336" y="805" type="line"/>
      <point x="427" y="805" type="line"/>
      <point x="529" y="879" type="line"/>
      <point x="601" y="805" type="line"/>
      <point x="690" y="805" type="line"/>
      <point x="570" y="931" type="line"/>
      <point x="504" y="931" type="line"/>
    </contour>
  </outline>
</glyph>
<glyph name="Atilde" format="1">
  <advance width="740"/>
  <unicode hex="00C3"/>
  <outline>
    <contour>
      <point x="11" y="0" type="line"/>
      <point x="89" y="0" type="line"/>
      <point x="243" y="249" type="line"/>
      <point x="587" y="249" type="line"/>
      <point x="648" y="0" type="line"/>
      <point x="729" y="0" type="line"/>
      <point x="548" y="739" type="line"/>
      <point x="465" y="739" type="line"/>
    </contour>
    <contour>
      <point x="284" y="316" type="line"/>
      <point x="491" y="655" type="line"/>
      <point x="571" y="316" type="line"/>
    </contour>
    <contour>
      <point x="645" y="916" type="line"/>
      <point x="622" y="890"/>
      <point x="599" y="878"/>
      <point x="575" y="878" type="curve" smooth="yes"/>
      <point x="564" y="878"/>
      <point x="557" y="880"/>
      <point x="538" y="889" type="curve" smooth="yes"/>
      <point x="526" y="894"/>
      <point x="514" y="899"/>
      <point x="502" y="905" type="curve" smooth="yes"/>
      <point x="489" y="911"/>
      <point x="478" y="914"/>
      <point x="469" y="914" type="curve" smooth="yes"/>
      <point x="444" y="914"/>
      <point x="411" y="895"/>
      <point x="380" y="864" type="curve"/>
      <point x="403" y="819" type="line"/>
      <point x="407" y="821"/>
      <point x="410" y="823"/>
      <point x="411" y="824" type="curve"/>
      <point x="417" y="828"/>
      <point x="423" y="832"/>
      <point x="428" y="836" type="curve" smooth="yes"/>
      <point x="445" y="849"/>
      <point x="449" y="851"/>
      <point x="461" y="851" type="curve" smooth="yes"/>
      <point x="467" y="851"/>
      <point x="473" y="850"/>
      <point x="478" y="847" type="curve"/>
      <point x="523" y="826"/>
      <point x="555" y="815"/>
      <point x="574" y="815" type="curve" smooth="yes"/>
      <point x="607" y="815"/>
      <point x="640" y="835"/>
      <point x="666" y="870" type="curve"/>
    </contour>
  </outline>
</glyph>
<glyph name="Adieresis" format="1">
  <advance width="740"/>
  <unicode hex="00C4"/>
  <outline>
    <contour>
      <point x="11" y="0" type="line"/>
      <point x="89" y="0" type="line"/>
      <point x="243" y="249" type="line"/>
      <point x="587" y="249" type="line"/>
      <point x="648" y="0" type="line"/>
      <point x="729" y="0" type="line"/>
      <point x="548" y="739" type="line"/>
      <point x="465" y="739" type="line"/>
    </contour>
    <contour>
      <point x="284" y="316" type="line"/>
      <point x="491" y="655" type="line"/>
      <point x="571" y="316" type="line"/>
    </contour>
    <contour>
      <point x="428" y="931" type="line"/>
      <point x="405" y="805" type="line"/>
      <point x="479" y="805" type="line"/>
      <point x="502" y="931" type="line"/>
    </contour>
    <contour>
      <point x="575" y="931" type="line"/>
      <point x="552" y="805" type="line"/>
      <point x="626" y="805" type="line"/>
      <point x="649" y="931" type="line"/>
    </contour>
  </outline>
</glyph>
<glyph name="Aring" format="1">
  <advance width="740"/>
  <unicode hex="00C5"/>
  <outline>
    <contour>
      <point x="11" y="0" type="line"/>
      <point x="89" y="0" type="line"/>
      <point x="243" y="249" type="line"/>
      <point x="587" y="249" type="line"/>
      <point x="648" y="0" type="line"/>
      <point x="729" y="0" type="line"/>
      <point x="548" y="739" type="line"/>
      <point x="465" y="739" type="line"/>
    </contour>
    <contour>
      <point x="284" y="316" type="line"/>
      <point x="491" y="655" type="line"/>
      <point x="571" y="316" type="line"/>
    </contour>
    <contour>
      <point x="543" y="972" type="curve" smooth="yes"/>
      <point x="484" y="972"/>
      <point x="434" y="920"/>
      <point x="434" y="859" type="curve" smooth="yes"/>
      <point x="434" y="818"/>
      <point x="466" y="788"/>
      <point x="510" y="788" type="curve" smooth="yes"/>
      <point x="569" y="788"/>
      <point x="620" y="839"/>
      <point x="620" y="898" type="curve" smooth="yes"/>
      <point x="620" y="942"/>
      <point x="589" y="972"/>
    </contour>
    <contour>
      <point x="536" y="932" type="curve" smooth="yes"/>
      <point x="562" y="932"/>
      <point x="583" y="912"/>
      <point x="583" y="888" type="curve" smooth="yes"/>
      <point x="583" y="858"/>
      <point x="550" y="828"/>
      <point x="517" y="828" type="curve" smooth="yes"/>
      <point x="491" y="828"/>
      <point x="472" y="846"/>
      <point x="472" y="870" type="curve" smooth="yes"/>
      <point x="472" y="902"/>
      <point x="504" y="932"/>
    </contour>
  </outline>
</glyph>
<glyph name="AE" format="1">
  <advance width="992"/>
  <unicode hex="00C6"/>
  <outline>
    <contour>
      <point x="11" y="0" type="line"/>
      <point x="99" y="0" type="line"/>
      <point x="318" y="250" type="line"/>
      <point x="589" y="250" type="line"/>
      <point x="543" y="0" type="line"/>
      <point x="936" y="0" type="line"/>
      <point x="948" y="67" type="line"/>
      <point x="629" y="67" type="line"/>
      <point x="680" y="340" type="line"/>
      <point x="988" y="340" type="line"/>
      <point x="1000" y="407" type="line"/>
      <point x="692" y="407" type="line"/>
      <point x="742" y="672" type="line"/>
      <point x="1061" y="672" type="line"/>
      <point x="1073" y="739" type="line"/>
      <point x="659" y="739" type="line"/>
    </contour>
    <contour>
      <point x="378" y="317" type="line"/>
      <point x="662" y="644" type="line"/>
      <point x="602" y="317" type="line"/>
    </contour>
  </outline>
</glyph>
<glyph name="Ccedilla" format="1">
  <advance width="813"/>
  <unicode hex="00C7"/>
  <outline>
    <contour>
      <point x="418" y="-13" type="line"/>
      <point x="438" y="-13" type="line" smooth="yes"/>
      <point x="580" y="-13"/>
      <point x="720" y="65"/>
      <point x="807" y="194" type="curve"/>
      <point x="725" y="194" type="line"/>
      <point x="639" y="100"/>
      <point x="548" y="55"/>
      <point x="444" y="55" type="curve" smooth="yes"/>
      <point x="293" y="55"/>
      <point x="183" y="162"/>
      <point x="183" y="310" type="curve" smooth="yes"/>
      <point x="183" y="388"/>
      <point x="210" y="465"/>
      <point x="263" y="534" type="curve" smooth="yes"/>
      <point x="337" y="630"/>
      <point x="443" y="684"/>
      <point x="559" y="684" type="curve" smooth="yes"/>
      <point x="623" y="684"/>
      <point x="680" y="667"/>
      <point x="723" y="635" type="curve" smooth="yes"/>
      <point x="751" y="613"/>
      <point x="767" y="592"/>
      <point x="787" y="547" type="curve"/>
      <point x="869" y="547" type="line"/>
      <point x="843" y="669"/>
      <point x="721" y="752"/>
      <point x="569" y="752" type="curve" smooth="yes"/>
      <point x="319" y="752"/>
      <point x="106" y="540"/>
      <point x="106" y="290" type="curve" smooth="yes"/>
      <point x="106" y="128"/>
      <point x="216" y="8"/>
      <point x="383" y="-10" type="curve"/>
      <point x="333" y="-92" type="line"/>
      <point x="359" y="-109" type="line"/>
      <point x="375" y="-92"/>
      <point x="390" y="-85"/>
      <point x="408" y="-85" type="curve" smooth="yes"/>
      <point x="430" y="-85"/>
      <point x="445" y="-101"/>
      <point x="445" y="-123" type="curve" smooth="yes"/>
      <point x="445" y="-157"/>
      <point x="422" y="-181"/>
      <point x="390" y="-181" type="curve" smooth="yes"/>
      <point x="368" y="-181"/>
      <point x="357" y="-171"/>
      <point x="352" y="-148" type="curve"/>
      <point x="307" y="-153" type="line"/>
      <point x="309" y="-201"/>
      <point x="337" y="-227"/>
      <point x="385" y="-227" type="curve" smooth="yes"/>
      <point x="443" y="-227"/>
      <point x="489" y="-179"/>
      <point x="489" y="-119" type="curve" smooth="yes"/>
      <point x="489" y="-77"/>
      <point x="465" y="-52"/>
      <point x="425" y="-52" type="curve" smooth="yes"/>
      <point x="413" y="-52"/>
      <point x="405" y="-54"/>
      <point x="391" y="-60" type="curve"/>
    </contour>
  </outline>
</glyph>
<glyph name="Egrave" format="1">
  <advance width="536"/>
  <unicode hex="00C8"/>
  <outline>
    <contour>
      <point x="76" y="0" type="line"/>
      <point x="480" y="0" type="line"/>
      <point x="492" y="67" type="line"/>
      <point x="162" y="67" type="line"/>
      <point x="213" y="340" type="line"/>
      <point x="532" y="340" type="line"/>
      <point x="544" y="407" type="line"/>
      <point x="225" y="407" type="line"/>
      <point x="275" y="672" type="line"/>
      <point x="605" y="672" type="line"/>
      <point x="617" y="739" type="line"/>
      <point x="213" y="739" type="line"/>
    </contour>
    <contour>
      <point x="333" y="960" type="line"/>
      <point x="293" y="908" type="line"/>
      <point x="475" y="792" type="line"/>
      <point x="514" y="843" type="line"/>
    </contour>
  </outline>
</glyph>
<glyph name="Eacute" format="1">
  <advance width="536"/>
  <unicode hex="00C9"/>
  <outline>
    <contour>
      <point x="76" y="0" type="line"/>
      <point x="480" y="0" type="line"/>
      <point x="492" y="67" type="line"/>
      <point x="162" y="67" type="line"/>
      <point x="213" y="340" type="line"/>
      <point x="532" y="340" type="line"/>
      <point x="544" y="407" type="line"/>
      <point x="225" y="407" type="line"/>
      <point x="275" y="672" type="line"/>
      <point x="605" y="672" type="line"/>
      <point x="617" y="739" type="line"/>
      <point x="213" y="739" type="line"/>
    </contour>
    <contour>
      <point x="351" y="848" type="line"/>
      <point x="375" y="792" type="line"/>
      <point x="589" y="906" type="line"/>
      <point x="565" y="964" type="line"/>
    </contour>
  </outline>
</glyph>
<glyph name="Edieresis" format="1">
  <advance width="536"/>
  <unicode hex="00CB"/>
  <outline>
    <contour>
      <point x="76" y="0" type="line"/>
      <point x="480" y="0" type="line"/>
      <point x="492" y="67" type="line"/>
      <point x="162" y="67" type="line"/>
      <point x="213" y="340" type="line"/>
      <point x="532" y="340" type="line"/>
      <point x="544" y="407" type="line"/>
      <point x="225" y="407" type="line"/>
      <point x="275" y="672" type="line"/>
      <point x="605" y="672" type="line"/>
      <point x="617" y="739" type="line"/>
      <point x="213" y="739" type="line"/>
    </contour>
    <contour>
      <point x="337" y="931" type="line"/>
      <point x="314" y="805" type="line"/>
      <point x="388" y="805" type="line"/>
      <point x="411" y="931" type="line"/>
    </contour>
    <contour>
      <point x="484" y="931" type="line"/>
      <point x="461" y="805" type="line"/>
      <point x="535" y="805" type="line"/>
      <point x="558" y="931" type="line"/>
    </contour>
  </outline>
</glyph>
<glyph name="Igrave" format="1">
  <advance width="226"/>
  <unicode hex="00CC"/>
  <outline>
    <contour>
      <point x="76" y="0" type="line"/>
      <point x="150" y="0" type="line"/>
      <point x="287" y="739" type="line"/>
      <point x="213" y="739" type="line"/>
    </contour>
    <contour>
      <point x="207" y="960" type="line"/>
      <point x="167" y="908" type="line"/>
      <point x="349" y="792" type="line"/>
      <point x="388" y="843" type="line"/>
    </contour>
  </outline>
</glyph>
<glyph name="Icircumflex" format="1">
  <advance width="226"/>
  <unicode hex="00CE"/>
  <outline>
    <contour>
      <point x="76" y="0" type="line"/>
      <point x="150" y="0" type="line"/>
      <point x="287" y="739" type="line"/>
      <point x="213" y="739" type="line"/>
    </contour>
    <contour>
      <point x="85" y="805" type="line"/>
      <point x="176" y="805" type="line"/>
      <point x="278" y="879" type="line"/>
      <point x="350" y="805" type="line"/>
      <point x="439" y="805" type="line"/>
      <point x="319" y="931" type="line"/>
      <point x="253" y="931" type="line"/>
    </contour>
  </outline>
</glyph>
<glyph name="Eth" format="1">
  <advance width="790"/>
  <unicode hex="00D0"/>
  <outline>
    <contour>
      <point x="122" y="0" type="line"/>
      <point x="321" y="0" type="line" smooth="yes"/>
      <point x="468" y="0"/>
      <point x="565" y="30"/>
      <point x="655" y="102" type="curve" smooth="yes"/>
      <point x="762" y="188"/>
      <point x="820" y="311"/>
      <point x="820" y="451" type="curve" smooth="yes"/>
      <point x="820" y="550"/>
      <point x="781" y="627"/>
      <point x="702" y="681" type="curve" smooth="yes"/>
      <point x="643" y="723"/>
      <point x="566" y="739"/>
      <point x="433" y="739" type="curve" smooth="yes"/>
      <point x="259" y="739" type="line"/>
      <point x="198" y="414" type="line"/>
      <point x="105" y="414" type="line"/>
      <point x="93" y="347" type="line"/>
      <point x="186" y="347" type="line"/>
    </contour>
    <contour>
      <point x="209" y="67" type="line"/>
      <point x="260" y="347" type="line"/>
      <point x="466" y="347" type="line"/>
      <point x="478" y="414" type="line"/>
      <point x="272" y="414" type="line"/>
      <point x="321" y="672" type="line"/>
      <point x="424" y="672" type="line" smooth="yes"/>
      <point x="532" y="672"/>
      <point x="602" y="657"/>
      <point x="650" y="625" type="curve" smooth="yes"/>
      <point x="710" y="584"/>
      <point x="743" y="517"/>
      <point x="743" y="435" type="curve" smooth="yes"/>
      <point x="743" y="336"/>
      <point x="699" y="231"/>
      <point x="628" y="165" type="curve" smooth="yes"/>
      <point x="552" y="94"/>
      <point x="465" y="67"/>
      <point x="312" y="67" type="curve" smooth="yes"/>
    </contour>
  </outline>
</glyph>
<glyph name="Ntilde" format="1">
  <advance width="740"/>
  <unicode hex="00D1"/>
  <outline>
    <contour>
      <point x="76" y="0" type="line"/>
      <point x="150" y="0" type="line"/>
      <point x="270" y="650" type="line"/>
      <point x="590" y="0" type="line"/>
      <point x="664" y="0" type="line"/>
      <point x="801" y="739" type="line"/>
      <point x="727" y="739" type="line"/>
      <point x="613" y="126" type="line"/>
      <point x="313" y="739" type="line"/>
      <point x="213" y="739" type="line"/>
    </contour>
    <contour>
      <point x="651" y="916" type="line"/>
      <point x="628" y="890"/>
      <point x="605" y="878"/>
      <point x="581" y="878" type="curve" smooth="yes"/>
      <point x="570" y="878"/>
      <point x="563" y="880"/>
      <point x="544" y="889" type="curve" smooth="yes"/>
      <point x="532" y="894"/>
      <point x="520" y="899"/>
      <point x="508" y="905" type="curve" smooth="yes"/>
      <point x="495" y="911"/>
      <point x="484" y="914"/>
      <point x="475" y="914" type="curve" smooth="yes"/>
      <point x="450" y="914"/>
      <point x="417" y="895"/>
      <point x="386" y="864" type="curve"/>
      <point x="409" y="819" type="line"/>
      <point x="413" y="821"/>
      <point x="416" y="823"/>
      <point x="417" y="824" type="curve"/>
      <point x="423" y="828"/>
      <point x="429" y="832"/>
      <point x="434" y="836" type="curve" smooth="yes"/>
      <point x="451" y="849"/>
      <point x="455" y="851"/>
      <point x="467" y="851" type="curve" smooth="yes"/>
      <point x="473" y="851"/>
      <point x="479" y="850"/>
      <point x="484" y="847" type="curve"/>
      <point x="529" y="826"/>
      <point x="561" y="815"/>
      <point x="580" y="815" type="curve" smooth="yes"/>
      <point x="613" y="815"/>
      <point x="646" y="835"/>
      <point x="672" y="870" type="curve"/>
    </contour>
  </outline>
</glyph>
<glyph name="Otilde" format="1">
  <advance width="869"/>
  <unicode hex="00D5"/>
  <outline>
    <contour>
      <point x="578" y="752" type="curve" smooth="yes"/>
      <point x="333" y="752"/>
      <point x="106" y="536"/>
      <point x="106" y="302" type="curve" smooth="yes"/>
      <point x="106" y="234"/>
      <point x="128" y="164"/>
      <point x="166" y="113" type="curve" smooth="yes"/>
      <point x="223" y="36"/>
      <point x="325" y="-13"/>
      <point x="428" y="-13" type="curve" smooth="yes"/>
      <point x="673" y="-13"/>
      <point x="900" y="203"/>
      <point x="900" y="436" type="curve" smooth="yes"/>
      <point x="900" y="511"/>
      <point x="880" y="571"/>
      <point x="839" y="626" type="curve" smooth="yes"/>
      <point x="779" y="705"/>
      <point x="681" y="752"/>
    </contour>
    <contour>
      <point x="560" y="684" type="curve" smooth="yes"/>
      <point x="713" y="684"/>
      <point x="823" y="574"/>
      <point x="823" y="422" type="curve" smooth="yes"/>
      <point x="823" y="232"/>
      <point x="638" y="55"/>
      <point x="440" y="55" type="curve" smooth="yes"/>
      <point x="296" y="55"/>
      <point x="183" y="170"/>
      <point x="183" y="316" type="curve" smooth="yes"/>
      <point x="183" y="503"/>
      <point x="369" y="684"/>
    </contour>
    <contour>
      <point x="712" y="916" type="line"/>
      <point x="689" y="890"/>
      <point x="666" y="878"/>
      <point x="642" y="878" type="curve" smooth="yes"/>
      <point x="631" y="878"/>
      <point x="624" y="880"/>
      <point x="605" y="889" type="curve" smooth="yes"/>
      <point x="593" y="894"/>
      <point x="581" y="899"/>
      <point x="569" y="905" type="curve" smooth="yes"/>
      <point x="556" y="911"/>
      <point x="545" y="914"/>
      <point x="536" y="914" type="curve" smooth="yes"/>
      <point x="511" y="914"/>
      <point x="478" y="895"/>
      <point x="447" y="864" type="curve"/>
      <point x="470" y="819" type="line"/>
      <point x="474" y="821"/>
      <point x="477" y="823"/>
      <point x="478" y="824" type="curve"/>
      <point x="484" y="828"/>
      <point x="490" y="832"/>
      <point x="495" y="836" type="curve" smooth="yes"/>
      <point x="512" y="849"/>
      <point x="516" y="851"/>
      <point x="528" y="851" type="curve" smooth="yes"/>
      <point x="534" y="851"/>
      <point x="540" y="850"/>
      <point x="545" y="847" type="curve"/>
      <point x="590" y="826"/>
      <point x="622" y="815"/>
      <point x="641" y="815" type="curve" smooth="yes"/>
      <point x="674" y="815"/>
      <point x="707" y="835"/>
      <point x="733" y="870" type="curve"/>
    </contour>
  </outline>
</glyph>
<glyph name="multiply" format="1">
  <advance width="606"/>
  <unicode hex="00D7"/>
  <outline>
    <contour>
      <point x="412" y="296" type="line"/>
      <point x="648" y="495" type="line"/>
      <point x="602" y="552" type="line"/>
      <point x="365" y="353" type="line"/>
      <point x="188" y="570" type="line"/>
      <point x="129" y="520" type="line"/>
      <point x="306" y="303" type="line"/>
      <point x="70" y="104" type="line"/>
      <point x="117" y="47" type="line"/>
      <point x="353" y="246" type="line"/>
      <point x="530" y="29" type="line"/>
      <point x="589" y="78" type="line"/>
    </contour>
  </outline>
</glyph>
<glyph name="Oslash" format="1">
  <advance width="868"/>
  <unicode hex="00D8"/>
  <outline>
    <contour>
      <point x="72" y="-42" type="line"/>
      <point x="120" y="-83" type="line"/>
      <point x="238" y="42" type="line"/>
      <point x="286" y="9"/>
      <point x="363" y="-13"/>
      <point x="431" y="-13" type="curve" smooth="yes"/>
      <point x="564" y="-13"/>
      <point x="695" y="50"/>
      <point x="785" y="158" type="curve" smooth="yes"/>
      <point x="856" y="241"/>
      <point x="897" y="346"/>
      <point x="897" y="442" type="curve" smooth="yes"/>
      <point x="897" y="528"/>
      <point x="867" y="601"/>
      <point x="811" y="656" type="curve"/>
      <point x="925" y="778" type="line"/>
      <point x="880" y="821" type="line"/>
      <point x="763" y="696" type="line"/>
      <point x="741" y="711"/>
      <point x="736" y="714"/>
      <point x="730" y="717" type="curve" smooth="yes"/>
      <point x="691" y="737"/>
      <point x="622" y="752"/>
      <point x="564" y="752" type="curve" smooth="yes"/>
      <point x="437" y="752"/>
      <point x="299" y="686"/>
      <point x="212" y="582" type="curve" smooth="yes"/>
      <point x="142" y="499"/>
      <point x="103" y="397"/>
      <point x="103" y="294" type="curve" smooth="yes"/>
      <point x="103" y="209"/>
      <point x="132" y="138"/>
      <point x="189" y="82" type="curve"/>
    </contour>
    <contour>
      <point x="241" y="138" type="line"/>
      <point x="192" y="201"/>
      <point x="180" y="235"/>
      <point x="180" y="309" type="curve" smooth="yes"/>
      <point x="180" y="387"/>
      <point x="204" y="455"/>
      <point x="260" y="530" type="curve" smooth="yes"/>
      <point x="331" y="628"/>
      <point x="439" y="684"/>
      <point x="554" y="684" type="curve" smooth="yes"/>
      <point x="614" y="684"/>
      <point x="673" y="668"/>
      <point x="712" y="641" type="curve"/>
    </contour>
    <contour>
      <point x="759" y="600" type="line"/>
      <point x="766" y="590" type="line" smooth="yes"/>
      <point x="809" y="530"/>
      <point x="820" y="497"/>
      <point x="820" y="426" type="curve" smooth="yes"/>
      <point x="820" y="352"/>
      <point x="797" y="286"/>
      <point x="749" y="219" type="curve" smooth="yes"/>
      <point x="674" y="115"/>
      <point x="561" y="55"/>
      <point x="440" y="55" type="curve" smooth="yes"/>
      <point x="383" y="55"/>
      <point x="346" y="65"/>
      <point x="289" y="97" type="curve"/>
    </contour>
  </outline>
</glyph>
<glyph name="Uacute" format="1">
  <advance width="655"/>
  <unicode hex="00DA"/>
  <outline>
    <contour>
      <point x="215" y="739" type="line"/>
      <point x="130" y="278" type="line" smooth="yes"/>
      <point x="123" y="239"/>
      <point x="119" y="203"/>
      <point x="119" y="173" type="curve" smooth="yes"/>
      <point x="119" y="63"/>
      <point x="204" y="-13"/>
      <point x="326" y="-13" type="curve" smooth="yes"/>
      <point x="409" y="-13"/>
      <point x="487" y="20"/>
      <point x="542" y="78" type="curve" smooth="yes"/>
      <point x="588" y="127"/>
      <point x="614" y="184"/>
      <point x="631" y="278" type="curve" smooth="yes"/>
      <point x="716" y="739" type="line"/>
      <point x="642" y="739" type="line"/>
      <point x="557" y="278" type="line" smooth="yes"/>
      <point x="544" y="210"/>
      <point x="524" y="159"/>
      <point x="494" y="125" type="curve" smooth="yes"/>
      <point x="456" y="82"/>
      <point x="397" y="55"/>
      <point x="339" y="55" type="curve" smooth="yes"/>
      <point x="253" y="55"/>
      <point x="195" y="109"/>
      <point x="195" y="188" type="curve" smooth="yes"/>
      <point x="195" y="215"/>
      <point x="198" y="246"/>
      <point x="204" y="278" type="curve" smooth="yes"/>
      <point x="289" y="739" type="line"/>
    </contour>
    <contour>
      <point x="406" y="848" type="line"/>
      <point x="430" y="792" type="line"/>
      <point x="644" y="906" type="line"/>
      <point x="620" y="964" type="line"/>
    </contour>
  </outline>
</glyph>
<glyph name="Yacute" format="1">
  <advance width="592"/>
  <unicode hex="00DD"/>
  <outline>
    <contour>
      <point x="258" y="0" type="line"/>
      <point x="332" y="0" type="line"/>
      <point x="378" y="247" type="line"/>
      <point x="727" y="739" type="line"/>
      <point x="646" y="739" type="line"/>
      <point x="354" y="325" type="line"/>
      <point x="221" y="739" type="line"/>
      <point x="139" y="739" type="line"/>
      <point x="304" y="247" type="line"/>
    </contour>
    <contour>
      <point x="367" y="848" type="line"/>
      <point x="391" y="792" type="line"/>
      <point x="605" y="906" type="line"/>
      <point x="581" y="964" type="line"/>
    </contour>
  </outline>
</glyph>
<glyph name="Thorn" format="1">
  <advance width="592"/>
  <unicode hex="00DE"/>
  <outline>
    <contour>
      <point x="260" y="592" type="line"/>
      <point x="287" y="739" type="line"/>
      <point x="213" y="739" type="line"/>
      <point x="76" y="0" type="line"/>
      <point x="150" y="0" type="line"/>
      <point x="178" y="152" type="line"/>
      <point x="319" y="152" type="line" smooth="yes"/>
      <point x="440" y="152"/>
      <point x="507" y="172"/>
      <point x="559" y="224" type="curve" smooth="yes"/>
      <point x="608" y="273"/>
      <point x="637" y="349"/>
      <point x="637" y="425" type="curve" smooth="yes"/>
      <point x="637" y="543"/>
      <point x="564" y="592"/>
      <point x="390" y="592" type="curve" smooth="yes"/>
    </contour>
    <contour>
      <point x="190" y="219" type="line"/>
      <point x="247" y="525" type="line"/>
      <point x="352" y="525" type="line" smooth="yes"/>
      <point x="439" y="525"/>
      <point x="487" y="519"/>
      <point x="513" y="503" type="curve" smooth="yes"/>
      <point x="543" y="485"/>
      <point x="560" y="452"/>
      <point x="560" y="411" type="curve" smooth="yes"/>
      <point x="560" y="360"/>
      <point x="540" y="305"/>
      <point x="509" y="272" type="curve" smooth="yes"/>
      <point x="473" y="234"/>
      <point x="423" y="219"/>
      <point x="327" y="219" type="curve" smooth="yes"/>
    </contour>
  </outline>
</glyph>
<glyph name="germandbls" format="1">
  <advance width="554"/>
  <unicode hex="00DF"/>
  <outline>
    <contour>
      <point x="59" y="0" type="line"/>
      <point x="133" y="0" type="line"/>
      <point x="153" y="109" type="line"/>
      <point x="165" y="70"/>
      <point x="175" y="52"/>
      <point x="195" y="32" type="curve" smooth="yes"/>
      <point x="223" y="3"/>
      <point x="268" y="-13"/>
      <point x="318" y="-13" type="curve" smooth="yes"/>
      <point x="452" y="-13"/>
      <point x="565" y="105"/>
      <point x="565" y="245" type="curve" smooth="yes"/>
      <point x="565" y="316"/>
      <point x="530" y="365"/>
      <point x="461" y="389" type="curve"/>
      <point x="537" y="433"/>
      <point x="576" y="500"/>
      <point x="576" y="588" type="curve" smooth="yes"/>
      <point x="576" y="685"/>
      <point x="505" y="752"/>
      <point x="403" y="752" type="curve" smooth="yes"/>
      <point x="330" y="752"/>
      <point x="261" y="719"/>
      <point x="218" y="664" type="curve" smooth="yes"/>
      <point x="185" y="621"/>
      <point x="164" y="565"/>
      <point x="148" y="481" type="curve" smooth="yes"/>
    </contour>
    <contour>
      <point x="171" y="203" type="line"/>
      <point x="222" y="481" type="line" smooth="yes"/>
      <point x="235" y="550"/>
      <point x="248" y="587"/>
      <point x="271" y="621" type="curve" smooth="yes"/>
      <point x="297" y="660"/>
      <point x="343" y="684"/>
      <point x="390" y="684" type="curve" smooth="yes"/>
      <point x="456" y="684"/>
      <point x="499" y="640"/>
      <point x="499" y="574" type="curve" smooth="yes"/>
      <point x="499" y="538"/>
      <point x="482" y="495"/>
      <point x="457" y="466" type="curve" smooth="yes"/>
      <point x="425" y="430"/>
      <point x="372" y="408"/>
      <point x="315" y="408" type="curve" smooth="yes"/>
      <point x="310" y="408" type="line"/>
      <point x="300" y="408" type="line"/>
      <point x="287" y="341" type="line"/>
      <point x="309" y="343"/>
      <point x="319" y="343"/>
      <point x="330" y="343" type="curve" smooth="yes"/>
      <point x="430" y="343"/>
      <point x="488" y="301"/>
      <point x="488" y="230" type="curve" smooth="yes"/>
      <point x="488" y="137"/>
      <point x="413" y="55"/>
      <point x="328" y="55" type="curve" smooth="yes"/>
      <point x="263" y="55"/>
      <point x="218" y="103"/>
      <point x="218" y="172" type="curve" smooth="yes"/>
      <point x="218" y="181"/>
      <point x="219" y="188"/>
      <point x="222" y="203" type="curve"/>
    </contour>
  </outline>
</glyph>
<glyph name="atilde" format="1">
  <advance width="683"/>
  <unicode hex="00E3"/>
  <outline>
    <contour>
      <point x="721" y="547" type="line"/>
      <point x="647" y="547" type="line"/>
      <point x="629" y="450" type="line"/>
      <point x="609" y="489"/>
      <point x="595" y="506"/>
      <point x="568" y="524" type="curve" smooth="yes"/>
      <point x="532" y="548"/>
      <point x="486" y="560"/>
      <point x="434" y="560" type="curve" smooth="yes"/>
      <point x="248" y="560"/>
      <point x="88" y="401"/>
      <point x="88" y="216" type="curve" smooth="yes"/>
      <point x="88" y="79"/>
      <point x="186" y="-13"/>
      <point x="333" y="-13" type="curve" smooth="yes"/>
      <point x="426" y="-13"/>
      <point x="483" y="14"/>
      <point x="564" y="96" type="curve"/>
      <point x="546" y="0" type="line"/>
      <point x="620" y="0" type="line"/>
    </contour>
    <contour>
      <point x="427" y="492" type="curve" smooth="yes"/>
      <point x="527" y="492"/>
      <point x="601" y="419"/>
      <point x="601" y="319" type="curve" smooth="yes"/>
      <point x="601" y="181"/>
      <point x="481" y="55"/>
      <point x="348" y="55" type="curve" smooth="yes"/>
      <point x="239" y="55"/>
      <point x="165" y="128"/>
      <point x="165" y="235" type="curve" smooth="yes"/>
      <point x="165" y="371"/>
      <point x="288" y="492"/>
    </contour>
    <contour>
      <point x="610" y="734" type="line"/>
      <point x="586" y="708"/>
      <point x="564" y="696"/>
      <point x="539" y="696" type="curve" smooth="yes"/>
      <point x="529" y="696"/>
      <point x="522" y="698"/>
      <point x="503" y="707" type="curve" smooth="yes"/>
      <point x="485" y="715"/>
      <point x="485" y="715"/>
      <point x="467" y="724" type="curve" smooth="yes"/>
      <point x="454" y="730"/>
      <point x="443" y="733"/>
      <point x="434" y="733" type="curve" smooth="yes"/>
      <point x="409" y="733"/>
      <point x="376" y="714"/>
      <point x="345" y="682" type="curve"/>
      <point x="368" y="637" type="line"/>
      <point x="408" y="666"/>
      <point x="414" y="670"/>
      <point x="426" y="670" type="curve" smooth="yes"/>
      <point x="432" y="670"/>
      <point x="438" y="669"/>
      <point x="443" y="666" type="curve"/>
      <point x="487" y="645"/>
      <point x="520" y="633"/>
      <point x="539" y="633" type="curve" smooth="yes"/>
      <point x="572" y="633"/>
      <point x="605" y="652"/>
      <point x="631" y="688" type="curve"/>
    </contour>
  </outline>
</glyph>
<glyph name="adieresis" format="1">
  <advance width="683"/>
  <unicode hex="00E4"/>
  <outline>
    <contour>
      <point x="721" y="547" type="line"/>
      <point x="647" y="547" type="line"/>
      <point x="629" y="450" type="line"/>
      <point x="609" y="489"/>
      <point x="595" y="506"/>
      <point x="568" y="524" type="curve" smooth="yes"/>
      <point x="532" y="548"/>
      <point x="486" y="560"/>
      <point x="434" y="560" type="curve" smooth="yes"/>
      <point x="248" y="560"/>
      <point x="88" y="401"/>
      <point x="88" y="216" type="curve" smooth="yes"/>
      <point x="88" y="79"/>
      <point x="186" y="-13"/>
      <point x="333" y="-13" type="curve" smooth="yes"/>
      <point x="426" y="-13"/>
      <point x="483" y="14"/>
      <point x="564" y="96" type="curve"/>
      <point x="546" y="0" type="line"/>
      <point x="620" y="0" type="line"/>
    </contour>
    <contour>
      <point x="427" y="492" type="curve" smooth="yes"/>
      <point x="527" y="492"/>
      <point x="601" y="419"/>
      <point x="601" y="319" type="curve" smooth="yes"/>
      <point x="601" y="181"/>
      <point x="481" y="55"/>
      <point x="348" y="55" type="curve" smooth="yes"/>
      <point x="239" y="55"/>
      <point x="165" y="128"/>
      <point x="165" y="235" type="curve" smooth="yes"/>
      <point x="165" y="371"/>
      <point x="288" y="492"/>
    </contour>
    <contour>
      <point x="389" y="749" type="line"/>
      <point x="366" y="623" type="line"/>
      <point x="440" y="623" type="line"/>
      <point x="463" y="749" type="line"/>
    </contour>
    <contour>
      <point x="536" y="749" type="line"/>
      <point x="513" y="623" type="line"/>
      <point x="587" y="623" type="line"/>
      <point x="610" y="749" type="line"/>
    </contour>
  </outline>
</glyph>
<glyph name="aring" format="1">
  <advance width="683"/>
  <unicode hex="00E5"/>
  <outline>
    <contour>
      <point x="721" y="547" type="line"/>
      <point x="647" y="547" type="line"/>
      <point x="629" y="450" type="line"/>
      <point x="609" y="489"/>
      <point x="595" y="506"/>
      <point x="568" y="524" type="curve" smooth="yes"/>
      <point x="532" y="548"/>
      <point x="486" y="560"/>
      <point x="434" y="560" type="curve" smooth="yes"/>
      <point x="248" y="560"/>
      <point x="88" y="401"/>
      <point x="88" y="216" type="curve" smooth="yes"/>
      <point x="88" y="79"/>
      <point x="186" y="-13"/>
      <point x="333" y="-13" type="curve" smooth="yes"/>
      <point x="426" y="-13"/>
      <point x="483" y="14"/>
      <point x="564" y="96" type="curve"/>
      <point x="546" y="0" type="line"/>
      <point x="620" y="0" type="line"/>
    </contour>
    <contour>
      <point x="427" y="492" type="curve" smooth="yes"/>
      <point x="527" y="492"/>
      <point x="601" y="419"/>
      <point x="601" y="319" type="curve" smooth="yes"/>
      <point x="601" y="181"/>
      <point x="481" y="55"/>
      <point x="348" y="55" type="curve" smooth="yes"/>
      <point x="239" y="55"/>
      <point x="165" y="128"/>
      <point x="165" y="235" type="curve" smooth="yes"/>
      <point x="165" y="371"/>
      <point x="288" y="492"/>
    </contour>
    <contour>
      <point x="507" y="790" type="curve" smooth="yes"/>
      <point x="448" y="790"/>
      <point x="398" y="738"/>
      <point x="398" y="678" type="curve" smooth="yes"/>
      <point x="398" y="636"/>
      <point x="430" y="606"/>
      <point x="474" y="606" type="curve" smooth="yes"/>
      <point x="530" y="606"/>
      <point x="585" y="658"/>
      <point x="585" y="711" type="curve" smooth="yes"/>
      <point x="585" y="758"/>
      <point x="554" y="790"/>
    </contour>
    <contour>
      <point x="500" y="750" type="curve" smooth="yes"/>
      <point x="526" y="750"/>
      <point x="547" y="730"/>
      <point x="547" y="706" type="curve" smooth="yes"/>
      <point x="547" y="677"/>
      <point x="513" y="646"/>
      <point x="481" y="646" type="curve" smooth="yes"/>
      <point x="455" y="646"/>
      <point x="436" y="664"/>
      <point x="436" y="688" type="curve" smooth="yes"/>
      <point x="436" y="720"/>
      <point x="468" y="750"/>
    </contour>
  </outline>
</glyph>
<glyph name="ae" format="1">
  <advance width="1157"/>
  <unicode hex="00E6"/>
  <outline>
    <contour>
      <point x="1162" y="247" type="line"/>
      <point x="1170" y="284"/>
      <point x="1172" y="303"/>
      <point x="1172" y="333" type="curve" smooth="yes"/>
      <point x="1172" y="467"/>
      <point x="1075" y="560"/>
      <point x="936" y="560" type="curve" smooth="yes"/>
      <point x="849" y="560"/>
      <point x="771" y="524"/>
      <point x="701" y="452" type="curve"/>
      <point x="719" y="547" type="line"/>
      <point x="648" y="547" type="line"/>
      <point x="630" y="452" type="line"/>
      <point x="594" y="524"/>
      <point x="528" y="560"/>
      <point x="432" y="560" type="curve" smooth="yes"/>
      <point x="331" y="560"/>
      <point x="241" y="517"/>
      <point x="175" y="439" type="curve" smooth="yes"/>
      <point x="119" y="373"/>
      <point x="88" y="294"/>
      <point x="88" y="219" type="curve" smooth="yes"/>
      <point x="88" y="80"/>
      <point x="185" y="-13"/>
      <point x="330" y="-13" type="curve" smooth="yes"/>
      <point x="418" y="-13"/>
      <point x="493" y="20"/>
      <point x="563" y="92" type="curve"/>
      <point x="546" y="0" type="line"/>
      <point x="617" y="0" type="line"/>
      <point x="634" y="92" type="line"/>
      <point x="682" y="22"/>
      <point x="748" y="-13"/>
      <point x="834" y="-13" type="curve" smooth="yes"/>
      <point x="906" y="-13"/>
      <point x="971" y="10"/>
      <point x="1035" y="59" type="curve" smooth="yes"/>
      <point x="1084" y="96"/>
      <point x="1116" y="134"/>
      <point x="1136" y="178" type="curve"/>
      <point x="1059" y="178" type="line"/>
      <point x="1018" y="105"/>
      <point x="931" y="55"/>
      <point x="848" y="55" type="curve" smooth="yes"/>
      <point x="745" y="55"/>
      <point x="666" y="129"/>
      <point x="666" y="225" type="curve" smooth="yes"/>
      <point x="666" y="230"/>
      <point x="666" y="237"/>
      <point x="667" y="247" type="curve"/>
    </contour>
    <contour>
      <point x="683" y="314" type="line"/>
      <point x="715" y="416"/>
      <point x="818" y="492"/>
      <point x="926" y="492" type="curve" smooth="yes"/>
      <point x="1032" y="492"/>
      <point x="1101" y="423"/>
      <point x="1103" y="314" type="curve"/>
    </contour>
    <contour>
      <point x="426" y="492" type="curve" smooth="yes"/>
      <point x="532" y="492"/>
      <point x="604" y="422"/>
      <point x="604" y="319" type="curve" smooth="yes"/>
      <point x="604" y="179"/>
      <point x="481" y="55"/>
      <point x="342" y="55" type="curve" smooth="yes"/>
      <point x="239" y="55"/>
      <point x="165" y="128"/>
      <point x="165" y="231" type="curve" smooth="yes"/>
      <point x="165" y="285"/>
      <point x="186" y="343"/>
      <point x="222" y="391" type="curve" smooth="yes"/>
      <point x="271" y="456"/>
      <point x="343" y="492"/>
    </contour>
  </outline>
</glyph>
<glyph name="ccedilla" format="1">
  <advance width="647"/>
  <unicode hex="00E7"/>
  <outline>
    <contour>
      <point x="324" y="-12" type="line"/>
      <point x="335" y="-13"/>
      <point x="342" y="-13"/>
      <point x="348" y="-13" type="curve" smooth="yes"/>
      <point x="404" y="-13"/>
      <point x="478" y="12"/>
      <point x="533" y="49" type="curve" smooth="yes"/>
      <point x="571" y="76"/>
      <point x="595" y="101"/>
      <point x="639" y="161" type="curve"/>
      <point x="556" y="161" type="line"/>
      <point x="519" y="124"/>
      <point x="503" y="109"/>
      <point x="485" y="97" type="curve" smooth="yes"/>
      <point x="445" y="70"/>
      <point x="397" y="55"/>
      <point x="348" y="55" type="curve" smooth="yes"/>
      <point x="241" y="55"/>
      <point x="165" y="129"/>
      <point x="165" y="233" type="curve" smooth="yes"/>
      <point x="165" y="370"/>
      <point x="288" y="492"/>
      <point x="426" y="492" type="curve" smooth="yes"/>
      <point x="507" y="492"/>
      <point x="569" y="451"/>
      <point x="596" y="381" type="curve"/>
      <point x="679" y="381" type="line"/>
      <point x="655" y="492"/>
      <point x="563" y="560"/>
      <point x="438" y="560" type="curve" smooth="yes"/>
      <point x="254" y="560"/>
      <point x="88" y="400"/>
      <point x="88" y="222" type="curve" smooth="yes"/>
      <point x="88" y="98"/>
      <point x="166" y="9"/>
      <point x="290" y="-8" type="curve"/>
      <point x="239" y="-92" type="line"/>
      <point x="265" y="-109" type="line"/>
      <point x="282" y="-92"/>
      <point x="297" y="-85"/>
      <point x="315" y="-85" type="curve" smooth="yes"/>
      <point x="336" y="-85"/>
      <point x="352" y="-101"/>
      <point x="352" y="-123" type="curve" smooth="yes"/>
      <point x="352" y="-157"/>
      <point x="329" y="-181"/>
      <point x="297" y="-181" type="curve" smooth="yes"/>
      <point x="274" y="-181"/>
      <point x="263" y="-171"/>
      <point x="258" y="-148" type="curve"/>
      <point x="213" y="-153" type="line"/>
      <point x="215" y="-201"/>
      <point x="243" y="-227"/>
      <point x="291" y="-227" type="curve" smooth="yes"/>
      <point x="350" y="-227"/>
      <point x="395" y="-180"/>
      <point x="395" y="-116" type="curve" smooth="yes"/>
      <point x="395" y="-76"/>
      <point x="371" y="-52"/>
      <point x="331" y="-52" type="curve" smooth="yes"/>
      <point x="319" y="-52"/>
      <point x="312" y="-54"/>
      <point x="297" y="-60" type="curve"/>
    </contour>
  </outline>
</glyph>
<glyph name="igrave" format="1">
  <advance width="200"/>
  <unicode hex="00EC"/>
  <outline>
    <contour>
      <point x="63" y="0" type="line"/>
      <point x="137" y="0" type="line"/>
      <point x="238" y="547" type="line"/>
      <point x="164" y="547" type="line"/>
    </contour>
    <contour>
      <point x="158" y="778" type="line"/>
      <point x="118" y="726" type="line"/>
      <point x="300" y="610" type="line"/>
      <point x="339" y="661" type="line"/>
    </contour>
  </outline>
</glyph>
<glyph name="iacute" format="1">
  <advance width="200"/>
  <unicode hex="00ED"/>
  <outline>
    <contour>
      <point x="63" y="0" type="line"/>
      <point x="137" y="0" type="line"/>
      <point x="238" y="547" type="line"/>
      <point x="164" y="547" type="line"/>
    </contour>
    <contour>
      <point x="111" y="666" type="line"/>
      <point x="135" y="610" type="line"/>
      <point x="349" y="724" type="line"/>
      <point x="325" y="782" type="line"/>
    </contour>
  </outline>
</glyph>
<glyph name="icircumflex" format="1">
  <advance width="200"/>
  <unicode hex="00EE"/>
  <outline>
    <contour>
      <point x="63" y="0" type="line"/>
      <point x="136" y="0" type="line"/>
      <point x="238" y="547" type="line"/>
      <point x="165" y="547" type="line"/>
    </contour>
    <contour>
      <point x="37" y="623" type="line"/>
      <point x="128" y="623" type="line"/>
      <point x="230" y="697" type="line"/>
      <point x="302" y="623" type="line"/>
      <point x="391" y="623" type="line"/>
      <point x="271" y="749" type="line"/>
      <point x="205" y="749" type="line"/>
    </contour>
  </outline>
</glyph>
<glyph name="idieresis" format="1">
  <advance width="200"/>
  <unicode hex="00EF"/>
  <outline>
    <contour>
      <point x="63" y="0" type="line"/>
      <point x="136" y="0" type="line"/>
      <point x="237" y="547" type="line"/>
      <point x="164" y="547" type="line"/>
    </contour>
    <contour>
      <point x="127" y="749" type="line"/>
      <point x="104" y="623" type="line"/>
      <point x="178" y="623" type="line"/>
      <point x="201" y="749" type="line"/>
    </contour>
    <contour>
      <point x="274" y="749" type="line"/>
      <point x="251" y="623" type="line"/>
      <point x="325" y="623" type="line"/>
      <point x="348" y="749" type="line"/>
    </contour>
  </outline>
</glyph>
<glyph name="eth" format="1">
  <advance width="655"/>
  <unicode hex="00F0"/>
  <outline>
    <contour>
      <point x="356" y="719" type="line"/>
      <point x="402" y="674" type="line"/>
      <point x="316" y="637" type="line"/>
      <point x="344" y="592" type="line"/>
      <point x="439" y="632" type="line"/>
      <point x="513" y="540" type="line"/>
      <point x="474" y="554"/>
      <point x="455" y="557"/>
      <point x="422" y="557" type="curve" smooth="yes"/>
      <point x="244" y="557"/>
      <point x="87" y="399"/>
      <point x="87" y="220" type="curve" smooth="yes"/>
      <point x="87" y="79"/>
      <point x="184" y="-13"/>
      <point x="332" y="-13" type="curve" smooth="yes"/>
      <point x="521" y="-13"/>
      <point x="673" y="147"/>
      <point x="673" y="346" type="curve" smooth="yes"/>
      <point x="673" y="417"/>
      <point x="653" y="470"/>
      <point x="598" y="548" type="curve" smooth="yes"/>
      <point x="563" y="596"/>
      <point x="542" y="621"/>
      <point x="505" y="659" type="curve"/>
      <point x="598" y="696" type="line"/>
      <point x="569" y="741" type="line"/>
      <point x="469" y="701" type="line"/>
      <point x="463" y="707"/>
      <point x="456" y="713"/>
      <point x="451" y="719" type="curve"/>
      <point x="429" y="742"/>
      <point x="427" y="743"/>
      <point x="411" y="756" type="curve"/>
    </contour>
    <contour>
      <point x="425" y="492" type="curve" smooth="yes"/>
      <point x="526" y="492"/>
      <point x="596" y="421"/>
      <point x="596" y="319" type="curve" smooth="yes"/>
      <point x="596" y="174"/>
      <point x="483" y="55"/>
      <point x="345" y="55" type="curve" smooth="yes"/>
      <point x="235" y="55"/>
      <point x="164" y="124"/>
      <point x="164" y="229" type="curve" smooth="yes"/>
      <point x="164" y="372"/>
      <point x="283" y="492"/>
    </contour>
  </outline>
</glyph>
<glyph name="ntilde" format="1">
  <advance width="610"/>
  <unicode hex="00F1"/>
  <outline>
    <contour>
      <point x="63" y="0" type="line"/>
      <point x="137" y="0" type="line"/>
      <point x="193" y="301" type="line" smooth="yes"/>
      <point x="205" y="364"/>
      <point x="217" y="394"/>
      <point x="244" y="425" type="curve" smooth="yes"/>
      <point x="280" y="466"/>
      <point x="338" y="492"/>
      <point x="393" y="492" type="curve" smooth="yes"/>
      <point x="478" y="492"/>
      <point x="532" y="441"/>
      <point x="532" y="361" type="curve" smooth="yes"/>
      <point x="532" y="341"/>
      <point x="529" y="315"/>
      <point x="524" y="287" type="curve" smooth="yes"/>
      <point x="471" y="0" type="line"/>
      <point x="545" y="0" type="line"/>
      <point x="598" y="287" type="line" smooth="yes"/>
      <point x="607" y="334"/>
      <point x="609" y="353"/>
      <point x="609" y="379" type="curve" smooth="yes"/>
      <point x="609" y="489"/>
      <point x="533" y="560"/>
      <point x="413" y="560" type="curve" smooth="yes"/>
      <point x="345" y="560"/>
      <point x="284" y="533"/>
      <point x="225" y="476" type="curve"/>
      <point x="238" y="547" type="line"/>
      <point x="164" y="547" type="line"/>
    </contour>
    <contour>
      <point x="538" y="734" type="line"/>
      <point x="514" y="708"/>
      <point x="492" y="696"/>
      <point x="467" y="696" type="curve" smooth="yes"/>
      <point x="457" y="696"/>
      <point x="450" y="698"/>
      <point x="431" y="707" type="curve" smooth="yes"/>
      <point x="413" y="715"/>
      <point x="413" y="715"/>
      <point x="395" y="724" type="curve" smooth="yes"/>
      <point x="382" y="730"/>
      <point x="371" y="733"/>
      <point x="362" y="733" type="curve" smooth="yes"/>
      <point x="337" y="733"/>
      <point x="304" y="714"/>
      <point x="273" y="682" type="curve"/>
      <point x="296" y="637" type="line"/>
      <point x="336" y="666"/>
      <point x="342" y="670"/>
      <point x="354" y="670" type="curve" smooth="yes"/>
      <point x="360" y="670"/>
      <point x="366" y="669"/>
      <point x="371" y="666" type="curve"/>
      <point x="415" y="645"/>
      <point x="448" y="633"/>
      <point x="467" y="633" type="curve" smooth="yes"/>
      <point x="500" y="633"/>
      <point x="533" y="652"/>
      <point x="559" y="688" type="curve"/>
    </contour>
  </outline>
</glyph>
<glyph name="ocircumflex" format="1">
  <advance width="655"/>
  <unicode hex="00F4"/>
  <outline>
    <contour>
      <point x="435" y="560" type="curve" smooth="yes"/>
      <point x="337" y="560"/>
      <point x="249" y="521"/>
      <point x="180" y="447" type="curve" smooth="yes"/>
      <point x="122" y="384"/>
      <point x="87" y="298"/>
      <point x="87" y="215" type="curve" smooth="yes"/>
      <point x="87" y="80"/>
      <point x="188" y="-13"/>
      <point x="333" y="-13" type="curve" smooth="yes"/>
      <point x="425" y="-13"/>
      <point x="505" y="23"/>
      <point x="573" y="95" type="curve" smooth="yes"/>
      <point x="634" y="159"/>
      <point x="669" y="246"/>
      <point x="669" y="332" type="curve" smooth="yes"/>
      <point x="669" y="468"/>
      <point x="574" y="560"/>
    </contour>
    <contour>
      <point x="422" y="492" type="curve" smooth="yes"/>
      <point x="520" y="492"/>
      <point x="592" y="422"/>
      <point x="592" y="325" type="curve" smooth="yes"/>
      <point x="592" y="174"/>
      <point x="482" y="55"/>
      <point x="343" y="55" type="curve" smooth="yes"/>
      <point x="236" y="55"/>
      <point x="164" y="125"/>
      <point x="164" y="228" type="curve" smooth="yes"/>
      <point x="164" y="371"/>
      <point x="282" y="492"/>
    </contour>
    <contour>
      <point x="271" y="623" type="line"/>
      <point x="362" y="623" type="line"/>
      <point x="464" y="697" type="line"/>
      <point x="536" y="623" type="line"/>
      <point x="625" y="623" type="line"/>
      <point x="505" y="749" type="line"/>
      <point x="439" y="749" type="line"/>
    </contour>
  </outline>
</glyph>
<glyph name="otilde" format="1">
  <advance width="655"/>
  <unicode hex="00F5"/>
  <outline>
    <contour>
      <point x="435" y="560" type="curve" smooth="yes"/>
      <point x="337" y="560"/>
      <point x="249" y="521"/>
      <point x="180" y="447" type="curve" smooth="yes"/>
      <point x="122" y="384"/>
      <point x="87" y="298"/>
      <point x="87" y="215" type="curve" smooth="yes"/>
      <point x="87" y="80"/>
      <point x="188" y="-13"/>
      <point x="333" y="-13" type="curve" smooth="yes"/>
      <point x="425" y="-13"/>
      <point x="505" y="23"/>
      <point x="573" y="95" type="curve" smooth="yes"/>
      <point x="634" y="159"/>
      <point x="669" y="246"/>
      <point x="669" y="332" type="curve" smooth="yes"/>
      <point x="669" y="468"/>
      <point x="574" y="560"/>
    </contour>
    <contour>
      <point x="422" y="492" type="curve" smooth="yes"/>
      <point x="520" y="492"/>
      <point x="592" y="422"/>
      <point x="592" y="325" type="curve" smooth="yes"/>
      <point x="592" y="174"/>
      <point x="482" y="55"/>
      <point x="343" y="55" type="curve" smooth="yes"/>
      <point x="236" y="55"/>
      <point x="164" y="125"/>
      <point x="164" y="228" type="curve" smooth="yes"/>
      <point x="164" y="371"/>
      <point x="282" y="492"/>
    </contour>
    <contour>
      <point x="583" y="734" type="line"/>
      <point x="559" y="708"/>
      <point x="537" y="696"/>
      <point x="512" y="696" type="curve" smooth="yes"/>
      <point x="502" y="696"/>
      <point x="495" y="698"/>
      <point x="476" y="707" type="curve" smooth="yes"/>
      <point x="458" y="715"/>
      <point x="458" y="715"/>
      <point x="440" y="724" type="curve" smooth="yes"/>
      <point x="427" y="730"/>
      <point x="416" y="733"/>
      <point x="407" y="733" type="curve" smooth="yes"/>
      <point x="382" y="733"/>
      <point x="349" y="714"/>
      <point x="318" y="682" type="curve"/>
      <point x="341" y="637" type="line"/>
      <point x="381" y="666"/>
      <point x="387" y="670"/>
      <point x="399" y="670" type="curve" smooth="yes"/>
      <point x="405" y="670"/>
      <point x="411" y="669"/>
      <point x="416" y="666" type="curve"/>
      <point x="460" y="645"/>
      <point x="493" y="633"/>
      <point x="512" y="633" type="curve" smooth="yes"/>
      <point x="545" y="633"/>
      <point x="578" y="652"/>
      <point x="604" y="688" type="curve"/>
    </contour>
  </outline>
</glyph>
<glyph name="divide" format="1">
  <advance width="606"/>
  <unicode hex="00F7"/>
  <outline>
    <contour>
      <point x="422" y="409" type="line"/>
      <point x="438" y="496" type="line"/>
      <point x="351" y="496" type="line"/>
      <point x="335" y="409" type="line"/>
    </contour>
    <contour>
      <point x="367" y="112" type="line"/>
      <point x="383" y="199" type="line"/>
      <point x="296" y="199" type="line"/>
      <point x="280" y="112" type="line"/>
    </contour>
    <contour>
      <point x="618" y="341" type="line"/>
      <point x="114" y="341" type="line"/>
      <point x="100" y="267" type="line"/>
      <point x="604" y="267" type="line"/>
    </contour>
  </outline>
</glyph>
<glyph name="oslash" format="1">
  <advance width="653"/>
  <unicode hex="00F8"/>
  <outline>
    <contour>
      <point x="76" y="2" type="line"/>
      <point x="121" y="-38" type="line"/>
      <point x="184" y="28" type="line"/>
      <point x="227" y="0"/>
      <point x="273" y="-13"/>
      <point x="329" y="-13" type="curve" smooth="yes"/>
      <point x="514" y="-13"/>
      <point x="669" y="148"/>
      <point x="669" y="340" type="curve" smooth="yes"/>
      <point x="669" y="398"/>
      <point x="654" y="439"/>
      <point x="617" y="478" type="curve"/>
      <point x="687" y="551" type="line"/>
      <point x="641" y="593" type="line"/>
      <point x="571" y="519" type="line"/>
      <point x="533" y="546"/>
      <point x="486" y="560"/>
      <point x="430" y="560" type="curve" smooth="yes"/>
      <point x="342" y="560"/>
      <point x="255" y="520"/>
      <point x="185" y="447" type="curve" smooth="yes"/>
      <point x="123" y="384"/>
      <point x="89" y="300"/>
      <point x="89" y="214" type="curve" smooth="yes"/>
      <point x="89" y="159"/>
      <point x="101" y="123"/>
      <point x="138" y="68" type="curve"/>
    </contour>
    <contour>
      <point x="189" y="121" type="line"/>
      <point x="175" y="151"/>
      <point x="166" y="190"/>
      <point x="166" y="225" type="curve" smooth="yes"/>
      <point x="166" y="275"/>
      <point x="190" y="341"/>
      <point x="225" y="388" type="curve" smooth="yes"/>
      <point x="276" y="454"/>
      <point x="348" y="492"/>
      <point x="425" y="492" type="curve" smooth="yes"/>
      <point x="460" y="492"/>
      <point x="489" y="485"/>
      <point x="521" y="468" type="curve"/>
    </contour>
    <contour>
      <point x="567" y="426" type="line"/>
      <point x="586" y="392"/>
      <point x="592" y="371"/>
      <point x="592" y="336" type="curve" smooth="yes"/>
      <point x="592" y="176"/>
      <point x="479" y="55"/>
      <point x="329" y="55" type="curve" smooth="yes"/>
      <point x="295" y="55"/>
      <point x="283" y="58"/>
      <point x="245" y="74" type="curve"/>
      <point x="243" y="75"/>
      <point x="238" y="77"/>
      <point x="233" y="79" type="curve"/>
    </contour>
  </outline>
</glyph>
<glyph name="udieresis" format="1">
  <advance width="608"/>
  <unicode hex="00FC"/>
  <outline>
    <contour>
      <point x="646" y="547" type="line"/>
      <point x="572" y="547" type="line"/>
      <point x="519" y="266" type="line" smooth="yes"/>
      <point x="505" y="194"/>
      <point x="490" y="157"/>
      <point x="459" y="123" type="curve" smooth="yes"/>
      <point x="419" y="79"/>
      <point x="366" y="55"/>
      <point x="310" y="55" type="curve" smooth="yes"/>
      <point x="261" y="55"/>
      <point x="216" y="74"/>
      <point x="197" y="103" type="curve" smooth="yes"/>
      <point x="185" y="122"/>
      <point x="176" y="156"/>
      <point x="176" y="185" type="curve" smooth="yes"/>
      <point x="176" y="200"/>
      <point x="180" y="239"/>
      <point x="182" y="252" type="curve" smooth="yes"/>
      <point x="237" y="547" type="line"/>
      <point x="163" y="547" type="line"/>
      <point x="108" y="252" type="line" smooth="yes"/>
      <point x="103" y="224"/>
      <point x="99" y="183"/>
      <point x="99" y="155" type="curve" smooth="yes"/>
      <point x="99" y="53"/>
      <point x="174" y="-13"/>
      <point x="290" y="-13" type="curve" smooth="yes"/>
      <point x="377" y="-13"/>
      <point x="433" y="15"/>
      <point x="486" y="85" type="curve"/>
      <point x="470" y="0" type="line"/>
      <point x="544" y="0" type="line"/>
    </contour>
    <contour>
      <point x="327" y="749" type="line"/>
      <point x="304" y="623" type="line"/>
      <point x="378" y="623" type="line"/>
      <point x="401" y="749" type="line"/>
    </contour>
    <contour>
      <point x="474" y="749" type="line"/>
      <point x="451" y="623" type="line"/>
      <point x="525" y="623" type="line"/>
      <point x="548" y="749" type="line"/>
    </contour>
  </outline>
</glyph>
<glyph name="yacute" format="1">
  <advance width="536"/>
  <unicode hex="00FD"/>
  <outline>
    <contour>
      <point x="97" y="-192" type="line"/>
      <point x="175" y="-192" type="line"/>
      <point x="628" y="547" type="line"/>
      <point x="549" y="547" type="line"/>
      <point x="283" y="111" type="line"/>
      <point x="191" y="547" type="line"/>
      <point x="110" y="547" type="line"/>
      <point x="224" y="18" type="line"/>
    </contour>
    <contour>
      <point x="279" y="666" type="line"/>
      <point x="303" y="610" type="line"/>
      <point x="517" y="724" type="line"/>
      <point x="493" y="782" type="line"/>
    </contour>
  </outline>
</glyph>
<glyph name="thorn" format="1">
  <advance width="682"/>
  <unicode hex="00FE"/>
  <outline>
    <contour>
      <point x="200" y="739" type="line"/>
      <point x="27" y="-192" type="line"/>
      <point x="101" y="-192" type="line"/>
      <point x="154" y="94" type="line"/>
      <point x="191" y="23"/>
      <point x="257" y="-13"/>
      <point x="350" y="-13" type="curve" smooth="yes"/>
      <point x="531" y="-13"/>
      <point x="695" y="148"/>
      <point x="695" y="325" type="curve" smooth="yes"/>
      <point x="695" y="465"/>
      <point x="599" y="560"/>
      <point x="455" y="560" type="curve" smooth="yes"/>
      <point x="361" y="560"/>
      <point x="271" y="519"/>
      <point x="221" y="453" type="curve"/>
      <point x="274" y="739" type="line"/>
    </contour>
    <contour>
      <point x="438" y="492" type="curve" smooth="yes"/>
      <point x="543" y="492"/>
      <point x="618" y="419"/>
      <point x="618" y="317" type="curve" smooth="yes"/>
      <point x="618" y="261"/>
      <point x="592" y="192"/>
      <point x="555" y="150" type="curve" smooth="yes"/>
      <point x="502" y="89"/>
      <point x="431" y="55"/>
      <point x="355" y="55" type="curve" smooth="yes"/>
      <point x="253" y="55"/>
      <point x="177" y="129"/>
      <point x="177" y="227" type="curve" smooth="yes"/>
      <point x="177" y="286"/>
      <point x="197" y="344"/>
      <point x="232" y="387" type="curve" smooth="yes"/>
      <point x="285" y="453"/>
      <point x="363" y="492"/>
    </contour>
  </outline>
</glyph>
<glyph name="ydieresis" format="1">
  <advance width="536"/>
  <unicode hex="00FF"/>
  <outline>
    <contour>
      <point x="97" y="-192" type="line"/>
      <point x="175" y="-192" type="line"/>
      <point x="628" y="547" type="line"/>
      <point x="549" y="547" type="line"/>
      <point x="283" y="111" type="line"/>
      <point x="191" y="547" type="line"/>
      <point x="110" y="547" type="line"/>
      <point x="224" y="18" type="line"/>
    </contour>
    <contour>
      <point x="291" y="749" type="line"/>
      <point x="268" y="623" type="line"/>
      <point x="342" y="623" type="line"/>
      <point x="365" y="749" type="line"/>
    </contour>
    <contour>
      <point x="438" y="749" type="line"/>
      <point x="415" y="623" type="line"/>
      <point x="489" y="623" type="line"/>
      <point x="512" y="749" type="line"/>
    </contour>
  </outline>
</glyph>
<glyph name="Abreve" format="1">
  <advance width="740"/>
  <unicode hex="0102"/>
  <outline>
    <contour>
      <point x="11" y="0" type="line"/>
      <point x="89" y="0" type="line"/>
      <point x="243" y="249" type="line"/>
      <point x="587" y="249" type="line"/>
      <point x="648" y="0" type="line"/>
      <point x="729" y="0" type="line"/>
      <point x="548" y="739" type="line"/>
      <point x="465" y="739" type="line"/>
    </contour>
    <contour>
      <point x="284" y="316" type="line"/>
      <point x="491" y="655" type="line"/>
      <point x="571" y="316" type="line"/>
    </contour>
    <contour>
      <point x="384" y="925" type="line"/>
      <point x="386" y="882"/>
      <point x="394" y="862"/>
      <point x="413" y="843" type="curve" smooth="yes"/>
      <point x="437" y="820"/>
      <point x="471" y="809"/>
      <point x="516" y="809" type="curve" smooth="yes"/>
      <point x="559" y="809"/>
      <point x="594" y="818"/>
      <point x="624" y="837" type="curve" smooth="yes"/>
      <point x="658" y="859"/>
      <point x="675" y="882"/>
      <point x="688" y="925" type="curve"/>
      <point x="635" y="925" type="line"/>
      <point x="628" y="905"/>
      <point x="621" y="896"/>
      <point x="603" y="884" type="curve" smooth="yes"/>
      <point x="586" y="873"/>
      <point x="553" y="864"/>
      <point x="529" y="864" type="curve" smooth="yes"/>
      <point x="506" y="864"/>
      <point x="477" y="871"/>
      <point x="467" y="880" type="curve" smooth="yes"/>
      <point x="456" y="889"/>
      <point x="451" y="900"/>
      <point x="448" y="925" type="curve"/>
    </contour>
  </outline>
</glyph>
<glyph name="abreve" format="1">
  <advance width="683"/>
  <unicode hex="0103"/>
  <outline>
    <contour>
      <point x="721" y="547" type="line"/>
      <point x="647" y="547" type="line"/>
      <point x="629" y="450" type="line"/>
      <point x="609" y="489"/>
      <point x="595" y="506"/>
      <point x="568" y="524" type="curve" smooth="yes"/>
      <point x="532" y="548"/>
      <point x="486" y="560"/>
      <point x="434" y="560" type="curve" smooth="yes"/>
      <point x="248" y="560"/>
      <point x="88" y="401"/>
      <point x="88" y="216" type="curve" smooth="yes"/>
      <point x="88" y="79"/>
      <point x="186" y="-13"/>
      <point x="333" y="-13" type="curve" smooth="yes"/>
      <point x="426" y="-13"/>
      <point x="483" y="14"/>
      <point x="564" y="96" type="curve"/>
      <point x="546" y="0" type="line"/>
      <point x="620" y="0" type="line"/>
    </contour>
    <contour>
      <point x="427" y="492" type="curve" smooth="yes"/>
      <point x="527" y="492"/>
      <point x="601" y="419"/>
      <point x="601" y="319" type="curve" smooth="yes"/>
      <point x="601" y="181"/>
      <point x="481" y="55"/>
      <point x="348" y="55" type="curve" smooth="yes"/>
      <point x="239" y="55"/>
      <point x="165" y="128"/>
      <point x="165" y="235" type="curve" smooth="yes"/>
      <point x="165" y="371"/>
      <point x="288" y="492"/>
    </contour>
    <contour>
      <point x="322" y="743" type="line"/>
      <point x="324" y="700"/>
      <point x="332" y="679"/>
      <point x="351" y="660" type="curve" smooth="yes"/>
      <point x="375" y="637"/>
      <point x="408" y="626"/>
      <point x="454" y="626" type="curve" smooth="yes"/>
      <point x="497" y="626"/>
      <point x="532" y="635"/>
      <point x="562" y="654" type="curve" smooth="yes"/>
      <point x="596" y="676"/>
      <point x="613" y="699"/>
      <point x="626" y="743" type="curve"/>
      <point x="573" y="743" type="line"/>
      <point x="566" y="722"/>
      <point x="559" y="713"/>
      <point x="541" y="702" type="curve"/>
      <point x="524" y="690"/>
      <point x="491" y="681"/>
      <point x="467" y="681" type="curve" smooth="yes"/>
      <point x="444" y="681"/>
      <point x="415" y="688"/>
      <point x="405" y="697" type="curve" smooth="yes"/>
      <point x="393" y="707"/>
      <point x="389" y="718"/>
      <point x="386" y="743" type="curve"/>
    </contour>
  </outline>
</glyph>
<glyph name="Aogonek" format="1">
  <advance width="740"/>
  <unicode hex="0104"/>
  <outline>
    <contour>
      <point x="548" y="739" type="line"/>
      <point x="465" y="739" type="line"/>
      <point x="11" y="0" type="line"/>
      <point x="89" y="0" type="line"/>
      <point x="243" y="249" type="line"/>
      <point x="587" y="249" type="line"/>
      <point x="648" y="0" type="line"/>
      <point x="677" y="0" type="line"/>
      <point x="615" y="-32"/>
      <point x="583" y="-70"/>
      <point x="583" y="-112" type="curve" smooth="yes"/>
      <point x="583" y="-159"/>
      <point x="622" y="-195"/>
      <point x="673" y="-195" type="curve" smooth="yes"/>
      <point x="691" y="-195"/>
      <point x="705" y="-191"/>
      <point x="725" y="-182" type="curve"/>
      <point x="733" y="-137" type="line"/>
      <point x="720" y="-144"/>
      <point x="703" y="-148"/>
      <point x="685" y="-148" type="curve" smooth="yes"/>
      <point x="654" y="-148"/>
      <point x="634" y="-132"/>
      <point x="634" y="-108" type="curve" smooth="yes"/>
      <point x="634" y="-76"/>
      <point x="671" y="-34"/>
      <point x="729" y="0" type="curve"/>
    </contour>
    <contour>
      <point x="284" y="316" type="line"/>
      <point x="491" y="655" type="line"/>
      <point x="571" y="316" type="line"/>
    </contour>
  </outline>
</glyph>
<glyph name="aogonek" format="1">
  <advance width="683"/>
  <unicode hex="0105"/>
  <outline>
    <contour>
      <point x="721" y="547" type="line"/>
      <point x="647" y="547" type="line"/>
      <point x="629" y="450" type="line"/>
      <point x="609" y="489"/>
      <point x="595" y="506"/>
      <point x="568" y="524" type="curve" smooth="yes"/>
      <point x="532" y="548"/>
      <point x="486" y="560"/>
      <point x="434" y="560" type="curve" smooth="yes"/>
      <point x="248" y="560"/>
      <point x="88" y="401"/>
      <point x="88" y="216" type="curve" smooth="yes"/>
      <point x="88" y="79"/>
      <point x="186" y="-13"/>
      <point x="333" y="-13" type="curve" smooth="yes"/>
      <point x="426" y="-13"/>
      <point x="483" y="14"/>
      <point x="564" y="96" type="curve"/>
      <point x="546" y="0" type="line"/>
      <point x="568" y="0" type="line"/>
      <point x="506" y="-32"/>
      <point x="474" y="-70"/>
      <point x="474" y="-112" type="curve" smooth="yes"/>
      <point x="474" y="-159"/>
      <point x="513" y="-195"/>
      <point x="565" y="-195" type="curve" smooth="yes"/>
      <point x="581" y="-195"/>
      <point x="597" y="-191"/>
      <point x="616" y="-182" type="curve"/>
      <point x="624" y="-137" type="line"/>
      <point x="610" y="-144"/>
      <point x="594" y="-148"/>
      <point x="575" y="-148" type="curve" smooth="yes"/>
      <point x="545" y="-148"/>
      <point x="525" y="-132"/>
      <point x="525" y="-108" type="curve" smooth="yes"/>
      <point x="525" y="-76"/>
      <point x="561" y="-35"/>
      <point x="620" y="0" type="curve"/>
    </contour>
    <contour>
      <point x="427" y="492" type="curve" smooth="yes"/>
      <point x="527" y="492"/>
      <point x="601" y="419"/>
      <point x="601" y="319" type="curve" smooth="yes"/>
      <point x="601" y="181"/>
      <point x="481" y="55"/>
      <point x="348" y="55" type="curve" smooth="yes"/>
      <point x="239" y="55"/>
      <point x="165" y="128"/>
      <point x="165" y="235" type="curve" smooth="yes"/>
      <point x="165" y="371"/>
      <point x="288" y="492"/>
    </contour>
  </outline>
</glyph>
<glyph name="Dcaron" format="1">
  <advance width="744"/>
  <unicode hex="010E"/>
  <outline>
    <contour>
      <point x="76" y="0" type="line"/>
      <point x="275" y="0" type="line" smooth="yes"/>
      <point x="422" y="0"/>
      <point x="519" y="30"/>
      <point x="609" y="102" type="curve" smooth="yes"/>
      <point x="715" y="187"/>
      <point x="774" y="312"/>
      <point x="774" y="448" type="curve" smooth="yes"/>
      <point x="774" y="547"/>
      <point x="733" y="628"/>
      <point x="656" y="681" type="curve" smooth="yes"/>
      <point x="597" y="722"/>
      <point x="520" y="739"/>
      <point x="387" y="739" type="curve" smooth="yes"/>
      <point x="213" y="739" type="line"/>
    </contour>
    <contour>
      <point x="162" y="67" type="line"/>
      <point x="275" y="672" type="line"/>
      <point x="378" y="672" type="line" smooth="yes"/>
      <point x="486" y="672"/>
      <point x="556" y="657"/>
      <point x="604" y="625" type="curve" smooth="yes"/>
      <point x="664" y="584"/>
      <point x="697" y="517"/>
      <point x="697" y="435" type="curve" smooth="yes"/>
      <point x="697" y="336"/>
      <point x="653" y="231"/>
      <point x="582" y="165" type="curve" smooth="yes"/>
      <point x="506" y="94"/>
      <point x="420" y="67"/>
      <point x="265" y="67" type="curve" smooth="yes"/>
    </contour>
    <contour>
      <point x="686" y="931" type="line"/>
      <point x="595" y="931" type="line"/>
      <point x="493" y="857" type="line"/>
      <point x="421" y="931" type="line"/>
      <point x="332" y="931" type="line"/>
      <point x="452" y="805" type="line"/>
      <point x="518" y="805" type="line"/>
    </contour>
  </outline>
</glyph>
<glyph name="dcroat" format="1">
  <advance width="685"/>
  <unicode hex="0111"/>
  <outline>
    <contour>
      <point x="734" y="602" type="line"/>
      <point x="797" y="602" type="line"/>
      <point x="808" y="665" type="line"/>
      <point x="745" y="665" type="line"/>
      <point x="759" y="739" type="line"/>
      <point x="685" y="739" type="line"/>
      <point x="672" y="665" type="line"/>
      <point x="520" y="665" type="line"/>
      <point x="508" y="602" type="line"/>
      <point x="660" y="602" type="line"/>
      <point x="633" y="460" type="line"/>
      <point x="587" y="528"/>
      <point x="524" y="560"/>
      <point x="438" y="560" type="curve" smooth="yes"/>
      <point x="251" y="560"/>
      <point x="88" y="400"/>
      <point x="88" y="217" type="curve" smooth="yes"/>
      <point x="88" y="84"/>
      <point x="192" y="-13"/>
      <point x="335" y="-13" type="curve" smooth="yes"/>
      <point x="429" y="-13"/>
      <point x="495" y="19"/>
      <point x="566" y="99" type="curve"/>
      <point x="548" y="0" type="line"/>
      <point x="622" y="0" type="line"/>
    </contour>
    <contour>
      <point x="422" y="492" type="curve" smooth="yes"/>
      <point x="527" y="492"/>
      <point x="606" y="417"/>
      <point x="606" y="318" type="curve" smooth="yes"/>
      <point x="606" y="182"/>
      <point x="482" y="55"/>
      <point x="350" y="55" type="curve" smooth="yes"/>
      <point x="240" y="55"/>
      <point x="165" y="128"/>
      <point x="165" y="236" type="curve" smooth="yes"/>
      <point x="165" y="370"/>
      <point x="288" y="492"/>
    </contour>
  </outline>
</glyph>
<glyph name="Eogonek" format="1">
  <advance width="536"/>
  <unicode hex="0118"/>
  <outline>
    <contour>
      <point x="213" y="739" type="line"/>
      <point x="76" y="0" type="line"/>
      <point x="428" y="0" type="line"/>
      <point x="366" y="-32"/>
      <point x="334" y="-70"/>
      <point x="334" y="-112" type="curve" smooth="yes"/>
      <point x="334" y="-159"/>
      <point x="373" y="-195"/>
      <point x="424" y="-195" type="curve" smooth="yes"/>
      <point x="442" y="-195"/>
      <point x="456" y="-191"/>
      <point x="476" y="-182" type="curve"/>
      <point x="484" y="-137" type="line"/>
      <point x="471" y="-144"/>
      <point x="454" y="-148"/>
      <point x="436" y="-148" type="curve" smooth="yes"/>
      <point x="405" y="-148"/>
      <point x="385" y="-132"/>
      <point x="385" y="-108" type="curve" smooth="yes"/>
      <point x="385" y="-76"/>
      <point x="422" y="-34"/>
      <point x="480" y="0" type="curve"/>
      <point x="492" y="67" type="line"/>
      <point x="162" y="67" type="line"/>
      <point x="213" y="340" type="line"/>
      <point x="532" y="340" type="line"/>
      <point x="544" y="407" type="line"/>
      <point x="225" y="407" type="line"/>
      <point x="275" y="672" type="line"/>
      <point x="605" y="672" type="line"/>
      <point x="617" y="739" type="line"/>
    </contour>
  </outline>
</glyph>
<glyph name="eogonek" format="1">
  <advance width="650"/>
  <unicode hex="0119"/>
  <outline>
    <contour>
      <point x="656" y="249" type="line"/>
      <point x="663" y="289"/>
      <point x="665" y="308"/>
      <point x="665" y="332" type="curve" smooth="yes"/>
      <point x="665" y="466"/>
      <point x="567" y="560"/>
      <point x="428" y="560" type="curve" smooth="yes"/>
      <point x="248" y="560"/>
      <point x="88" y="400"/>
      <point x="88" y="220" type="curve" smooth="yes"/>
      <point x="88" y="85"/>
      <point x="188" y="-13"/>
      <point x="326" y="-13" type="curve" smooth="yes"/>
      <point x="352" y="-13"/>
      <point x="372" y="-10"/>
      <point x="401" y="-4" type="curve"/>
      <point x="344" y="-34"/>
      <point x="314" y="-72"/>
      <point x="314" y="-112" type="curve" smooth="yes"/>
      <point x="314" y="-159"/>
      <point x="353" y="-195"/>
      <point x="404" y="-195" type="curve" smooth="yes"/>
      <point x="421" y="-195"/>
      <point x="437" y="-191"/>
      <point x="456" y="-182" type="curve"/>
      <point x="464" y="-137" type="line"/>
      <point x="450" y="-144"/>
      <point x="433" y="-148"/>
      <point x="415" y="-148" type="curve" smooth="yes"/>
      <point x="385" y="-148"/>
      <point x="365" y="-132"/>
      <point x="365" y="-108" type="curve" smooth="yes"/>
      <point x="365" y="-75"/>
      <point x="402" y="-34"/>
      <point x="497" y="38" type="curve" smooth="yes"/>
      <point x="570" y="94"/>
      <point x="600" y="126"/>
      <point x="629" y="180" type="curve"/>
      <point x="552" y="180" type="line"/>
      <point x="509" y="107"/>
      <point x="420" y="55"/>
      <point x="338" y="55" type="curve" smooth="yes"/>
      <point x="238" y="55"/>
      <point x="159" y="128"/>
      <point x="159" y="221" type="curve" smooth="yes"/>
      <point x="159" y="228"/>
      <point x="160" y="237"/>
      <point x="161" y="249" type="curve"/>
    </contour>
    <contour>
      <point x="176" y="316" type="line"/>
      <point x="212" y="419"/>
      <point x="311" y="492"/>
      <point x="415" y="492" type="curve" smooth="yes"/>
      <point x="521" y="492"/>
      <point x="590" y="424"/>
      <point x="595" y="316" type="curve"/>
    </contour>
  </outline>
</glyph>
<glyph name="Ecaron" format="1">
  <advance width="536"/>
  <unicode hex="011A"/>
  <outline>
    <contour>
      <point x="76" y="0" type="line"/>
      <point x="480" y="0" type="line"/>
      <point x="492" y="67" type="line"/>
      <point x="162" y="67" type="line"/>
      <point x="213" y="340" type="line"/>
      <point x="532" y="340" type="line"/>
      <point x="544" y="407" type="line"/>
      <point x="225" y="407" type="line"/>
      <point x="275" y="672" type="line"/>
      <point x="605" y="672" type="line"/>
      <point x="617" y="739" type="line"/>
      <point x="213" y="739" type="line"/>
    </contour>
    <contour>
      <point x="622" y="931" type="line"/>
      <point x="531" y="931" type="line"/>
      <point x="429" y="857" type="line"/>
      <point x="357" y="931" type="line"/>
      <point x="268" y="931" type="line"/>
      <point x="388" y="805" type="line"/>
      <point x="454" y="805" type="line"/>
    </contour>
  </outline>
</glyph>
<glyph name="Gbreve" format="1">
  <advance width="872"/>
  <unicode hex="011E"/>
  <outline>
    <contour>
      <point x="391" y="341" type="line"/>
      <point x="379" y="274" type="line"/>
      <point x="793" y="274" type="line"/>
      <point x="729" y="142"/>
      <point x="595" y="55"/>
      <point x="455" y="55" type="curve" smooth="yes"/>
      <point x="375" y="55"/>
      <point x="298" y="85"/>
      <point x="249" y="136" type="curve" smooth="yes"/>
      <point x="205" y="182"/>
      <point x="184" y="239"/>
      <point x="184" y="312" type="curve" smooth="yes"/>
      <point x="184" y="512"/>
      <point x="363" y="684"/>
      <point x="572" y="684" type="curve" smooth="yes"/>
      <point x="683" y="684"/>
      <point x="772" y="629"/>
      <point x="803" y="542" type="curve"/>
      <point x="887" y="542" type="line"/>
      <point x="859" y="669"/>
      <point x="736" y="752"/>
      <point x="575" y="752" type="curve" smooth="yes"/>
      <point x="327" y="752"/>
      <point x="107" y="539"/>
      <point x="107" y="300" type="curve" smooth="yes"/>
      <point x="107" y="116"/>
      <point x="247" y="-13"/>
      <point x="446" y="-13" type="curve" smooth="yes"/>
      <point x="562" y="-13"/>
      <point x="666" y="30"/>
      <point x="755" y="112" type="curve" smooth="yes"/>
      <point x="826" y="179"/>
      <point x="873" y="257"/>
      <point x="894" y="341" type="curve"/>
    </contour>
    <contour>
      <point x="437" y="925" type="line"/>
      <point x="439" y="882"/>
      <point x="447" y="862"/>
      <point x="466" y="843" type="curve" smooth="yes"/>
      <point x="490" y="820"/>
      <point x="524" y="809"/>
      <point x="569" y="809" type="curve" smooth="yes"/>
      <point x="612" y="809"/>
      <point x="647" y="818"/>
      <point x="677" y="837" type="curve" smooth="yes"/>
      <point x="711" y="859"/>
      <point x="728" y="882"/>
      <point x="741" y="925" type="curve"/>
      <point x="688" y="925" type="line"/>
      <point x="681" y="905"/>
      <point x="674" y="896"/>
      <point x="656" y="884" type="curve" smooth="yes"/>
      <point x="639" y="873"/>
      <point x="606" y="864"/>
      <point x="582" y="864" type="curve" smooth="yes"/>
      <point x="559" y="864"/>
      <point x="530" y="871"/>
      <point x="520" y="880" type="curve" smooth="yes"/>
      <point x="509" y="889"/>
      <point x="504" y="900"/>
      <point x="501" y="925" type="curve"/>
    </contour>
  </outline>
</glyph>
<glyph name="Gcommaaccent" format="1">
  <advance width="872"/>
  <unicode hex="0122"/>
  <outline>
    <contour>
      <point x="391" y="341" type="line"/>
      <point x="379" y="274" type="line"/>
      <point x="793" y="274" type="line"/>
      <point x="729" y="142"/>
      <point x="595" y="55"/>
      <point x="455" y="55" type="curve" smooth="yes"/>
      <point x="375" y="55"/>
      <point x="298" y="85"/>
      <point x="249" y="136" type="curve" smooth="yes"/>
      <point x="205" y="182"/>
      <point x="184" y="239"/>
      <point x="184" y="312" type="curve" smooth="yes"/>
      <point x="184" y="512"/>
      <point x="363" y="684"/>
      <point x="572" y="684" type="curve" smooth="yes"/>
      <point x="683" y="684"/>
      <point x="772" y="629"/>
      <point x="803" y="542" type="curve"/>
      <point x="887" y="542" type="line"/>
      <point x="859" y="669"/>
      <point x="736" y="752"/>
      <point x="575" y="752" type="curve" smooth="yes"/>
      <point x="327" y="752"/>
      <point x="107" y="539"/>
      <point x="107" y="300" type="curve" smooth="yes"/>
      <point x="107" y="116"/>
      <point x="247" y="-13"/>
      <point x="446" y="-13" type="curve" smooth="yes"/>
      <point x="562" y="-13"/>
      <point x="666" y="30"/>
      <point x="755" y="112" type="curve" smooth="yes"/>
      <point x="826" y="179"/>
      <point x="873" y="257"/>
      <point x="894" y="341" type="curve"/>
    </contour>
    <contour>
      <point x="327" y="-232" type="line"/>
      <point x="398" y="-232" type="line"/>
      <point x="485" y="-53" type="line"/>
      <point x="411" y="-53" type="line"/>
    </contour>
  </outline>
</glyph>
<glyph name="gcommaaccent" format="1">
  <advance width="673"/>
  <unicode hex="0123"/>
  <outline>
    <contour>
      <point x="711" y="547" type="line"/>
      <point x="637" y="547" type="line"/>
      <point x="619" y="450" type="line"/>
      <point x="593" y="491"/>
      <point x="582" y="505"/>
      <point x="561" y="520" type="curve" smooth="yes"/>
      <point x="525" y="547"/>
      <point x="479" y="560"/>
      <point x="426" y="560" type="curve" smooth="yes"/>
      <point x="329" y="560"/>
      <point x="243" y="520"/>
      <point x="176" y="443" type="curve" smooth="yes"/>
      <point x="122" y="381"/>
      <point x="87" y="294"/>
      <point x="87" y="219" type="curve" smooth="yes"/>
      <point x="87" y="83"/>
      <point x="186" y="-13"/>
      <point x="325" y="-13" type="curve" smooth="yes"/>
      <point x="423" y="-13"/>
      <point x="503" y="30"/>
      <point x="556" y="111" type="curve"/>
      <point x="549" y="74" type="line" smooth="yes"/>
      <point x="539" y="20"/>
      <point x="526" y="-15"/>
      <point x="504" y="-48" type="curve" smooth="yes"/>
      <point x="462" y="-112"/>
      <point x="393" y="-147"/>
      <point x="309" y="-147" type="curve" smooth="yes"/>
      <point x="257" y="-147"/>
      <point x="216" y="-134"/>
      <point x="185" y="-107" type="curve" smooth="yes"/>
      <point x="163" y="-88"/>
      <point x="156" y="-77"/>
      <point x="137" y="-29" type="curve"/>
      <point x="136" y="-27"/>
      <point x="135" y="-24"/>
      <point x="132" y="-17" type="curve"/>
      <point x="60" y="-17" type="line"/>
      <point x="69" y="-71"/>
      <point x="78" y="-99"/>
      <point x="96" y="-124" type="curve" smooth="yes"/>
      <point x="139" y="-184"/>
      <point x="207" y="-215"/>
      <point x="295" y="-215" type="curve" smooth="yes"/>
      <point x="392" y="-215"/>
      <point x="478" y="-180"/>
      <point x="537" y="-117" type="curve" smooth="yes"/>
      <point x="586" y="-65"/>
      <point x="605" y="-18"/>
      <point x="627" y="98" type="curve" smooth="yes"/>
    </contour>
    <contour>
      <point x="415" y="492" type="curve" smooth="yes"/>
      <point x="517" y="492"/>
      <point x="592" y="421"/>
      <point x="592" y="325" type="curve" smooth="yes"/>
      <point x="592" y="273"/>
      <point x="574" y="217"/>
      <point x="542" y="169" type="curve" smooth="yes"/>
      <point x="492" y="95"/>
      <point x="419" y="55"/>
      <point x="337" y="55" type="curve" smooth="yes"/>
      <point x="276" y="55"/>
      <point x="225" y="79"/>
      <point x="198" y="119" type="curve" smooth="yes"/>
      <point x="177" y="150"/>
      <point x="164" y="196"/>
      <point x="164" y="236" type="curve" smooth="yes"/>
      <point x="164" y="288"/>
      <point x="186" y="348"/>
      <point x="220" y="392" type="curve" smooth="yes"/>
      <point x="271" y="458"/>
      <point x="338" y="492"/>
    </contour>
    <contour>
      <point x="572" y="792" type="line"/>
      <point x="501" y="792" type="line"/>
      <point x="414" y="613" type="line"/>
      <point x="488" y="613" type="line"/>
    </contour>
  </outline>
</glyph>
<glyph name="Imacron" format="1">
  <advance width="226"/>
  <unicode hex="012A"/>
  <outline>
    <contour>
      <point x="76" y="0" type="line"/>
      <point x="150" y="0" type="line"/>
      <point x="287" y="739" type="line"/>
      <point x="213" y="739" type="line"/>
    </contour>
    <contour>
      <point x="100" y="895" type="line"/>
      <point x="88" y="833" type="line"/>
      <point x="425" y="833" type="line"/>
      <point x="437" y="895" type="line"/>
    </contour>
  </outline>
</glyph>
<glyph name="imacron" format="1">
  <advance width="200"/>
  <unicode hex="012B"/>
  <outline>
    <contour>
      <point x="64" y="0" type="line"/>
      <point x="138" y="0" type="line"/>
      <point x="239" y="547" type="line"/>
      <point x="165" y="547" type="line"/>
    </contour>
    <contour>
      <point x="58" y="713" type="line"/>
      <point x="46" y="651" type="line"/>
      <point x="383" y="651" type="line"/>
      <point x="395" y="713" type="line"/>
    </contour>
  </outline>
</glyph>
<glyph name="Iogonek" format="1">
  <advance width="226"/>
  <unicode hex="012E"/>
  <outline>
    <contour>
      <point x="287" y="739" type="line"/>
      <point x="213" y="739" type="line"/>
      <point x="76" y="0" type="line"/>
      <point x="98" y="0" type="line"/>
      <point x="36" y="-32"/>
      <point x="4" y="-70"/>
      <point x="4" y="-112" type="curve" smooth="yes"/>
      <point x="4" y="-159"/>
      <point x="43" y="-195"/>
      <point x="94" y="-195" type="curve" smooth="yes"/>
      <point x="112" y="-195"/>
      <point x="126" y="-191"/>
      <point x="146" y="-182" type="curve"/>
      <point x="154" y="-137" type="line"/>
      <point x="141" y="-144"/>
      <point x="124" y="-148"/>
      <point x="106" y="-148" type="curve" smooth="yes"/>
      <point x="75" y="-148"/>
      <point x="55" y="-132"/>
      <point x="55" y="-108" type="curve" smooth="yes"/>
      <point x="55" y="-76"/>
      <point x="92" y="-34"/>
      <point x="150" y="0" type="curve"/>
    </contour>
  </outline>
</glyph>
<glyph name="iogonek" format="1">
  <advance width="200"/>
  <unicode hex="012F"/>
  <outline>
    <contour>
      <point x="238" y="547" type="line"/>
      <point x="164" y="547" type="line"/>
      <point x="63" y="0" type="line"/>
      <point x="85" y="0" type="line"/>
      <point x="23" y="-32"/>
      <point x="-9" y="-70"/>
      <point x="-9" y="-112" type="curve" smooth="yes"/>
      <point x="-9" y="-159"/>
      <point x="30" y="-195"/>
      <point x="82" y="-195" type="curve" smooth="yes"/>
      <point x="98" y="-195"/>
      <point x="114" y="-191"/>
      <point x="133" y="-182" type="curve"/>
      <point x="141" y="-137" type="line"/>
      <point x="127" y="-144"/>
      <point x="110" y="-148"/>
      <point x="92" y="-148" type="curve" smooth="yes"/>
      <point x="62" y="-148"/>
      <point x="42" y="-132"/>
      <point x="42" y="-108" type="curve" smooth="yes"/>
      <point x="42" y="-75"/>
      <point x="77" y="-35"/>
      <point x="137" y="0" type="curve"/>
    </contour>
    <contour>
      <point x="177" y="613" type="line"/>
      <point x="251" y="613" type="line"/>
      <point x="274" y="739" type="line"/>
      <point x="200" y="739" type="line"/>
    </contour>
  </outline>
</glyph>
<glyph name="Idotaccent" format="1">
  <advance width="226"/>
  <unicode hex="0130"/>
  <outline>
    <contour>
      <point x="76" y="0" type="line"/>
      <point x="150" y="0" type="line"/>
      <point x="287" y="739" type="line"/>
      <point x="213" y="739" type="line"/>
    </contour>
    <contour>
      <point x="249" y="931" type="line"/>
      <point x="226" y="805" type="line"/>
      <point x="300" y="805" type="line"/>
      <point x="323" y="931" type="line"/>
    </contour>
  </outline>
</glyph>
<glyph name="dotlessi" format="1">
  <advance width="200"/>
  <unicode hex="0131"/>
  <outline>
    <contour>
      <point x="63" y="0" type="line"/>
      <point x="137" y="0" type="line"/>
      <point x="238" y="547" type="line"/>
      <point x="164" y="547" type="line"/>
    </contour>
  </outline>
</glyph>
<glyph name="IJ" format="1">
  <advance width="686"/>
  <unicode hex="0132"/>
  <outline>
    <contour>
      <point x="743" y="739" type="line"/>
      <point x="669" y="739" type="line"/>
      <point x="574" y="231" type="line" smooth="yes"/>
      <point x="564" y="180"/>
      <point x="559" y="162"/>
      <point x="542" y="132" type="curve" smooth="yes"/>
      <point x="514" y="80"/>
      <point x="472" y="54"/>
      <point x="418" y="54" type="curve" smooth="yes"/>
      <point x="365" y="54"/>
      <point x="332" y="80"/>
      <point x="322" y="129" type="curve" smooth="yes"/>
      <point x="319" y="142"/>
      <point x="319" y="144"/>
      <point x="316" y="175" type="curve"/>
      <point x="243" y="175" type="line"/>
      <point x="241" y="164"/>
      <point x="241" y="157"/>
      <point x="241" y="146" type="curve" smooth="yes"/>
      <point x="241" y="98"/>
      <point x="251" y="66"/>
      <point x="274" y="39" type="curve" smooth="yes"/>
      <point x="304" y="5"/>
      <point x="350" y="-14"/>
      <point x="407" y="-14" type="curve" smooth="yes"/>
      <point x="535" y="-14"/>
      <point x="618" y="70"/>
      <point x="648" y="231" type="curve" smooth="yes"/>
    </contour>
    <contour>
      <point x="76" y="0" type="line"/>
      <point x="150" y="0" type="line"/>
      <point x="287" y="739" type="line"/>
      <point x="213" y="739" type="line"/>
    </contour>
  </outline>
</glyph>
<glyph name="ij" format="1">
  <advance width="370"/>
  <unicode hex="0133"/>
  <outline>
    <contour>
      <point x="406" y="547" type="line"/>
      <point x="332" y="547" type="line"/>
      <point x="238" y="38" type="line" smooth="yes"/>
      <point x="216" y="-76"/>
      <point x="181" y="-116"/>
      <point x="96" y="-121" type="curve"/>
      <point x="83" y="-192" type="line"/>
      <point x="213" y="-185"/>
      <point x="289" y="-108"/>
      <point x="312" y="38" type="curve" smooth="yes"/>
    </contour>
    <contour>
      <point x="343" y="613" type="line"/>
      <point x="417" y="613" type="line"/>
      <point x="441" y="739" type="line"/>
      <point x="367" y="739" type="line"/>
    </contour>
    <contour>
      <point x="63" y="0" type="line"/>
      <point x="137" y="0" type="line"/>
      <point x="238" y="547" type="line"/>
      <point x="164" y="547" type="line"/>
    </contour>
    <contour>
      <point x="177" y="613" type="line"/>
      <point x="251" y="613" type="line"/>
      <point x="274" y="739" type="line"/>
      <point x="200" y="739" type="line"/>
    </contour>
  </outline>
</glyph>
<glyph name="jcircumflex" format="1">
  <advance width="203"/>
  <unicode hex="0135"/>
  <outline>
    <contour>
      <point x="242" y="547" type="line"/>
      <point x="168" y="547" type="line"/>
      <point x="74" y="38" type="line" smooth="yes"/>
      <point x="52" y="-76"/>
      <point x="17" y="-116"/>
      <point x="-68" y="-121" type="curve"/>
      <point x="-81" y="-192" type="line"/>
      <point x="49" y="-185"/>
      <point x="125" y="-108"/>
      <point x="148" y="38" type="curve" smooth="yes"/>
    </contour>
    <contour>
      <point x="26" y="614" type="line"/>
      <point x="117" y="614" type="line"/>
      <point x="219" y="688" type="line"/>
      <point x="291" y="614" type="line"/>
      <point x="380" y="614" type="line"/>
      <point x="260" y="740" type="line"/>
      <point x="194" y="740" type="line"/>
    </contour>
  </outline>
</glyph>
<glyph name="Kcommaaccent" format="1">
  <advance width="591"/>
  <unicode hex="0136"/>
  <outline>
    <contour>
      <point x="76" y="0" type="line"/>
      <point x="150" y="0" type="line"/>
      <point x="187" y="202" type="line"/>
      <point x="305" y="320" type="line"/>
      <point x="492" y="0" type="line"/>
      <point x="585" y="0" type="line"/>
      <point x="363" y="379" type="line"/>
      <point x="722" y="739" type="line"/>
      <point x="629" y="739" type="line"/>
      <point x="208" y="314" type="line"/>
      <point x="287" y="739" type="line"/>
      <point x="213" y="739" type="line"/>
    </contour>
    <contour>
      <point x="186" y="-232" type="line"/>
      <point x="257" y="-232" type="line"/>
      <point x="344" y="-53" type="line"/>
      <point x="270" y="-53" type="line"/>
    </contour>
  </outline>
</glyph>
<glyph name="kcommaaccent" format="1">
  <advance width="502"/>
  <unicode hex="0137"/>
  <outline>
    <contour>
      <point x="63" y="0" type="line"/>
      <point x="137" y="0" type="line"/>
      <point x="158" y="113" type="line"/>
      <point x="264" y="219" type="line"/>
      <point x="405" y="0" type="line"/>
      <point x="497" y="0" type="line"/>
      <point x="320" y="272" type="line"/>
      <point x="584" y="547" type="line"/>
      <point x="493" y="547" type="line"/>
      <point x="177" y="215" type="line"/>
      <point x="274" y="739" type="line"/>
      <point x="200" y="739" type="line"/>
    </contour>
    <contour>
      <point x="142" y="-232" type="line"/>
      <point x="213" y="-232" type="line"/>
      <point x="300" y="-53" type="line"/>
      <point x="226" y="-53" type="line"/>
    </contour>
  </outline>
</glyph>
<glyph name="Lacute" format="1">
  <advance width="462"/>
  <unicode hex="0139"/>
  <outline>
    <contour>
      <point x="76" y="0" type="line"/>
      <point x="456" y="0" type="line"/>
      <point x="468" y="67" type="line"/>
      <point x="162" y="67" type="line"/>
      <point x="287" y="739" type="line"/>
      <point x="213" y="739" type="line"/>
    </contour>
    <contour>
      <point x="242" y="848" type="line"/>
      <point x="266" y="792" type="line"/>
      <point x="480" y="906" type="line"/>
      <point x="456" y="964" type="line"/>
    </contour>
  </outline>
</glyph>
<glyph name="lacute" format="1">
  <advance width="200"/>
  <unicode hex="013A"/>
  <outline>
    <contour>
      <point x="63" y="0" type="line"/>
      <point x="137" y="0" type="line"/>
      <point x="274" y="739" type="line"/>
      <point x="200" y="739" type="line"/>
    </contour>
    <contour>
      <point x="111" y="848" type="line"/>
      <point x="135" y="792" type="line"/>
      <point x="349" y="906" type="line"/>
      <point x="325" y="964" type="line"/>
    </contour>
  </outline>
</glyph>
<glyph name="Lcommaaccent" format="1">
  <advance width="462"/>
  <unicode hex="013B"/>
  <outline>
    <contour>
      <point x="76" y="0" type="line"/>
      <point x="456" y="0" type="line"/>
      <point x="468" y="67" type="line"/>
      <point x="162" y="67" type="line"/>
      <point x="287" y="739" type="line"/>
      <point x="213" y="739" type="line"/>
    </contour>
    <contour>
      <point x="122" y="-232" type="line"/>
      <point x="193" y="-232" type="line"/>
      <point x="280" y="-53" type="line"/>
      <point x="206" y="-53" type="line"/>
    </contour>
  </outline>
</glyph>
<glyph name="lcommaaccent" format="1">
  <advance width="200"/>
  <unicode hex="013C"/>
  <outline>
    <contour>
      <point x="63" y="0" type="line"/>
      <point x="137" y="0" type="line"/>
      <point x="274" y="739" type="line"/>
      <point x="200" y="739" type="line"/>
    </contour>
    <contour>
      <point x="-9" y="-232" type="line"/>
      <point x="62" y="-232" type="line"/>
      <point x="149" y="-53" type="line"/>
      <point x="75" y="-53" type="line"/>
    </contour>
  </outline>
</glyph>
<glyph name="Lcaron" format="1">
  <advance width="462"/>
  <unicode hex="013D"/>
  <outline>
    <contour>
      <point x="76" y="0" type="line"/>
      <point x="456" y="0" type="line"/>
      <point x="468" y="67" type="line"/>
      <point x="162" y="67" type="line"/>
      <point x="287" y="739" type="line"/>
      <point x="213" y="739" type="line"/>
    </contour>
    <contour>
      <point x="367" y="547" type="line"/>
      <point x="438" y="547" type="line"/>
      <point x="522" y="739" type="line"/>
      <point x="448" y="739" type="line"/>
    </contour>
  </outline>
</glyph>
<glyph name="lcaron" format="1">
  <advance width="231"/>
  <unicode hex="013E"/>
  <outline>
    <contour>
      <point x="63" y="0" type="line"/>
      <point x="137" y="0" type="line"/>
      <point x="274" y="739" type="line"/>
      <point x="200" y="739" type="line"/>
    </contour>
    <contour>
      <point x="257" y="547" type="line"/>
      <point x="328" y="547" type="line"/>
      <point x="412" y="739" type="line"/>
      <point x="338" y="739" type="line"/>
    </contour>
  </outline>
</glyph>
<glyph name="ldot" format="1">
  <advance width="392"/>
  <unicode hex="0140"/>
  <outline>
    <contour>
      <point x="253" y="229" type="line"/>
      <point x="327" y="229" type="line"/>
      <point x="350" y="355" type="line"/>
      <point x="276" y="355" type="line"/>
    </contour>
    <contour>
      <point x="63" y="0" type="line"/>
      <point x="137" y="0" type="line"/>
      <point x="274" y="739" type="line"/>
      <point x="200" y="739" type="line"/>
    </contour>
  </outline>
</glyph>
<glyph name="Lslash" format="1">
  <advance width="517"/>
  <unicode hex="0141"/>
  <outline>
    <contour>
      <point x="122" y="0" type="line"/>
      <point x="502" y="0" type="line"/>
      <point x="514" y="67" type="line"/>
      <point x="208" y="67" type="line"/>
      <point x="259" y="342" type="line"/>
      <point x="441" y="474" type="line"/>
      <point x="456" y="558" type="line"/>
      <point x="275" y="426" type="line"/>
      <point x="333" y="739" type="line"/>
      <point x="259" y="739" type="line"/>
      <point x="194" y="391" type="line"/>
      <point x="86" y="310" type="line"/>
      <point x="70" y="226" type="line"/>
      <point x="179" y="307" type="line"/>
    </contour>
  </outline>
</glyph>
<glyph name="lslash" format="1">
  <advance width="300"/>
  <unicode hex="0142"/>
  <outline>
    <contour>
      <point x="118" y="0" type="line"/>
      <point x="192" y="0" type="line"/>
      <point x="263" y="379" type="line"/>
      <point x="356" y="434" type="line"/>
      <point x="370" y="507" type="line"/>
      <point x="277" y="452" type="line"/>
      <point x="329" y="739" type="line"/>
      <point x="255" y="739" type="line"/>
      <point x="197" y="425" type="line"/>
      <point x="107" y="372" type="line"/>
      <point x="94" y="298" type="line"/>
      <point x="184" y="352" type="line"/>
    </contour>
  </outline>
</glyph>
<glyph name="Nacute" format="1">
  <advance width="740"/>
  <unicode hex="0143"/>
  <outline>
    <contour>
      <point x="76" y="0" type="line"/>
      <point x="150" y="0" type="line"/>
      <point x="270" y="650" type="line"/>
      <point x="590" y="0" type="line"/>
      <point x="664" y="0" type="line"/>
      <point x="801" y="739" type="line"/>
      <point x="727" y="739" type="line"/>
      <point x="613" y="126" type="line"/>
      <point x="313" y="739" type="line"/>
      <point x="213" y="739" type="line"/>
    </contour>
    <contour>
      <point x="421" y="848" type="line"/>
      <point x="445" y="792" type="line"/>
      <point x="659" y="906" type="line"/>
      <point x="635" y="964" type="line"/>
    </contour>
  </outline>
</glyph>
<glyph name="Ncommaaccent" format="1">
  <advance width="740"/>
  <unicode hex="0145"/>
  <outline>
    <contour>
      <point x="76" y="0" type="line"/>
      <point x="150" y="0" type="line"/>
      <point x="270" y="650" type="line"/>
      <point x="590" y="0" type="line"/>
      <point x="664" y="0" type="line"/>
      <point x="801" y="739" type="line"/>
      <point x="727" y="739" type="line"/>
      <point x="613" y="126" type="line"/>
      <point x="313" y="739" type="line"/>
      <point x="213" y="739" type="line"/>
    </contour>
    <contour>
      <point x="261" y="-232" type="line"/>
      <point x="332" y="-232" type="line"/>
      <point x="419" y="-53" type="line"/>
      <point x="345" y="-53" type="line"/>
    </contour>
  </outline>
</glyph>
